<?xml version="1.0" encoding="utf-8"?>
<!-- Generator: Adobe Illustrator 27.5.0, SVG Export Plug-In . SVG Version: 6.00 Build 0)  -->
<svg version="1.1" xmlns="http://www.w3.org/2000/svg" xmlns:xlink="http://www.w3.org/1999/xlink" x="0px" y="0px"
	 viewBox="0 0 499.999 500" style="enable-background:new 0 0 499.999 500;" xml:space="preserve">
<g id="BACKGROUND">
	<g>
		<g>
			<rect style="fill:#E2E2E2;" width="499.999" height="500"/>
		</g>
	</g>
</g>
<g id="OBJECTS">
	<ellipse id="SHADOW" style="opacity:0.5;fill:#BAC9CE;" cx="246.36" cy="404.964" rx="146" ry="15.25"/>
	<g id="MINI_CABINET">
		<g>
			<path style="fill:#BAC9CE;" d="M255.86,255.722c0,2.2-1.8,4-4,4h-50.5c-2.2,0-4-1.8-4-4v-50.667c0-2.2,1.8-4,4-4h50.5
				c2.2,0,4,1.8,4,4V255.722z"/>
		</g>
		<path style="fill:#4B6075;" d="M251.86,201.055h-25.25v58.667h25.25c2.2,0,4-1.8,4-4v-50.667
			C255.86,202.855,254.06,201.055,251.86,201.055z"/>
		<rect x="201.36" y="205.055" style="opacity:0.5;fill:#4B6075;" width="21" height="11.75"/>
		<rect x="201.36" y="219.693" style="opacity:0.5;fill:#4B6075;" width="21" height="11.75"/>
		<rect x="201.235" y="234.381" style="fill:#4B6075;" width="21" height="11.75"/>
		<rect x="201.36" y="248.639" style="fill:#4B6075;" width="21" height="7.362"/>
	</g>
	<g id="DESK_1_">
		<g>
			<g>
				<path style="fill:#BAC9CE;" d="M347.36,389.104c0,2.2-1.8,4-4,4h-59c-2.2,0-4-1.8-4-4v-65.715c0-2.2,1.8-4,4-4h59
					c2.2,0,4,1.8,4,4V389.104z"/>
			</g>
			<g style="opacity:0.5;">
				<path style="fill:#4B6075;" d="M313.86,389.104c0,2.2,1.8,4,4,4h25.5c2.2,0,4-1.8,4-4v-65.715c0-2.2-1.8-4-4-4h-25.5
					c-2.2,0-4,1.8-4,4V389.104z"/>
			</g>
			<rect x="284.693" y="324.388" style="opacity:0.5;fill:#4B6075;" width="24.167" height="26.167"/>
			<rect x="284.693" y="354.555" style="opacity:0.3;fill:#4B6075;" width="24.167" height="35"/>
			<path style="fill:#FFE88A;" d="M306.36,384.472c0,1.428-1.156,2.584-2.584,2.584c-1.427,0-2.583-1.156-2.583-2.584
				c0-1.427,1.156-2.583,2.583-2.583C305.204,381.889,306.36,383.045,306.36,384.472z"/>
			<rect x="287.11" y="356.247" style="opacity:0.5;fill:#4B6075;" width="19.25" height="2.059"/>
			<rect x="287.11" y="360.163" style="opacity:0.5;fill:#4B6075;" width="19.25" height="2.059"/>
		</g>
		<g id="DESK">
			<rect x="258.86" y="259.722" style="fill:#9E606F;" width="113.5" height="8.333"/>
			<rect x="341.36" y="259.722" style="fill:#4C3257;" width="31" height="8.333"/>
			<rect x="356.86" y="268.055" style="fill:#4C3257;" width="3.833" height="135.959"/>
			<polygon style="fill:#9E606F;" points="356.86,393.104 274.971,393.104 274.971,397.18 280.36,397.18 280.36,404.014 
				284.193,404.014 284.193,397.18 356.86,397.18 			"/>
			<rect x="299.985" y="397.18" style="fill:#281830;" width="3.833" height="6.834"/>
			<rect x="333.027" y="268.055" style="fill:#4C3257;" width="3.833" height="135.959"/>
		</g>
		<g>
			<g>
				<path style="fill:#4C3257;" d="M374.92,215.885c0,2.2-1.8,4-4,4h-13.06c-2.2,0-4-1.8-4-4V150.17c0-2.2,1.8-4,4-4h13.06
					c2.2,0,4,1.8,4,4V215.885z"/>
			</g>
			<g>
				<path style="fill:#3D2547;" d="M367.92,214.946c0,2.717-2.223,4.939-4.939,4.939h-92.299c-2.717,0-4.939-2.223-4.939-4.939
					V151.11c0-2.717,2.223-4.939,4.939-4.939h92.299c2.717,0,4.939,2.223,4.939,4.939V214.946z"/>
			</g>
			<g>
				<path style="fill:#FFFFFF;" d="M364.106,212.223c0,2.501-2.046,4.546-4.547,4.546h-85.457c-2.501,0-4.547-2.046-4.547-4.546
					v-58.39c0-2.5,2.046-4.546,4.547-4.546h85.457c2.501,0,4.547,2.046,4.547,4.546V212.223z"/>
			</g>
			<rect x="316.832" y="219.885" style="fill:#3D2547;" width="7.528" height="39.837"/>
			<rect x="322.36" y="219.885" style="fill:#4C3257;" width="3" height="39.837"/>
			<rect x="301.027" y="255.112" style="fill:#3D2547;" width="38.333" height="4.61"/>
			<rect x="328.027" y="255.112" style="fill:#4C3257;" width="11.333" height="4.61"/>
			<rect x="316.832" y="219.885" style="opacity:0.5;fill:#281830;" width="8.528" height="1.711"/>
		</g>
	</g>
	<g id="PROGRAMMER">
		<path style="fill:#4B6075;" d="M223.078,394.68l0.658-3.864l-15.295-2.589l-0.792,3.576c0,0-3.173,10.67,0,12.211
			c3.173,1.541,23.673,0.959,24.923,0C233.821,403.055,223.078,394.68,223.078,394.68z"/>
		<path style="fill:#281830;" d="M215.543,320.055l-14.183,64.334c0,0,13,10.291,31.312,4.915c11-29.333,25.3-71.028,15.328-73.472
			c-9.973-2.443-28.973-1.344-28.973-1.344L215.543,320.055z"/>
		<path style="fill:#4B6075;" d="M235.937,391.803c0,0-3.173,10.67,0,12.211c3.173,1.541,28.423,0.959,29.673,0
			c1.25-0.959-14.243-9.334-14.243-9.334v-2.319C251.367,392.361,245.884,393.513,235.937,391.803z"/>
		<path style="fill:#3D2547;" d="M209.86,287.555c0,0,53.834,4.498,59.834,18.499s-11.667,83.964-11.667,83.964
			s-15.333,8.787-32.333-3.296c4.667-16.667,17.723-66.646,16.723-68.311c-1-1.666-81.984,2.646-91.52-2.689
			c-9.536-5.334-5.87-22.667,0.464-29.667C161.693,279.055,188.36,295.055,209.86,287.555z"/>
		<path style="fill:#FFFFFF;" d="M197.36,201.055c0,0,8.414,2.5,9.457,8c1.043,5.5,14.043,45.391,67.043,46.945
			c0,0,2.5,4.555,0,8.055c-3.5,4-37.192,14.5-66.346,2c-0.697,17,2.346,21.5,2.346,21.5s-18.013,11.5-39.506,9
			c-21.494-2.5-19.402-8.5-19.402-8.5s0.94-60.657,7.174-72.079C165.86,204.055,182.86,196.055,197.36,201.055z"/>
		<path style="fill:#FF9561;" d="M206.512,171.786c0,0,3.729,26.343-14.878,22.973c-18.274-6.704-15.607-16.704-15.607-16.704
			l12.333-13C188.36,165.055,205.33,157.183,206.512,171.786z"/>
		<path style="fill:#9E606F;" d="M180.693,145.055c10.667,0,28.667,1.333,26.667,24c-1.333,6-4,6.5-5,0c-2,6.5-10.5,13.5-15,9
			c0-3.5-6.833-2.644-7.667,0.928c-0.833,3.572,3.667,9.072,8.667,6.572c1,6.5,4.5,12.5,9,15.5c-7-0.5-12,7.5-11,15
			c-2,8-30.5,3-33-4.5s-7.5-55.5,13-63C172.36,145.055,180.693,145.055,180.693,145.055z"/>
		<path style="fill:#FF9561;" d="M273.86,256c0,0,16.501-3.611,18.167,3.722c-6.667,0-17.092,0-17.092,0L273.86,256z"/>
	</g>
	<g id="CHAIRV">
		<path style="fill:#4B6075;" d="M127.86,212.555c-4.212,5.724-8.5,77,0,83.5s60.987,4,63.494,0c2.506-4,10.506-80.5,0-85.5
			C184.079,207.093,134.36,203.722,127.86,212.555z"/>
		<path style="opacity:0.5;fill:#3D2547;" d="M191.354,210.555c0,0-6.66-1.5-7.327,6.833c-0.667,8.333-12.347,84.667,7.327,78.667
			C193.86,292.055,201.86,215.555,191.354,210.555z"/>
		<path style="fill:#4B6075;" d="M130.61,315.149c-1.5,1.953-5.75,13.156,2.5,13.906s94.75,5.096,97.25,3.673
			c2.5-1.423,3.992-13.663-1.004-15.168C224.36,316.055,132.11,313.196,130.61,315.149z"/>
		<path style="opacity:0.5;fill:#3D2547;" d="M229.356,317.56c-1.665-0.502-13.033-1.153-27.498-1.728
			c-0.008,0.01-7.746,9.732,0,16.6c15.441,0.564,27.587,0.816,28.501,0.296C232.86,331.305,234.352,319.065,229.356,317.56z"/>
		<path style="fill:#4B6075;" d="M183.105,331.671c0,0,0,21.634,0,23.384s-2.681,3.25-2.681,3.25h-9.731c0,0-2.083-0.75-2.083-2.75
			s0-24.75,0-24.75S179.35,329.038,183.105,331.671z"/>
		<path style="fill:#4B6075;" d="M170.693,358.305v33.5c0,0,6.544,1.25,9.731,0c0-12.5,0-33.5,0-33.5H170.693z"/>
		<path style="fill:#32404D;" d="M207.948,398.805c0-1.75-14.94-8.25-32.389-8.25c-17.449,0-34.389,6.77-32.909,8.25
			C150.61,398.805,207.948,398.805,207.948,398.805z"/>
		<path style="fill:#281830;" d="M207.277,404.014c0,2.324-1.884,4.208-4.209,4.208s-4.208-1.884-4.208-4.208
			c0-2.325,1.884-4.209,4.208-4.209S207.277,401.689,207.277,404.014z"/>
		<path style="fill:#281830;" d="M151.496,404.014c0,2.324-1.884,4.208-4.208,4.208c-2.324,0-4.208-1.884-4.208-4.208
			c0-2.325,1.884-4.209,4.208-4.209C149.611,399.805,151.496,401.689,151.496,404.014z"/>
		<path style="fill:#281830;" d="M179.767,404.014c0,2.324-1.884,4.208-4.208,4.208s-4.208-1.884-4.208-4.208
			c0-2.325,1.884-4.209,4.208-4.209S179.767,401.689,179.767,404.014z"/>
		<path style="opacity:0.5;fill:#3D2547;" d="M183.105,331.671c0,0,0,21.634,0,23.384s-2.681,3.25-2.681,3.25h-9.731
			c0,0-2.083-0.75-2.083-2.75s0-24.75,0-24.75S179.35,329.038,183.105,331.671z"/>
		<path style="fill:#BAC9CE;" d="M145.079,275.055c-4.697,2.526-2.027,50.691,3.281,56c6.667,6.667,20,5,22.333,0
			c-2.333-1.333-9.457,1.274-8.895-31.696c0.895-17.637,1.229-23.637-0.438-24.304S148.797,273.055,145.079,275.055z"/>
		<path style="opacity:0.5;fill:#4B6075;" d="M170.693,331.055c-2.333-1.333-9.457,1.274-8.895-31.696
			c0.895-17.637,1.229-23.637-0.438-24.304c-0.607-0.243-2.448-0.574-4.715-0.8c0.026,20.55-5.986,62.582,12.022,59.009
			c0.001,0,0.001,0,0.001,0C169.595,332.636,170.302,331.894,170.693,331.055z"/>
	</g>
	<text transform="matrix(1 0 0 1 310.8599 143.0553)" style="fill:#281830; font-family:'BebasKai'; font-size:13.4442px;">PROGRAMMING</text>
	<g id="BUBBLES">
		<g>
			<path style="fill:#FFFFFF;" d="M168.826,144.337c4.616-4.887,7.452-11.474,7.452-18.727c0-15.067-12.215-27.283-27.283-27.283
				c-15.067,0-27.283,12.215-27.283,27.283c0,15.068,12.215,27.283,27.283,27.283c4.708,0,9.136-1.192,13.002-3.292l10.802,7.348
				L168.826,144.337z"/>
			<text transform="matrix(1 0 0 1 134.5899 131.0596)" style="fill:#3D2547; font-family:'BebasKai'; font-size:16.8609px;">HTML</text>
		</g>
		<g>
			<path style="fill:#FFFFFF;" d="M282.507,124.421c6.215-6.116,10.071-14.621,10.071-24.029c0-18.622-15.097-33.719-33.72-33.719
				c-18.621,0-33.718,15.097-33.718,33.719c0,18.623,15.097,33.719,33.718,33.719c5.509,0,10.703-1.329,15.296-3.671l11.347,9.881
				L282.507,124.421z"/>
			<text transform="matrix(1 0 0 1 247.5786 107.1236)" style="fill:#3D2547; font-family:'BebasKai'; font-size:20.8386px;">CSS</text>
		</g>
		<g>
			<path style="fill:#FFFFFF;" d="M414.637,185.212c-18.621,0-33.717,15.097-33.717,33.719c0,7.028,2.152,13.552,5.83,18.953
				l-5.83,12.624l11.779-5.983c5.898,5.06,13.558,8.124,21.938,8.124c18.623,0,33.721-15.096,33.721-33.719
				C448.358,200.308,433.26,185.212,414.637,185.212z"/>
			<text transform="matrix(1 0 0 1 396.417 228.6206)" style="fill:#3D2547; font-family:'BebasKai'; font-size:30px;">C++</text>
		</g>
		<g>
			
				<ellipse transform="matrix(0.7071 -0.7071 0.7071 0.7071 -167.5412 156.2415)" style="fill:#FFFFFF;" cx="104.83" cy="280.361" rx="26.999" ry="26.999"/>
			<text transform="matrix(1 0 0 1 91.9516 288.6469)" style="fill:#3D2547; font-family:'BebasKai'; font-size:21.8576px;">&lt;/&gt;</text>
		</g>
		<g>
			<circle style="fill:#FFFFFF;" cx="378.968" cy="304.29" r="28.409"/>
			<text transform="matrix(1 0 0 1 371.4165 313.0085)" style="fill:#3D2547; font-family:'BebasKai'; font-size:24px;">Js</text>
		</g>
	</g>
</g>
<g id="DESIGNED_BY_FREEPIK">
	<g>
		<g id="XMLID_1_">
			<g id="XMLID_20_">
				<path id="XMLID_28_" style="fill:#1D262D;" d="M260.303,461.465c-0.434,0.443-0.805,0.932-1.109,1.453l-0.465-0.241
					c-0.066-0.297-0.35-0.502-0.658-0.466c-0.332,0.039-0.568,0.339-0.529,0.67c0.039,0.331,0.338,0.567,0.67,0.528
					c0.064-0.007,0.127-0.025,0.184-0.052l0.451,0.234c-0.252,0.554-0.434,1.139-0.539,1.743l0.746,0.132
					c0.23-1.306,0.85-2.507,1.793-3.473L260.303,461.465z"/>
				<path id="XMLID_27_" style="fill:#1D262D;" d="M265.79,459.164c-0.17,0-0.34,0.006-0.508,0.017l-0.074-0.626
					c0.188-0.149,0.295-0.389,0.266-0.645c-0.047-0.393-0.402-0.674-0.795-0.628c-0.395,0.046-0.676,0.402-0.629,0.796
					c0.031,0.254,0.189,0.461,0.404,0.563l0.074,0.624c-0.715,0.116-1.402,0.332-2.061,0.646l0.328,0.685
					c0.934-0.447,1.942-0.674,2.994-0.674c0.498,0,0.994,0.053,1.477,0.158l0.16-0.741
					C266.891,459.222,266.34,459.164,265.79,459.164z"/>
				<path id="XMLID_26_" style="fill:#1D262D;" d="M272.393,461.711c0.33-0.04,0.566-0.341,0.525-0.672
					c-0.041-0.331-0.342-0.566-0.672-0.525c-0.31,0.038-0.535,0.304-0.531,0.608l-0.416,0.363c-0.418-0.43-0.889-0.813-1.406-1.14
					l-0.404,0.642c1.135,0.715,2.02,1.727,2.563,2.925l0.691-0.313c-0.252-0.554-0.568-1.071-0.943-1.545l0.402-0.351
					C272.264,461.715,272.327,461.719,272.393,461.711z"/>
				<path id="XMLID_25_" style="fill:#1D262D;" d="M265.243,469.372c-0.385,0.023-0.775,0.035-1.156,0.035
					c-0.881,0-1.734-0.061-2.479-0.18c-0.391-0.062-0.846-0.154-1.271-0.292c1.047,1.861,3.07,3.125,5.389,3.125
					c2.855,0,5.264-1.916,5.949-4.503c-0.682,0.449-1.504,0.825-2.457,1.122C268.038,469.047,266.663,469.287,265.243,469.372z"/>
				<path id="XMLID_21_" style="fill:#1D262D;" d="M265.79,460.68c-3.352,0-6.078,2.666-6.078,5.943
					c0,0.425,0.045,0.849,0.137,1.261c0.674,0.483,2.705,0.891,5.348,0.731c2.879-0.174,5.297-0.958,6.672-2.159
					c-0.006-0.194-0.022-0.39-0.045-0.581C271.442,462.914,268.848,460.68,265.79,460.68z M263.631,467.195
					c-1.019,0-1.85-0.83-1.85-1.85c0-1.021,0.83-1.851,1.85-1.851c1.02,0,1.85,0.83,1.85,1.851
					C265.481,466.365,264.651,467.195,263.631,467.195z M268.368,466.287c-0.75,0-1.359-0.61-1.359-1.36s0.609-1.36,1.359-1.36
					s1.361,0.61,1.361,1.36S269.118,466.287,268.368,466.287z"/>
			</g>
			<path id="XMLID_18_" style="fill:#1D262D;" d="M281.793,462.547c-0.295-0.116-0.805-0.31-1.383-0.238
				c-0.551,0.069-0.844,0.341-0.844,1.007v0.866h2.228v1.717h-2.228v5.455h-1.932v-5.455h-1.338v-1.717h1.338v-0.889
				c0-1.68,0.897-2.782,2.568-2.782c0.642,0,1.158,0.121,1.59,0.308V462.547z"/>
			<path id="XMLID_16_" style="fill:#1D262D;" d="M286.497,465.878c-0.178-0.029-0.357-0.046-0.525-0.046
				c-0.897,0-1.51,0.548-1.51,1.613v3.908h-1.934v-7.172h1.873v0.784c0.451-0.673,1.141-0.977,2.021-0.977
				c0.414,0,0.848,0.128,1.094,0.337L286.497,465.878z"/>
			<path id="XMLID_13_" style="fill:#1D262D;" d="M294.165,467.757c0,0.222-0.016,0.488-0.037,0.651h-5.086
				c0.207,1.036,0.934,1.487,1.844,1.487c0.621,0,1.295-0.252,1.813-0.689l1.133,1.243c-0.814,0.748-1.85,1.089-3.057,1.089
				c-2.197,0-3.723-1.496-3.723-3.753c0-2.258,1.48-3.797,3.627-3.797C292.743,463.99,294.157,465.522,294.165,467.757z
				 M289.049,467.091h3.176c-0.178-0.918-0.732-1.437-1.563-1.437C289.753,465.655,289.219,466.203,289.049,467.091z"/>
			<path id="XMLID_10_" style="fill:#1D262D;" d="M301.817,467.757c0,0.222-0.016,0.488-0.037,0.651h-5.084
				c0.207,1.036,0.932,1.487,1.842,1.487c0.623,0,1.297-0.252,1.814-0.689l1.133,1.243c-0.815,0.748-1.852,1.089-3.059,1.089
				c-2.197,0-3.723-1.496-3.723-3.753c0-2.258,1.48-3.797,3.627-3.797C300.395,463.99,301.809,465.522,301.817,467.757z
				 M296.704,467.091h3.174c-0.178-0.918-0.732-1.437-1.561-1.437C297.407,465.655,296.874,466.203,296.704,467.091z"/>
			<path id="XMLID_7_" style="fill:#1D262D;" d="M310.163,467.764c0,2.154-1.494,3.775-3.471,3.775
				c-0.963,0-1.645-0.378-2.109-0.933v3.708h-1.926v-10.133h1.889v0.792c0.467-0.585,1.154-0.984,2.139-0.984
				C308.668,463.99,310.163,465.611,310.163,467.764z M304.485,467.764c0,1.133,0.748,1.977,1.844,1.977
				c1.141,0,1.85-0.881,1.85-1.977c0-1.095-0.709-1.976-1.85-1.976C305.233,465.789,304.485,466.632,304.485,467.764z"/>
			<path id="XMLID_4_" style="fill:#1D262D;" d="M313.266,461.836c0,0.696-0.541,1.229-1.236,1.229
				c-0.695,0-1.228-0.533-1.228-1.229c0-0.695,0.533-1.243,1.228-1.243C312.725,460.592,313.266,461.14,313.266,461.836z
				 M313.006,471.354h-1.932v-7.172h1.932V471.354z"/>
			<path id="XMLID_2_" style="fill:#1D262D;" d="M316.231,466.736l2.701-2.554h2.369l-3.479,3.375l3.5,3.797h-2.375l-2.717-2.901
				v2.901h-1.932v-10.658h1.932V466.736z"/>
		</g>
		<g>
			<path style="fill:#1D262D;" d="M184.611,471.29v-1.055c-0.527,0.718-1.391,1.23-2.387,1.23c-1.846,0-3.149-1.406-3.149-3.706
				c0-2.256,1.289-3.721,3.149-3.721c0.952,0,1.816,0.469,2.387,1.245v-3.765h1.099v9.771H184.611z M184.611,469.371v-3.208
				c-0.395-0.615-1.245-1.143-2.124-1.143c-1.421,0-2.27,1.172-2.27,2.739c0,1.567,0.116,2.023,1.424,2.577
				C182.579,470.733,184.216,469.986,184.611,469.371z"/>
			<path style="fill:#1D262D;" d="M187.13,467.745c0-2.051,1.465-3.706,3.486-3.706c2.139,0,3.398,1.67,3.398,3.794v0.278h-5.727
				c0.088,1.333,1.025,2.446,2.549,2.446c0.806,0,1.626-0.322,2.182-0.894l0.527,0.718c-0.703,0.703-1.655,1.084-2.812,1.084
				C188.639,471.465,187.13,469.957,187.13,467.745z M190.602,464.947c-1.509,0-2.256,1.274-2.314,2.358h4.644
				C192.916,466.25,192.213,464.947,190.602,464.947z"/>
			<path style="fill:#1D262D;" d="M194.806,470.352l0.571-0.791c0.469,0.542,1.362,1.011,2.329,1.011c1.085,0,1.67-0.513,1.67-1.216
				c0-1.714-4.38-0.659-4.38-3.281c0-1.099,0.952-2.036,2.636-2.036c1.202,0,2.051,0.454,2.622,1.025l-0.513,0.762
				c-0.424-0.513-1.201-0.894-2.109-0.894c-0.966,0-1.567,0.483-1.567,1.113c0,1.553,4.379,0.527,4.379,3.281
				c0,1.187-0.952,2.139-2.783,2.139C196.505,471.465,195.523,471.114,194.806,470.352z"/>
			<path style="fill:#1D262D;" d="M201.676,462.471c0-0.41,0.337-0.747,0.732-0.747c0.41,0,0.747,0.337,0.747,0.747
				c0,0.41-0.337,0.732-0.747,0.732C202.013,463.204,201.676,462.881,201.676,462.471z M201.866,471.29v-7.075h1.099v7.075H201.866z
				"/>
			<path style="fill:#1D262D;" d="M204.781,473.106l0.556-0.82c0.586,0.703,1.289,0.967,2.3,0.967c1.172,0,2.27-0.571,2.27-2.124
				v-1.011c-0.513,0.718-1.377,1.26-2.373,1.26c-1.846,0-3.149-1.377-3.149-3.662c0-2.271,1.289-3.677,3.149-3.677
				c0.952,0,1.802,0.469,2.373,1.245v-1.069h1.099v6.87c0,2.344-1.641,3.076-3.369,3.076
				C206.436,474.161,205.615,473.925,204.781,473.106z M209.907,469.253v-3.091c-0.381-0.615-1.23-1.143-2.109-1.143
				c-1.421,0-2.27,1.128-2.27,2.695c0,1.553,0.849,2.695,2.27,2.695C208.677,470.411,209.526,469.869,209.907,469.253z"/>
			<path style="fill:#1D262D;" d="M217.612,471.29v-4.629c0-1.245-0.63-1.641-1.582-1.641c-0.864,0-1.685,0.527-2.094,1.099v5.171
				h-1.099v-7.075h1.099v1.025c0.497-0.586,1.464-1.201,2.519-1.201c1.48,0,2.256,0.747,2.256,2.285v4.966H217.612z"/>
			<path style="fill:#1D262D;" d="M220.131,467.745c0-2.051,1.465-3.706,3.486-3.706c2.139,0,3.398,1.67,3.398,3.794v0.278h-5.727
				c0.088,1.333,1.025,2.446,2.548,2.446c0.806,0,1.626-0.322,2.183-0.894l0.527,0.718c-0.703,0.703-1.655,1.084-2.813,1.084
				C221.64,471.465,220.131,469.957,220.131,467.745z M223.603,464.947c-1.509,0-2.256,1.274-2.314,2.358h4.643
				C225.917,466.25,225.214,464.947,223.603,464.947z"/>
			<path style="fill:#1D262D;" d="M233.549,471.29v-1.055c-0.527,0.718-1.392,1.23-2.388,1.23c-1.845,0-3.149-1.406-3.149-3.706
				c0-2.256,1.288-3.721,3.149-3.721c0.952,0,1.817,0.469,2.388,1.245v-3.765h1.098v9.771H233.549z M233.549,469.371v-3.208
				c-0.396-0.615-1.245-1.143-2.124-1.143c-1.421,0-2.27,1.172-2.27,2.739c0,1.567,0.85,2.725,2.27,2.725
				C232.304,470.484,233.153,469.986,233.549,469.371z"/>
			<path style="fill:#1D262D;" d="M239.891,471.29v-9.771h1.099v3.765c0.571-0.776,1.421-1.245,2.388-1.245
				c1.845,0,3.149,1.465,3.149,3.721c0,2.3-1.304,3.706-3.149,3.706c-0.996,0-1.86-0.513-2.388-1.23v1.055H239.891z
				 M243.099,470.484c1.436,0,2.285-1.157,2.285-2.725c0-1.567-0.85-2.739-2.285-2.739c-0.864,0-1.729,0.527-2.109,1.143v3.208
				C241.37,469.986,242.234,470.484,243.099,470.484z"/>
			<path style="fill:#1D262D;" d="M247.727,473.062c0.161,0.073,0.425,0.117,0.601,0.117c0.483,0,0.806-0.161,1.055-0.747
				l0.469-1.069l-2.959-7.148h1.187l2.358,5.801l2.345-5.801h1.199l-3.544,8.511c-0.425,1.024-1.143,1.421-2.08,1.436
				c-0.234,0-0.601-0.044-0.806-0.104L247.727,473.062z"/>
		</g>
	</g>
</g>
</svg>
