<?xml version="1.0" encoding="utf-8"?>
<!-- Generator: Adobe Illustrator 27.5.0, SVG Export Plug-In . SVG Version: 6.00 Build 0)  -->
<svg version="1.1" xmlns="http://www.w3.org/2000/svg" xmlns:xlink="http://www.w3.org/1999/xlink" x="0px" y="0px"
	 viewBox="0 0 500 500" style="enable-background:new 0 0 500 500;" xml:space="preserve">
<g id="BACKGROUND">
	<rect style="fill:#84C2D9;" width="500" height="500"/>
</g>
<g id="OBJECTS">
	<g>
		<g>
			<path style="fill:#ADD6F5;" d="M106.542,398.939c-82.191-38.356-69.681-118.567-2.939-169.741
				c51.435-39.437,41.493-64.283,40.414-97.729c-1.47-45.558,47.551-90.433,111.408-43.077
				c36.288,26.911,92.595,10.55,136.957,4.867c52.685-6.75,89.327,48.893,18.757,121.499
				c-42.074,43.288-24.842,84.483-1.856,144.501c26.453,69.072-37.475,135.205-125.652,74.216
				C202,377.014,194.719,440.088,106.542,398.939z"/>
			
				<ellipse transform="matrix(0.4985 -0.8669 0.8669 0.4985 12.3829 474.6002)" style="fill:#ADD6F5;" cx="416.407" cy="226.597" rx="33.715" ry="21.628"/>
			<circle style="fill:#ADD6F5;" cx="137.145" cy="167.437" r="15.903"/>
			<path style="fill:#ADD6F5;" d="M450.758,194.154c0,1.757-1.424,3.181-3.181,3.181c-1.757,0-3.181-1.424-3.181-3.181
				c0-1.757,1.424-3.181,3.181-3.181C449.334,190.974,450.758,192.398,450.758,194.154z"/>
			
				<ellipse transform="matrix(0.8277 -0.5611 0.5611 0.8277 -119.2347 81.3674)" style="fill:#ADD6F5;" cx="72.896" cy="234.867" rx="37.532" ry="21.628"/>
			<circle style="fill:#ADD6F5;" cx="375.059" cy="79.65" r="5.725"/>
			<path style="fill:#ADD6F5;" d="M121.845,184.335c0,2.599-2.107,4.705-4.705,4.705c-2.599,0-4.706-2.107-4.706-4.705
				c0-2.599,2.107-4.705,4.706-4.705C119.739,179.63,121.845,181.736,121.845,184.335z"/>
			
				<ellipse transform="matrix(0.2286 -0.9735 0.9735 0.2286 108.6037 237.5265)" style="fill:#ADD6F5;" cx="204.191" cy="50.23" rx="11.293" ry="11.293"/>
			
				<ellipse transform="matrix(0.9566 -0.2915 0.2915 0.9566 -84.6232 138.5015)" style="fill:#ADD6F5;" cx="422.523" cy="353.26" rx="20.233" ry="31.526"/>
			<path style="fill:#ADD6F5;" d="M317.121,470.896c0,1.819-1.475,3.294-3.294,3.294c-1.819,0-3.294-1.475-3.294-3.294
				s1.475-3.294,3.294-3.294C315.646,467.603,317.121,469.077,317.121,470.896z"/>
			<path style="fill:#ADD6F5;" d="M436.169,400.785c0,3.378-2.739,6.117-6.117,6.117c-3.378,0-6.117-2.739-6.117-6.117
				c0-3.378,2.739-6.117,6.117-6.117C433.43,394.668,436.169,397.407,436.169,400.785z"/>
			<path style="fill:#ADD6F5;" d="M71.968,391.845c0,3.898-3.16,7.058-7.058,7.058s-7.058-3.16-7.058-7.058s3.16-7.058,7.058-7.058
				S71.968,387.947,71.968,391.845z"/>
			<path style="fill:#ADD6F5;" d="M46.558,276.091c0,3.118-2.528,5.647-5.646,5.647s-5.647-2.528-5.647-5.647
				s2.528-5.646,5.647-5.646S46.558,272.973,46.558,276.091z"/>
		</g>
		<g>
			<path style="fill:#E8B17A;" d="M169.568,323.211c11.643,16.436,37.609,34.711,42.244,62.058c1.399,8.257,112.167,7.8,112.167,7.8
				s-18.018,30.829-44.675,61.385c-24.397,27.966-56.811,47.19-98.544,44.477c-41.733-2.713-62.705-32.668-67.682-70.131
				c-3.377-25.42-6.367-53.006-3.53-66.893C112.903,345.492,169.568,323.211,169.568,323.211z"/>
		</g>
		<path style="fill:#D3976F;" d="M177.477,357.1c0,0-23.748,54.692,6.117,58.65c-5.037,10.075,0.36,24.108,0.36,24.108
			s7.853-26.637,74.482-30.224c46.776-2.519,58.29-7.556,58.29-7.556L177.477,357.1z"/>
		<path style="fill:#E8B17A;" d="M144.634,468.67l1.329,31.33h115.903c0,0,1.009-15.658,1.009-39.858
			C219.459,452.759,144.634,468.67,144.634,468.67z"/>
		<path style="fill:#323D55;" d="M351.628,131.141H347.7v38.65h3.928c0.933,0,1.69-0.757,1.69-1.69v-35.271
			C353.318,131.898,352.561,131.141,351.628,131.141z"/>
		<path style="fill:#323D55;" d="M351.628,176.263H347.7v18.713h3.928c0.933,0,1.69-0.757,1.69-1.69v-15.333
			C353.318,177.02,352.561,176.263,351.628,176.263z"/>
		<path style="fill:#3E4D6C;" d="M343.348,88.188h-162.24c-3.816,0-6.909,3.093-6.909,6.909v301.401
			c0,3.816,3.094,6.909,6.909,6.909h162.24c3.816,0,6.909-3.093,6.909-6.909V95.097C350.257,91.281,347.164,88.188,343.348,88.188z"
			/>
		<rect x="183.68" y="103.642" style="fill:#E9E9E9;" width="157.095" height="275.28"/>
		<rect x="186.375" y="106.935" style="fill:#FFFFFF;" width="151.706" height="268.733"/>
		<rect x="198.916" y="293.397" style="fill:#A8CFD0;" width="54.973" height="34.263"/>
		<g>
			<rect x="261.754" y="300.902" style="fill:#C3C4C4;" width="53.17" height="1.784"/>
			<rect x="261.754" y="312.061" style="fill:#C3C4C4;" width="53.17" height="1.784"/>
			<rect x="261.754" y="306.077" style="fill:#C3C4C4;" width="37.826" height="1.784"/>
			<rect x="261.754" y="318.351" style="fill:#C3C4C4;" width="27.681" height="1.784"/>
		</g>
		<rect x="198.916" y="336.867" style="fill:#A8CFD0;" width="54.973" height="34.263"/>
		<g>
			<rect x="261.754" y="344.373" style="fill:#C3C4C4;" width="53.17" height="1.784"/>
			<rect x="261.754" y="355.532" style="fill:#C3C4C4;" width="53.17" height="1.784"/>
			<rect x="261.754" y="349.547" style="fill:#C3C4C4;" width="37.826" height="1.784"/>
			<rect x="261.754" y="361.822" style="fill:#C3C4C4;" width="27.681" height="1.784"/>
		</g>
		<rect x="198.916" y="249.926" style="fill:#A8CFD0;" width="54.973" height="34.263"/>
		<rect x="195.578" y="123.236" style="fill:#323D55;" width="133.3" height="96.993"/>
		<path style="fill:#3E4D6C;" d="M286.866,111.048h-51.743c-2.024,0-3.864-1.176-4.714-3.013l-5.758-12.445h72.686l-5.758,12.445
			C290.73,109.872,288.89,111.048,286.866,111.048z"/>
		<path style="opacity:0.52;fill:#C3C4C4;" d="M198.916,336.867c27.122-23.943,29.906-65.234,22.966-77.537l-47.684,77.188v22.417
			C179.081,355.076,190.43,345.838,198.916,336.867z"/>
		<g>
			<path style="fill:#E8B17A;" d="M171.795,360.811c6.852-10.952,13.94-27.824,14.501-30.397
				c32.076-16.64,39.042-39.879,39.042-59.957c0-17.902-9.934-19.685-17.569-13.665c-14.501,11.434-32.949,31.65-71.708,46.129
				c-4.946,1.848-5.695,6.459-7.575,11.373c-3.649,9.541-11.662,26.221-17.582,41.6c-3.429,8.908-1.453,15.825,6.451,19.777
				C125.261,379.623,160.693,378.556,171.795,360.811z"/>
		</g>
		
			<line style="fill:none;stroke:#323D55;stroke-width:2.4391;stroke-linecap:round;stroke-miterlimit:10;" x1="237.042" y1="102.646" x2="284.789" y2="102.646"/>
		
			<ellipse transform="matrix(0.9372 -0.3489 0.3489 0.9372 -68.1209 85.9773)" style="fill:#C3C4C4;" cx="204.63" cy="232.106" rx="7.343" ry="7.343"/>
		<path style="fill:#C3C4C4;" d="M321.347,227.978h-19.812c-2.28,0-4.128,1.848-4.128,4.128v0c0,2.28,1.848,4.128,4.128,4.128
			h19.812c2.28,0,4.128-1.848,4.128-4.128v0C325.475,229.826,323.627,227.978,321.347,227.978z"/>
		<rect x="216.871" y="228.567" style="fill:#C3C4C4;" width="53.17" height="1.784"/>
		<rect x="216.871" y="233.741" style="fill:#C3C4C4;" width="37.826" height="1.784"/>
		<g>
			<rect x="261.754" y="257.432" style="fill:#C3C4C4;" width="53.17" height="1.784"/>
			<rect x="261.754" y="268.591" style="fill:#C3C4C4;" width="53.17" height="1.784"/>
			<rect x="261.754" y="262.606" style="fill:#C3C4C4;" width="37.826" height="1.784"/>
			<rect x="261.754" y="274.881" style="fill:#C3C4C4;" width="27.681" height="1.784"/>
		</g>
		<g>
			<defs>
				<polygon id="SVGID_1_" points="328.878,220.229 190.711,220.229 183.263,44.357 328.878,44.357 				"/>
			</defs>
			<clipPath id="SVGID_00000149374131333700617780000011133714683143183253_">
				<use xlink:href="#SVGID_1_"  style="overflow:visible;"/>
			</clipPath>
			<g style="clip-path:url(#SVGID_00000149374131333700617780000011133714683143183253_);">
				<path style="fill:#EBC68D;" d="M305.434,199.681c1.749,6.121,3.827,10.516,5.465,14.1c1.749,3.826,14.755,0.109,13.225-7.432
					c-1.071-5.276-4.263-12.351-4.263-12.351L305.434,199.681z"/>
				<path style="fill:#EBC68D;" d="M269.716,151.225c9.928,0,12.309-5.508,12.651-7.23c-7.051-1.419-14.031-1.991-22.712-0.818
					C259.457,145.177,259.965,151.225,269.716,151.225z"/>
				<polygon style="fill:#EBC68D;" points="262.8,138.808 263.163,125.616 279.935,126.077 279.656,136.223 279.294,149.394 
					262.522,148.933 				"/>
				<polygon style="fill:#DAA66B;" points="263.163,125.616 280.202,125.884 279.923,131.77 279.561,139.412 262.789,139.144 				
					"/>
				<path style="fill:#64AF76;" d="M304.703,151.414c0,0-9.556-5.217-21.19-7.752c-0.504-0.111-1.001-0.215-1.496-0.313
					c-0.343,1.722-2.202,6.989-12.131,6.989c-9.751,0-10.062-5.604-9.863-7.604c-0.722,0.097-1.456,0.203-2.214,0.322
					c-5.296,0.833-11.846,2.972-17.124,5.438c0,0-3.486,20.952-2.751,95.223c0,0,23.63,8.497,61.559,1.263
					c0,0-4.797-42.736,0.131-62.646C299.623,182.334,303.144,163.929,304.703,151.414z"/>
				<path style="fill:#4B8465;" d="M325.023,198.829c-8.585-45.461-20.32-47.415-20.32-47.415
					c-4.2,13.292-6.496,22.168-5.388,32.254c0.652,5.929,2.977,12.628,5.456,19.947C309.164,203.339,318.92,202,325.023,198.829z"/>
				<g>
					<path style="fill:#EBC68D;" d="M287.061,108.402c-1.589,4.116-1.557,7.285,1.131,8.477c2.685,1.193,8.492-0.377,10.081-4.494
						c1.591-4.121,0.699-8.423-1.989-9.615C293.598,101.578,288.649,104.284,287.061,108.402z"/>
					<path style="fill:#FFFFFF;" d="M276.66,123.922c-0.315-0.098-0.683-0.195-1.07-0.299c0.069-0.322,0.111-0.547,0.11-0.628
						L276.66,123.922z"/>
					<path style="fill:#EBC68D;" d="M293.697,113.289c-2.159,14.097-12.209,23.56-26.389,22.308
						c-12.9-1.139-21.821-19.17-22.183-35.618c-0.363-16.449,8.452-29.46,24.027-29.219
						C293.007,71.13,298.246,83.581,293.697,113.289z"/>
					<path style="fill:#EBC68D;" d="M252.731,107.09c1.64,4.098,1.647,7.265-1.026,8.492c-2.669,1.225-8.496-0.271-10.135-4.369
						c-1.642-4.1-0.803-8.412,1.869-9.639C246.109,100.347,251.092,102.992,252.731,107.09z"/>
					
						<linearGradient id="SVGID_00000108988578596284272330000018038523487499998884_" gradientUnits="userSpaceOnUse" x1="-6116.5273" y1="1755.296" x2="-6122.5781" y2="1759.0573" gradientTransform="matrix(-0.9679 0.2513 0.2513 0.9679 -6095.3086 -54.4719)">
						<stop  offset="0" style="stop-color:#BC7F78"/>
						<stop  offset="1" style="stop-color:#E6B8AC;stop-opacity:0"/>
					</linearGradient>
					<path style="fill:url(#SVGID_00000108988578596284272330000018038523487499998884_);" d="M273.389,105.601
						c-3.779-0.756-6.962-0.135-7.671,2.667c-0.708,2.803,3.115,4.513,6.251,4.881C275.107,113.518,276.33,106.189,273.389,105.601z
						"/>
					<g>
						<path style="fill:#946053;" d="M275.051,106.13c-1.527-0.276-3.06-0.406-4.552-0.268c-1.46,0.146-3,0.58-3.892,1.597
							c-0.434,0.498-0.608,1.144-0.42,1.776c0.157,0.642,0.612,1.229,1.133,1.741c1.073,1.017,2.43,1.779,3.805,2.489
							c-1.493-0.404-2.989-0.965-4.248-1.992c-0.627-0.506-1.193-1.163-1.467-2.017c-0.298-0.851-0.037-1.887,0.545-2.547
							c1.211-1.318,2.939-1.675,4.507-1.71C272.06,105.169,273.618,105.538,275.051,106.13z"/>
					</g>
					<g>
						<path style="fill:#946053;" d="M277.893,119.733c0.38,0.609,0.336,1.386,0.236,2.088c-0.167,0.698-0.433,1.392-0.863,1.986
							c-0.817,1.228-2.137,2.069-3.524,2.483c-1.402,0.391-2.853,0.454-4.257,0.292c-0.702-0.077-1.387-0.255-2.071-0.393
							c-0.665-0.23-1.332-0.431-1.979-0.684c0.698,0.066,1.376,0.184,2.057,0.273c0.686,0.036,1.365,0.122,2.041,0.139
							c1.353,0.023,2.696-0.079,3.96-0.443c1.259-0.363,2.415-1.057,3.243-2.067C277.52,122.413,278.221,121.097,277.893,119.733z"
							/>
					</g>
					<g>
						
							<linearGradient id="SVGID_00000102525000251541733130000002878247209181432984_" gradientUnits="userSpaceOnUse" x1="-6133.5762" y1="1747.7886" x2="-6131.0654" y2="1756.3066" gradientTransform="matrix(-0.9679 0.2513 0.2513 0.9679 -6095.3086 -54.4719)">
							<stop  offset="0" style="stop-color:#C7986A"/>
							<stop  offset="1" style="stop-color:#C7986A;stop-opacity:0"/>
						</linearGradient>
						<path style="fill:url(#SVGID_00000102525000251541733130000002878247209181432984_);" d="M275.037,95.383
							c-0.346,2.591-1.799,10.194,5.491,10.802c7.291,0.608,5.558-8.206,5.558-8.206S278.367,95.722,275.037,95.383z"/>
						<path style="fill:#5A3921;" d="M277.456,105.432c0.138,0.532,0.681,0.851,1.213,0.713c0.532-0.138,0.851-0.681,0.713-1.213
							c-0.138-0.532-0.681-0.851-1.213-0.713C277.637,104.356,277.318,104.899,277.456,105.432z"/>
						<path style="fill:#844E26;" d="M276.609,94.918c8.36,0.582,12.946,3.904,7.633,3.862
							C278.929,98.738,271.096,94.535,276.609,94.918z"/>
					</g>
					<g>
						
							<linearGradient id="SVGID_00000071524874492892080910000016206496319304668830_" gradientUnits="userSpaceOnUse" x1="7150.168" y1="-1701.1265" x2="7152.6782" y2="-1692.6085" gradientTransform="matrix(0.9679 0.2513 -0.2513 0.9679 -7086.8633 -54.4719)">
							<stop  offset="0" style="stop-color:#C7986A"/>
							<stop  offset="1" style="stop-color:#C7986A;stop-opacity:0"/>
						</linearGradient>
						<path style="fill:url(#SVGID_00000071524874492892080910000016206496319304668830_);" d="M266.84,95.383
							c0.346,2.591,1.799,10.194-5.491,10.802c-7.291,0.608-5.558-8.206-5.558-8.206S263.509,95.722,266.84,95.383z"/>
						<path style="fill:#5A3921;" d="M264.421,105.432c-0.138,0.532-0.681,0.851-1.213,0.713c-0.532-0.138-0.851-0.681-0.713-1.213
							c0.138-0.532,0.681-0.851,1.213-0.713C264.239,104.356,264.559,104.899,264.421,105.432z"/>
						<path style="fill:#844E26;" d="M265.267,94.918c-8.359,0.582-12.946,3.904-7.633,3.862
							C262.947,98.738,270.78,94.535,265.267,94.918z"/>
					</g>
					<path style="fill:#DD9E99;" d="M284.759,108.126c0,0.561,1.456,1.016,3.252,1.016c1.796,0,3.251-0.455,3.251-1.016
						c0-0.561-1.456-1.016-3.251-1.016C286.215,107.11,284.759,107.565,284.759,108.126z"/>
					<path style="fill:#DD9E99;" d="M250.477,108.126c0,0.561,1.456,1.016,3.251,1.016c1.796,0,3.252-0.455,3.252-1.016
						c0-0.561-1.456-1.016-3.252-1.016C251.933,107.11,250.477,107.565,250.477,108.126z"/>
				</g>
				<path id="XMLID_4_" style="fill:#4F3021;" d="M299.48,85.954c0.266,7.7-0.797,13.143-1.286,18.635
					c-1.603-1.98-3.908-1.766-4.718,1.898c0,0,0.074-16.034-3.476-18.677c-7.323-5.453-6.955,1.262-16.888-1.097
					c-6.608-1.569-15.728-7.616-22.251,2.732c-1.957,3.104-1.982,11.651-3.509,14.7c-0.5-2.1-1.459-2.487-4.529-2.216l-1.876-7.075
					c-1.34-4.253-2.801-8.767-2.402-11.422c0.797,1.726,1.991,3.053,1.991,3.053s-2.788-13.143,5.708-20.842
					c-0.133,2.257-1.726,6.505-1.726,6.505s9.558-17.789,30.401-14.338c-0.797,4.912-9.824,5.576-9.824,5.576
					s20.046-4.381,28.277,4.115c-0.796,2.124-5.443,0.398-5.443,0.398s10.222,2.124,15.798,10.089c-1.195,0-4.115-0.265-4.115-0.265
					s5.709,3.717,4.514,15.001C301.604,89.538,299.48,85.954,299.48,85.954z"/>
				<path style="fill:#4F3021;" d="M286.875,84.164c0,0,3.331,1.896,2.554,5.438c-3.628-2.591-7.775-2.505-7.775-2.505
					s1.987,0.518,4.06,1.9c-4.924,1.555-14.858-0.605-14.858-0.605s4.837,1.641,5.961,2.764c-8.379-0.173-12.612-4.492-12.612-4.492
					s3.11,1.987,4.406,3.715c-6.652-1.037-15.915-4.042-16.347-5.424C263.685,77.686,280.397,81.148,286.875,84.164z"/>
				<path style="fill:#4F3021;" d="M253.895,85.4c0.396,0.84-1.286,4.401-2.917,8.06c-0.643-1.088-0.297-2.324-0.297-2.324
					s-1.137,3.708-1.286,5.835c-1.434-1.978,1.632-9.642,1.632-9.642L253.895,85.4z"/>
				<path style="fill:#4B8465;" d="M212.125,190.965c17.258-42.925,29.149-42.561,29.149-42.561
					c1.536,13.855,2.243,25.358-0.806,35.036c-1.792,5.689-5.666,9.795-10.467,16.133
					C225.747,198.448,217.495,195.261,212.125,190.965z"/>
				<path style="fill:#EBC68D;" d="M214.253,200.438c-2.624-4.907-14.774-40.159-16.303-51.71
					c1.699-2.378,11.724-5.572,11.724-5.572s13.177,24.938,21.191,44.221C237.012,202.166,218.671,208.696,214.253,200.438z"/>
				<g>
					<path style="fill:#464645;" d="M217.438,114.943l-0.525-0.041l-0.403,5.165l0.525,0.041c0.125,0.01,0.234-0.083,0.243-0.208
						l0.368-4.713C217.655,115.062,217.562,114.953,217.438,114.943z"/>
					<path style="fill:#464645;" d="M216.967,120.973l-0.525-0.041l-0.195,2.501l0.525,0.041c0.125,0.01,0.234-0.084,0.243-0.208
						l0.16-2.049C217.185,121.092,217.092,120.983,216.967,120.973z"/>
					<path style="fill:#585857;" d="M216.779,109.117l-21.68-1.692c-0.51-0.04-0.956,0.341-0.995,0.851l-3.144,40.276
						c-0.04,0.51,0.341,0.956,0.851,0.995l21.68,1.692c0.51,0.04,0.956-0.341,0.995-0.851l3.144-40.276
						C217.67,109.603,217.289,109.157,216.779,109.117z"/>
					
						<rect x="193.814" y="110.28" transform="matrix(0.997 0.0778 -0.0778 0.997 10.6367 -15.5106)" style="fill:#A7C2D7;" width="21.056" height="36.897"/>
					
						<rect x="194.175" y="110.722" transform="matrix(0.997 0.0778 -0.0778 0.997 10.6369 -15.5106)" style="fill:#E3F1FB;" width="20.334" height="36.02"/>
					<path style="fill:#585857;" d="M208.993,111.583l-6.914-0.54c-0.27-0.021-0.504-0.197-0.598-0.452l-0.64-1.723l9.713,0.758
						l-0.899,1.603C209.522,111.466,209.263,111.604,208.993,111.583z"/>
					
						<line style="fill:none;stroke:#464645;stroke-width:0.3269;stroke-linecap:round;stroke-miterlimit:10;" x1="202.423" y1="109.94" x2="208.803" y2="110.438"/>
				</g>
				<g>
					<path style="fill:#EBC68D;" d="M192.603,126.89c-1.264,0.721-3.013,2.085-3.243,4.393c-0.231,2.308,2.104,4.704,4.097,6.356
						c0.858,0.711,2.515-1.76,2.022-3.008c-0.426-1.079-1.926-3.041-3.08-4.906L192.603,126.89z"/>
				</g>
				<g>
					<path style="fill:#DCB784;" d="M195.479,134.631c-0.426-1.079-1.926-3.041-3.08-4.906l0.205-2.835
						c-0.579,0.33-1.255,0.804-1.845,1.432c0.979,2.689,3.727,6.643,4.586,7.844C195.561,135.628,195.648,135.058,195.479,134.631z"
						/>
				</g>
				<g>
					<path style="fill:#EBC68D;" d="M193.108,120.982c-1.264,0.721-3.013,2.085-3.244,4.393c-0.231,2.308,2.104,4.704,4.097,6.356
						c0.858,0.711,2.515-1.76,2.022-3.008c-0.426-1.079-1.926-3.04-3.08-4.906L193.108,120.982z"/>
				</g>
				<path style="fill:#EBC68D;" d="M215.681,134.837c-3.044-2.147-3.685-5.541-2.265-7.456c1.015-1.368,1.461,0.008,3.657,2.452
					c2.502,2.786,2.928,6.457-1.577,7.809C215.624,135.949,215.681,134.837,215.681,134.837z"/>
				<path style="fill:#EBC68D;" d="M267.161,171.422c0,0-4.713-5.142-6.048-6.607c-4.622-5.073-7.105-7.803-5.724-9.251
					c2.241-2.351,4.178,0.918,15.571,12.454c3.342,3.385,6.099,5.351,10.163,8.51c0.689,0.536,2.532,2.53,1.087,6.986
					c-1.212,3.736-4.42,9.753-12.848,5.69c-2.312,3.204-5.183-1.185-6.859-5.365C261.571,181.514,267.161,171.422,267.161,171.422z"
					/>
				<path style="fill:#EBC68D;" d="M274.283,185.363c0,0,6.339,6.777,17.051,16.832c11.144,10.462,21.86,17.379,28.09,12.57
					c6.23-4.809,0.032-12.353-6.886-16.067c-10.383-5.574-27.881-19.873-33.193-23.536
					C277.055,174.794,274.076,182.65,274.283,185.363z"/>
			</g>
		</g>
		<g>
			<path style="fill:#FFFFFF;" d="M390.752,149.625c0,0.815-0.66,1.475-1.475,1.475s-1.475-0.66-1.475-1.475
				c0-0.815,0.66-1.475,1.475-1.475S390.752,148.81,390.752,149.625z"/>
			<path style="fill:#FFFFFF;" d="M428.614,135.119c0,1.765-1.431,3.196-3.196,3.196c-1.765,0-3.196-1.431-3.196-3.196
				s1.431-3.196,3.196-3.196C427.183,131.923,428.614,133.354,428.614,135.119z"/>
			<circle style="fill:#FFFFFF;" cx="387.31" cy="224.365" r="5.901"/>
			<path style="fill:#FFFFFF;" d="M417.796,195.354c0,0.543-0.44,0.983-0.983,0.983s-0.983-0.44-0.983-0.983
				c0-0.543,0.44-0.984,0.983-0.984S417.796,194.811,417.796,195.354z"/>
			<path style="fill:#FFFFFF;" d="M438.448,275.012c0,0.815-0.66,1.475-1.475,1.475s-1.475-0.66-1.475-1.475s0.66-1.475,1.475-1.475
				S438.448,274.197,438.448,275.012z"/>
			<path style="fill:#FFFFFF;" d="M385.835,314.103c0,1.222-0.991,2.213-2.213,2.213c-1.222,0-2.213-0.991-2.213-2.213
				c0-1.222,0.991-2.213,2.213-2.213C384.844,311.891,385.835,312.881,385.835,314.103z"/>
			<circle style="fill:#FFFFFF;" cx="372.067" cy="277.962" r="2.95"/>
			<path style="fill:#FFFFFF;" d="M413.862,297.139c0,1.358-1.101,2.458-2.459,2.458c-1.358,0-2.458-1.101-2.458-2.458
				c0-1.358,1.101-2.459,2.458-2.459C412.762,294.681,413.862,295.781,413.862,297.139z"/>
			<path style="fill:#FFFFFF;" d="M451.233,321.479c0,0.679-0.55,1.229-1.229,1.229c-0.679,0-1.229-0.55-1.229-1.229
				c0-0.679,0.55-1.229,1.229-1.229C450.682,320.25,451.233,320.8,451.233,321.479z"/>
			<path style="fill:#FFFFFF;" d="M376.492,114.221c0,1.358-1.101,2.459-2.459,2.459c-1.358,0-2.458-1.101-2.458-2.459
				c0-1.358,1.101-2.458,2.458-2.458C375.391,111.763,376.492,112.863,376.492,114.221z"/>
			<path style="fill:#FFFFFF;" d="M138.994,108.321c0,1.086-0.88,1.967-1.967,1.967s-1.967-0.881-1.967-1.967
				c0-1.086,0.881-1.967,1.967-1.967S138.994,107.234,138.994,108.321z"/>
			<path style="fill:#FFFFFF;" d="M92.773,156.509c0,0.815-0.66,1.475-1.475,1.475s-1.475-0.66-1.475-1.475s0.66-1.475,1.475-1.475
				S92.773,155.694,92.773,156.509z"/>
			<path style="fill:#FFFFFF;" d="M158.171,144.708c0,1.901-1.541,3.442-3.442,3.442s-3.442-1.541-3.442-3.442
				c0-1.901,1.541-3.442,3.442-3.442S158.171,142.807,158.171,144.708z"/>
			<circle style="fill:#FFFFFF;" cx="142.682" cy="223.628" r="1.721"/>
			<path style="fill:#FFFFFF;" d="M99.165,257.802c0,2.444-1.981,4.425-4.425,4.425s-4.425-1.981-4.425-4.425
				c0-2.444,1.981-4.425,4.425-4.425S99.165,255.358,99.165,257.802z"/>
			<circle style="fill:#FFFFFF;" cx="146.615" cy="273.291" r="4.18"/>
			<circle style="fill:#FFFFFF;" cx="84.659" cy="324.921" r="1.721"/>
			<circle style="fill:#FFFFFF;" cx="68.679" cy="213.548" r="3.442"/>
			<path style="fill:#FFFFFF;" d="M105.557,309.432c0,0.815-0.66,1.475-1.475,1.475c-0.815,0-1.475-0.66-1.475-1.475
				c0-0.815,0.66-1.475,1.475-1.475C104.897,307.957,105.557,308.617,105.557,309.432z"/>
		</g>
	</g>
</g>
</svg>
