<?xml version="1.0" encoding="utf-8"?>
<!-- Generator: Adobe Illustrator 27.5.0, SVG Export Plug-In . SVG Version: 6.00 Build 0)  -->
<svg version="1.1" xmlns="http://www.w3.org/2000/svg" xmlns:xlink="http://www.w3.org/1999/xlink" x="0px" y="0px"
	 viewBox="0 0 750 500" style="enable-background:new 0 0 750 500;" xml:space="preserve">
<g id="BACKGROUND">
	<rect style="fill:#FFFFFF;" width="750" height="500"/>
</g>
<g id="OBJECTS">
	<g>
		<g>
			<path style="fill:#FAF0E4;" d="M685.808,383.197c11.023-42.621,51.008-194.582-109.495-231.842
				C442.205,120.222,371.358,61.4,234.588,162.714c-83.568,61.904-234.395-19.773-165.31,220.483
				C125.852,383.197,579.989,383.197,685.808,383.197z"/>
			<g>
				<path style="fill:#E8CEAE;" d="M518.358,227.504c-23.753,0-46.26,5.326-66.401,14.836c2.076,3.512,3.272,7.605,3.272,11.982
					c0,13.02-10.553,23.572-23.573,23.572c-7.639,0-14.423-3.635-18.732-9.266c-12.59,11.588-23.265,25.223-31.501,40.379
					c8.353,3.625,14.196,11.943,14.196,21.629c0,13.022-10.554,23.574-23.574,23.574c-2.271,0-4.464-0.328-6.54-0.926
					c-1.891,9.695-2.89,19.709-2.89,29.959h58.237c0-53.852,43.653-97.506,97.505-97.506c53.851,0,97.505,43.654,97.505,97.506
					h58.234C674.098,297.232,604.37,227.504,518.358,227.504z"/>
			</g>
		</g>
		<g>
			<path style="fill:#CC7E4E;" d="M161.125,307.365c10.656,15.982,21.441,35.588,27.852,41.998
				c20.904,6.982,50.722,14.975,60.331,17.158c13.962-3.307,28.292-2.205,45.928,8.818c-22.493,3.674-95.79,1.469-117.154-14.33
				C156.716,345.211,161.125,315.248,161.125,307.365z"/>
			<g>
				<polygon style="fill:#5F5B78;" points="319.691,382.688 313.239,382.688 360.269,265.111 365.931,267.092 				"/>
				<rect x="225.792" y="375.34" style="fill:#5F5B78;" width="93.899" height="7.348"/>
			</g>
			<g>
				<path style="fill:#2F2E38;" d="M115.936,219.772c-4.813-17.848-7.26-19.082-8.822-37.755
					c-1.564-18.674,2.853-30.322,22.313-35.709c19.459-5.386,24.865,2.771,38.987-1.937c14.772-4.925,34.681,3.438,32.393,13.595
					c-2.862,12.709,15.227,10.977-7.952,22.677C164.352,196.915,139.966,222.738,115.936,219.772z"/>
				<g>
					<path style="fill:#ED9864;" d="M195.391,175.692c-7.339-6.205-32.498-5.019-37.53,0.934c-5.032,5.952-8.69,15.107-15.494,17.52
						c0.896-9.107-9.068-15.832-13.586-8.139c-4.036,6.872-1.881,17.177,5.198,18.059c-6.542,7.738-11.483,12.576-18.042,15.706
						c-3.78,9.903-7.224,21.62-16.952,33.128c14.343,8.387,30.475,22.705,37.022,28.242c-0.13-19.164,7.003-39.67,12.646-42.724
						c9.657,2.164,20.203,10.108,32.248-15.773c2.309,1.001,7.321,1.768,8.496,0.379c2.053-2.428-2.927-12.936-2.368-16.644
						C189.738,198.047,192.523,187.945,195.391,175.692z"/>
					<g>
						<path style="fill:#2F2E38;" d="M183.077,204.089c-0.369,1.476-1.565,2.449-2.673,2.172c-1.107-0.277-1.706-1.699-1.337-3.175
							c0.37-1.476,1.566-2.449,2.674-2.172C182.849,201.191,183.447,202.612,183.077,204.089z"/>
						<path style="fill:#BD7548;" d="M179.536,199.477c1.257-1.978,4.414-1.037,4.679,1.17c-0.711-0.39-1.361-0.983-2.191-1.108
							C181.247,199.286,180.334,199.431,179.536,199.477z"/>
						<path style="fill:#2F2E38;" d="M177.521,194.398c-1.072-1.417,3.551-3.896,7.234-2.76c3.04,0.938,5.505,3.787,3.803,5.2
							c-1.701,1.414-3.071-1.515-4.974-2.204C181.682,193.945,178.594,195.814,177.521,194.398z"/>
						<path style="fill:#BD7548;" d="M176.465,229.178c-2.701,0.93-6.323-1.066-5.752-4.175c0.629,1.13,1.188,1.975,2.278,2.73
							C174.071,228.377,175.286,228.76,176.465,229.178z"/>
						<path style="fill:#CC7E4E;" d="M139.151,195.48c-1.108-4.424-3.031-8.688-5.297-7.115c-2.266,1.572-3.099,10.605,2.74,10.993
							C136.392,196.933,135.901,195.2,139.151,195.48z"/>
						<path style="fill:#BD7548;" d="M148.653,238.419c-6.95-2.628-14.149-9.638-13.007-17.582c0.189,1.677,0.418,3.181,1.015,4.771
							c0.718,1.909,1.976,3.876,3.403,5.338C142.567,233.821,145.567,236.204,148.653,238.419z"/>
					</g>
				</g>
			</g>
			<g>
				<path style="fill:#C74B50;" d="M101.602,244.904c-5.065,3.073-25.352,20.577-19.841,137.784c32.334,0,68.955,0,86.652,0
					c-7.288-38.213-8.437-62.969-7.059-76.195c-6.366-12.414-14.927-33.373-22.944-45.853
					C129.633,246.973,112.394,238.356,101.602,244.904z"/>
				<path style="fill:#A33E42;" d="M124.617,329.412c-4.71,4.709-4.092,4.959-6.48,7.348c7.348,10.656,27.431,35.963,37.394,45.928
					c7.432,0,19.189,0,19.189,0S137.344,334.557,124.617,329.412z"/>
			</g>
			<g>
				<path style="fill:#ED9864;" d="M161.355,306.492c-10.15,4.182-28.538,14.719-36.738,22.92
					c12.626,18.004,28.424,43.353,38.345,53.275c13.227,0,113.167,0,143.296,0c-5.327-5.326-10.931-6.246-18.646-7.9
					c-7.716-1.652-16.534-9.92-38.304-4.408c-23.424-4.686-53.461-9.92-67.239-16.258
					C173.25,337.035,168.042,319.559,161.355,306.492z"/>
				<path style="fill:#BD7548;" d="M275.762,379.014c4.157-0.6,8.491-0.547,12.665-0.18c2.449,0.234,4.906,0.582,7.267,1.291
					c0.389,0.119,5.105,2.014,4.685,2.563c-1.497-1.117-3.424-1.533-5.226-1.879c-2.533-0.484-5.108-0.73-7.677-0.951
					C283.576,379.523,279.666,379.297,275.762,379.014z"/>
			</g>
			<path style="fill:#94383C;" d="M118.137,337.586c-0.017,0-0.033,0-0.049,0c-0.295-0.02-0.559-0.193-0.69-0.457
				c-2.303-4.604-4.979-9.283-7.812-14.24c-4.614-8.068-9.385-16.412-13.155-25.494c-0.175-0.422,0.025-0.906,0.446-1.08
				c0.423-0.176,0.905,0.025,1.081,0.447c3.729,8.986,8.475,17.283,13.063,25.307c2.591,4.531,5.052,8.836,7.225,13.076
				c11.747-16.346,41.086-28.701,42.357-29.23c0.423-0.174,0.905,0.025,1.081,0.445c0.176,0.422-0.023,0.906-0.444,1.08
				c-0.314,0.133-31.543,13.279-42.412,29.775C118.673,337.447,118.414,337.586,118.137,337.586z"/>
		</g>
		<g>
			<path style="fill:#E3A65A;" d="M676.989,383.197c-43.539,0-150.185,0-196.204,0V153.964c0-3.044,2.467-5.511,5.511-5.511h185.183
				c3.044,0,5.511,2.468,5.511,5.511V383.197z"/>
			<g>
				<g>
					<rect x="487.95" y="173.856" style="fill:#46244C;" width="181.875" height="24.25"/>
					<g>
						<rect x="492.176" y="177.898" style="fill:#C74B50;" width="6.798" height="6.798"/>
						<rect x="502.279" y="177.898" style="fill:#F5E3CE;" width="6.798" height="6.798"/>
						<rect x="512.383" y="177.898" style="fill:#F5E3CE;" width="6.798" height="6.798"/>
						<rect x="522.486" y="177.898" style="fill:#C74B50;" width="6.798" height="6.798"/>
					</g>
				</g>
				<g>
					<rect x="487.95" y="206.373" style="fill:#46244C;" width="181.875" height="24.25"/>
					<g>
						<rect x="492.176" y="210.415" style="fill:#C74B50;" width="6.798" height="6.798"/>
						<rect x="502.279" y="210.415" style="fill:#C74B50;" width="6.798" height="6.798"/>
						<rect x="512.383" y="210.415" style="fill:#C74B50;" width="6.798" height="6.798"/>
						<rect x="522.486" y="210.415" style="fill:#F5E3CE;" width="6.798" height="6.798"/>
					</g>
				</g>
				<g>
					<rect x="487.95" y="238.889" style="fill:#46244C;" width="181.875" height="24.25"/>
					<g>
						<rect x="492.176" y="242.929" style="fill:#F5E3CE;" width="6.798" height="6.799"/>
						<rect x="502.279" y="242.929" style="fill:#C74B50;" width="6.798" height="6.799"/>
						<rect x="512.383" y="242.929" style="fill:#F5E3CE;" width="6.798" height="6.799"/>
						<rect x="522.486" y="242.929" style="fill:#C74B50;" width="6.798" height="6.799"/>
					</g>
				</g>
				<g>
					<rect x="487.95" y="271.406" style="fill:#46244C;" width="181.875" height="24.25"/>
					<g>
						<rect x="492.176" y="275.447" style="fill:#F5E3CE;" width="6.798" height="6.799"/>
						<rect x="502.279" y="275.447" style="fill:#C74B50;" width="6.798" height="6.799"/>
						<rect x="512.383" y="275.447" style="fill:#F5E3CE;" width="6.798" height="6.799"/>
						<rect x="522.486" y="275.447" style="fill:#F5E3CE;" width="6.798" height="6.799"/>
					</g>
				</g>
			</g>
			<g>
				<path style="fill:#FFFFFF;" d="M542.19,160.493c0,0.837-0.678,1.516-1.516,1.516h-10.84c-0.838,0-1.516-0.679-1.516-1.516l0,0
					c0-0.837,0.678-1.516,1.516-1.516h10.84C541.513,158.977,542.19,159.655,542.19,160.493L542.19,160.493z"/>
				<path style="fill:#FFFFFF;" d="M564.007,160.493c0,0.837-0.679,1.516-1.516,1.516h-10.84c-0.838,0-1.516-0.679-1.516-1.516l0,0
					c0-0.837,0.678-1.516,1.516-1.516h10.84C563.328,158.977,564.007,159.655,564.007,160.493L564.007,160.493z"/>
				<path style="fill:#FFFFFF;" d="M585.823,160.493c0,0.837-0.679,1.516-1.516,1.516h-10.84c-0.838,0-1.516-0.679-1.516-1.516l0,0
					c0-0.837,0.678-1.516,1.516-1.516h10.84C585.144,158.977,585.823,159.655,585.823,160.493L585.823,160.493z"/>
				<path style="fill:#FFFFFF;" d="M607.639,160.493c0,0.837-0.678,1.516-1.516,1.516h-10.84c-0.837,0-1.516-0.679-1.516-1.516l0,0
					c0-0.837,0.679-1.516,1.516-1.516h10.84C606.961,158.977,607.639,159.655,607.639,160.493L607.639,160.493z"/>
				<path style="fill:#FFFFFF;" d="M629.455,160.493c0,0.837-0.678,1.516-1.516,1.516H617.1c-0.837,0-1.516-0.679-1.516-1.516l0,0
					c0-0.837,0.679-1.516,1.516-1.516h10.84C628.777,158.977,629.455,159.655,629.455,160.493L629.455,160.493z"/>
			</g>
		</g>
		<path style="fill:#E8CEAE;" d="M57.919,382.76c0,0,39.795-0.23,99.486-0.578c29.845-0.086,64.665-0.186,101.972-0.295
			c37.308-0.031,77.101-0.064,116.896-0.1c39.794,0.066,79.588,0.133,116.895,0.193c37.308,0.139,72.127,0.267,101.973,0.377
			c59.691,0.397,99.485,0.66,99.485,0.66c0.1,0.002,0.179,0.082,0.178,0.18c-0.001,0.1-0.08,0.178-0.178,0.178
			c0,0-39.794,0.266-99.485,0.662c-29.846,0.109-64.665,0.238-101.973,0.377c-37.307,0.061-77.101,0.127-116.895,0.191
			c-39.795-0.033-79.589-0.066-116.896-0.098c-37.307-0.109-72.127-0.209-101.972-0.295c-59.691-0.348-99.486-0.578-99.486-0.578
			c-0.24-0.002-0.436-0.199-0.433-0.439C57.486,382.955,57.681,382.762,57.919,382.76z"/>
		<g>
			<g>
				<g>
					<path style="fill:#6865B8;" d="M323.396,328.625c0,0.609-0.494,1.103-1.103,1.103H211.593c-0.608,0-1.102-0.494-1.102-1.103
						v-62.076c0-0.607,0.493-1.102,1.102-1.102h110.701c0.608,0,1.103,0.494,1.103,1.102V328.625z"/>
					<path style="fill:#FFFFFF;" d="M317.373,298.174c0,4.262-3.455,7.715-7.717,7.715H224.23c-4.262,0-7.716-3.453-7.716-7.715
						v-1.172c0-4.262,3.454-7.715,7.716-7.715h85.426c4.262,0,7.717,3.453,7.717,7.715V298.174z"/>
					<g>
						<path style="fill:#6865B8;" d="M229.879,291.27c-2.416,0-4.383,1.967-4.383,4.383c0,0.988,0.342,1.893,0.896,2.627
							l-3.299,4.385c-0.274,0.363-0.201,0.883,0.163,1.158c0.149,0.111,0.324,0.164,0.497,0.164c0.251,0,0.499-0.113,0.661-0.328
							l3.211-4.266c0.66,0.4,1.426,0.643,2.253,0.643c2.417,0,4.384-1.967,4.384-4.383
							C234.263,293.236,232.296,291.27,229.879,291.27z M229.879,298.383c-0.746,0-1.423-0.303-1.916-0.791
							c-0.004-0.004-0.005-0.008-0.01-0.01c-0.002-0.002-0.004-0.002-0.006-0.004c-0.492-0.494-0.798-1.174-0.798-1.926
							c0-1.506,1.225-2.729,2.73-2.729c1.506,0,2.729,1.223,2.729,2.729C232.608,297.156,231.385,298.383,229.879,298.383z"/>
						<g>
							<path style="fill:#6865B8;" d="M247.63,302.723h-7.523c-0.456,0-0.826-0.371-0.826-0.826c0-0.457,0.37-0.828,0.826-0.828
								h7.523c0.456,0,0.826,0.371,0.826,0.828C248.456,302.352,248.086,302.723,247.63,302.723z"/>
							<path style="fill:#6865B8;" d="M258.377,302.723h-7.524c-0.456,0-0.826-0.371-0.826-0.826c0-0.457,0.37-0.828,0.826-0.828
								h7.524c0.456,0,0.826,0.371,0.826,0.828C259.203,302.352,258.833,302.723,258.377,302.723z"/>
							<path style="fill:#6865B8;" d="M269.124,302.723h-7.522c-0.457,0-0.827-0.371-0.827-0.826c0-0.457,0.37-0.828,0.827-0.828
								h7.522c0.456,0,0.826,0.371,0.826,0.828C269.95,302.352,269.58,302.723,269.124,302.723z"/>
						</g>
					</g>
					<g>
						<path style="fill:#FFFFFF;" d="M240.106,275.072c0,1.293-1.048,2.338-2.34,2.338c-1.292,0-2.34-1.045-2.34-2.338
							c0-1.293,1.048-2.34,2.34-2.34C239.059,272.732,240.106,273.779,240.106,275.072z"/>
						<path style="fill:#FFFFFF;" d="M230.955,275.072c0,1.293-1.048,2.338-2.34,2.338c-1.292,0-2.34-1.045-2.34-2.338
							c0-1.293,1.048-2.34,2.34-2.34C229.907,272.732,230.955,273.779,230.955,275.072z"/>
						<path style="fill:#FFFFFF;" d="M221.804,275.072c0,1.293-1.048,2.338-2.34,2.338c-1.292,0-2.34-1.045-2.34-2.338
							c0-1.293,1.048-2.34,2.34-2.34C220.756,272.732,221.804,273.779,221.804,275.072z"/>
					</g>
				</g>
				<g>
					<path style="fill:#6865B8;" d="M413.917,367.766c-6.247-13.135,6.429-46.203,43.08-42.621
						c15.982-27.557,68.892-32.793,81.568,12.4c20.667-5.236,38.854,14.605,31.874,30.221
						C549.863,367.766,462.417,367.766,413.917,367.766z"/>
					<g>
						<rect x="471.602" y="327.35" style="fill:#FFFFFF;" width="45.745" height="2.756"/>
						<rect x="471.602" y="335.883" style="fill:#FFFFFF;" width="45.745" height="2.756"/>
						<rect x="471.602" y="344.414" style="fill:#FFFFFF;" width="45.745" height="2.756"/>
						<rect x="471.602" y="352.947" style="fill:#FFFFFF;" width="45.745" height="2.756"/>
					</g>
				</g>
				<g>
					<path style="fill:#6865B8;" d="M474.489,207.513c3.517-7.395-3.618-26.007-24.248-23.99
						c-8.996-15.512-38.777-18.458-45.912,6.979c-11.633-2.947-21.87,8.221-17.941,17.011
						C397.969,207.513,447.19,207.513,474.489,207.513z"/>
					<g>
						<path style="fill:#FFFFFF;" d="M428.471,195.085l-7.024-2.867v-2.044l7.024-2.867v1.697l-5.751,2.296v-0.208l5.751,2.295
							V195.085z"/>
						<path style="fill:#FFFFFF;" d="M429.406,199.857l3.153-16.076h2.026l-3.152,16.076H429.406z"/>
						<path style="fill:#FFFFFF;" d="M435.521,195.085v-1.698l5.752-2.295v0.208l-5.752-2.296v-1.697l7.025,2.867v2.044
							L435.521,195.085z"/>
					</g>
				</g>
				<g>
					<path style="fill:#E8CEAE;" d="M319.418,222.719c0,0.609-0.493,1.102-1.102,1.102h-73.141c-0.608,0-1.103-0.493-1.103-1.102
						v-84.712c0-0.609,0.494-1.102,1.103-1.102h73.141c0.608,0,1.102,0.494,1.102,1.102V222.719z"/>
					<g>
						<path style="fill:#6865B8;" d="M313.435,215.174c0,0.609-0.494,1.103-1.103,1.103h-73.141c-0.608,0-1.102-0.494-1.102-1.103
							v-84.711c0-0.608,0.493-1.102,1.102-1.102h73.141c0.608,0,1.103,0.494,1.103,1.102V215.174z"/>
						<rect x="241.947" y="142.151" style="fill:#FFFFFF;" width="68.341" height="70.799"/>
						<g>
							<path style="fill:#FFFFFF;" d="M264.931,135.589c0,1.292-1.048,2.34-2.34,2.34c-1.293,0-2.341-1.047-2.341-2.34
								c0-1.292,1.048-2.339,2.341-2.339C263.883,133.25,264.931,134.297,264.931,135.589z"/>
							<path style="fill:#FFFFFF;" d="M255.779,135.589c0,1.292-1.048,2.34-2.34,2.34c-1.293,0-2.341-1.047-2.341-2.34
								c0-1.292,1.048-2.339,2.341-2.339C254.731,133.25,255.779,134.297,255.779,135.589z"/>
							<path style="fill:#FFFFFF;" d="M246.628,135.589c0,1.292-1.048,2.34-2.34,2.34c-1.293,0-2.341-1.047-2.341-2.34
								c0-1.292,1.048-2.339,2.341-2.339C245.58,133.25,246.628,134.297,246.628,135.589z"/>
						</g>
						<g>
							<g>
								<path style="fill:#6865B8;" d="M304.642,152.254H258.85c-0.305,0-0.551-0.247-0.551-0.551c0-0.305,0.246-0.551,0.551-0.551
									h45.792c0.305,0,0.551,0.246,0.551,0.551C305.192,152.007,304.946,152.254,304.642,152.254z"/>
								<path style="fill:#6865B8;" d="M304.642,157.031h-56.447c-0.305,0-0.552-0.247-0.552-0.551c0-0.305,0.247-0.551,0.552-0.551
									h56.447c0.305,0,0.551,0.247,0.551,0.551C305.192,156.784,304.946,157.031,304.642,157.031z"/>
								<path style="fill:#6865B8;" d="M304.642,161.807h-56.447c-0.305,0-0.552-0.246-0.552-0.551c0-0.305,0.247-0.551,0.552-0.551
									h56.447c0.305,0,0.551,0.247,0.551,0.551C305.192,161.561,304.946,161.807,304.642,161.807z"/>
								<path style="fill:#6865B8;" d="M304.642,166.584h-56.447c-0.305,0-0.552-0.247-0.552-0.551s0.247-0.551,0.552-0.551h56.447
									c0.305,0,0.551,0.246,0.551,0.551S304.946,166.584,304.642,166.584z"/>
								<path style="fill:#6865B8;" d="M304.642,171.361h-56.447c-0.305,0-0.552-0.246-0.552-0.551s0.247-0.551,0.552-0.551h56.447
									c0.305,0,0.551,0.247,0.551,0.551S304.946,171.361,304.642,171.361z"/>
								<path style="fill:#6865B8;" d="M277.955,176.137h-29.761c-0.305,0-0.552-0.246-0.552-0.551s0.247-0.551,0.552-0.551h29.761
									c0.305,0,0.552,0.246,0.552,0.551S278.26,176.137,277.955,176.137z"/>
								<path style="fill:#6865B8;" d="M304.642,180.914h-18.303c-0.305,0-0.551-0.247-0.551-0.551c0-0.305,0.246-0.551,0.551-0.551
									h18.303c0.305,0,0.551,0.246,0.551,0.551C305.192,180.667,304.946,180.914,304.642,180.914z"/>
								<path style="fill:#6865B8;" d="M304.642,185.691h-26.686c-0.305,0-0.551-0.247-0.551-0.551c0-0.305,0.246-0.551,0.551-0.551
									h26.686c0.305,0,0.551,0.247,0.551,0.551C305.192,185.444,304.946,185.691,304.642,185.691z"/>
								<path style="fill:#6865B8;" d="M304.642,190.467h-26.686c-0.305,0-0.551-0.246-0.551-0.551s0.246-0.551,0.551-0.551h26.686
									c0.305,0,0.551,0.247,0.551,0.551S304.946,190.467,304.642,190.467z"/>
								<path style="fill:#6865B8;" d="M304.642,195.244h-26.686c-0.305,0-0.551-0.246-0.551-0.551s0.246-0.551,0.551-0.551h26.686
									c0.305,0,0.551,0.246,0.551,0.551S304.946,195.244,304.642,195.244z"/>
								<path style="fill:#6865B8;" d="M304.642,200.021h-26.686c-0.305,0-0.551-0.247-0.551-0.551s0.246-0.551,0.551-0.551h26.686
									c0.305,0,0.551,0.246,0.551,0.551S304.946,200.021,304.642,200.021z"/>
								<path style="fill:#6865B8;" d="M292.868,204.797h-14.913c-0.305,0-0.551-0.246-0.551-0.551s0.246-0.551,0.551-0.551h14.913
									c0.305,0,0.552,0.247,0.552,0.551S293.173,204.797,292.868,204.797z"/>
							</g>
							<rect x="248.194" y="182.569" style="fill:#6865B8;" width="24.984" height="23.883"/>
						</g>
					</g>
				</g>
				<g>
					<path style="fill:#6865B8;" d="M692.724,279.916c5.262-11.063-5.414-38.913-36.282-35.896
						c-13.461-23.206-58.022-27.616-68.697,10.443c-17.406-4.409-32.724,12.303-26.845,25.453
						C578.228,279.916,651.878,279.916,692.724,279.916z"/>
					<g>
						<path style="fill:#FFFFFF;" d="M621.539,262.414l-10.512-4.289v-3.059l10.512-4.291v2.541l-8.607,3.436v-0.313l8.607,3.435
							V262.414z"/>
						<path style="fill:#FFFFFF;" d="M622.938,269.557l4.718-24.055h3.032l-4.718,24.055H622.938z"/>
						<path style="fill:#FFFFFF;" d="M632.088,262.414v-2.539l8.606-3.435v0.313l-8.606-3.436v-2.541l10.512,4.291v3.059
							L632.088,262.414z"/>
					</g>
				</g>
			</g>
			<g>
				<g>
					<g>
						<path style="fill:#6865B8;" d="M449.095,167.643c-0.273,0-0.548-0.101-0.762-0.305c-0.007-0.006-0.697-0.664-2.015-1.756
							c-0.47-0.389-0.534-1.083-0.146-1.552c0.387-0.469,1.082-0.536,1.552-0.145c1.386,1.148,2.102,1.831,2.132,1.86
							c0.439,0.42,0.455,1.118,0.035,1.559C449.675,167.529,449.385,167.643,449.095,167.643z"/>
						<path style="fill:#6865B8;" d="M442.572,162.397c-0.224,0-0.451-0.068-0.646-0.21c-1.469-1.065-3.015-2.124-4.596-3.149
							c-0.511-0.332-0.656-1.014-0.325-1.525c0.332-0.511,1.015-0.656,1.524-0.325c1.613,1.046,3.191,2.127,4.69,3.214
							c0.493,0.357,0.603,1.047,0.245,1.54C443.251,162.24,442.914,162.397,442.572,162.397z M433.136,156.268
							c-0.188,0-0.379-0.048-0.554-0.15c-1.588-0.925-3.23-1.833-4.883-2.697c-0.539-0.282-0.747-0.949-0.465-1.488
							c0.282-0.539,0.946-0.748,1.487-0.465c1.682,0.879,3.354,1.803,4.97,2.745c0.525,0.307,0.703,0.982,0.397,1.508
							C433.885,156.072,433.515,156.268,433.136,156.268z M423.167,151.05c-0.155,0-0.315-0.033-0.466-0.104
							c-1.675-0.783-3.392-1.54-5.103-2.251c-0.562-0.233-0.829-0.878-0.595-1.44c0.233-0.563,0.877-0.83,1.441-0.595
							c1.74,0.723,3.487,1.494,5.191,2.29c0.551,0.258,0.789,0.914,0.53,1.465C423.979,150.815,423.582,151.05,423.167,151.05z
							 M412.778,146.736c-0.126,0-0.253-0.021-0.377-0.067c-1.74-0.635-3.517-1.239-5.281-1.797
							c-0.58-0.184-0.902-0.803-0.719-1.384c0.184-0.58,0.801-0.902,1.384-0.718c1.794,0.568,3.602,1.183,5.371,1.828
							c0.572,0.209,0.867,0.841,0.658,1.413C413.65,146.458,413.228,146.736,412.778,146.736z M402.054,143.344
							c-0.095,0-0.191-0.012-0.287-0.038c-1.784-0.48-3.607-0.929-5.416-1.332c-0.595-0.133-0.97-0.722-0.836-1.316
							c0.133-0.595,0.726-0.966,1.315-0.835c1.841,0.411,3.693,0.866,5.509,1.355c0.588,0.158,0.938,0.763,0.779,1.351
							C402.985,143.02,402.54,143.344,402.054,143.344z M340.733,141.458c-0.52,0-0.981-0.367-1.082-0.896
							c-0.114-0.598,0.278-1.175,0.876-1.289c1.858-0.355,3.737-0.677,5.585-0.96c0.603-0.089,1.164,0.322,1.256,0.923
							c0.092,0.602-0.322,1.165-0.924,1.256c-1.82,0.278-3.672,0.596-5.504,0.946C340.871,141.451,340.802,141.458,340.733,141.458z
							 M391.075,140.895c-0.064,0-0.129-0.005-0.193-0.018c-1.82-0.323-3.674-0.612-5.512-0.859
							c-0.604-0.081-1.026-0.636-0.946-1.239c0.081-0.604,0.63-1.025,1.239-0.946c1.869,0.251,3.754,0.544,5.604,0.874
							c0.599,0.107,0.998,0.679,0.892,1.278C392.064,140.52,391.6,140.895,391.075,140.895z M351.852,139.762
							c-0.553,0-1.029-0.415-1.093-0.977c-0.069-0.605,0.365-1.151,0.97-1.22c1.878-0.214,3.777-0.393,5.644-0.531
							c0.605-0.048,1.137,0.41,1.182,1.017c0.045,0.607-0.411,1.136-1.018,1.181c-1.839,0.137-3.708,0.313-5.558,0.523
							C351.935,139.76,351.894,139.762,351.852,139.762z M379.928,139.4c-0.033,0-0.066-0.001-0.101-0.004
							c-1.84-0.167-3.712-0.298-5.565-0.388c-0.608-0.03-1.076-0.547-1.048-1.155c0.03-0.608,0.547-1.077,1.155-1.047
							c1.884,0.092,3.787,0.224,5.658,0.394c0.605,0.056,1.053,0.592,0.997,1.198C380.974,138.97,380.492,139.4,379.928,139.4z
							 M363.07,138.931c-0.592,0-1.081-0.469-1.102-1.065c-0.021-0.608,0.457-1.119,1.064-1.139c1.58-0.054,3.169-0.081,4.723-0.081
							l0.945,0.003c0.609,0.004,1.1,0.501,1.096,1.11c-0.005,0.608-0.483,1.132-1.11,1.095l-0.931-0.003
							c-1.528,0-3.092,0.026-4.648,0.079C363.096,138.931,363.082,138.931,363.07,138.931z"/>
						<path style="fill:#6865B8;" d="M332.527,143.253c-0.495,0-0.944-0.336-1.068-0.838c-0.146-0.591,0.215-1.188,0.806-1.334
							c0.904-0.224,1.804-0.437,2.699-0.642c0.599-0.14,1.184,0.235,1.32,0.828c0.137,0.594-0.234,1.185-0.828,1.32
							c-0.884,0.203-1.772,0.413-2.663,0.633C332.704,143.243,332.615,143.253,332.527,143.253z"/>
					</g>
					<path style="fill:#6865B8;" d="M330.142,144.372c0,1.863-1.51,3.372-3.373,3.372c-1.862,0-3.372-1.51-3.372-3.372
						c0-1.863,1.51-3.373,3.372-3.373C328.632,140.999,330.142,142.509,330.142,144.372z"/>
					<path style="fill:#6865B8;" d="M457.703,171.619c0,1.863-1.511,3.373-3.373,3.373s-3.372-1.51-3.372-3.373
						c0-1.863,1.51-3.372,3.372-3.372S457.703,169.756,457.703,171.619z"/>
				</g>
				<g>
					<g>
						<path style="fill:#6865B8;" d="M418.002,224.281c-0.595,0-1.085-0.474-1.102-1.072c-0.049-1.781,0.029-2.821,0.032-2.864
							c0.046-0.607,0.577-1.067,1.182-1.015c0.606,0.045,1.061,0.574,1.017,1.181c-0.001,0.01-0.071,0.983-0.026,2.638
							c0.017,0.608-0.464,1.116-1.071,1.132C418.022,224.281,418.013,224.281,418.002,224.281z"/>
						<path style="fill:#6865B8;" d="M458.511,274.484c-0.105,0-0.213-0.014-0.319-0.047c-1.898-0.574-3.76-1.217-5.53-1.906
							c-0.567-0.221-0.848-0.859-0.627-1.428c0.222-0.568,0.861-0.848,1.428-0.625c1.718,0.668,3.524,1.291,5.369,1.85
							c0.582,0.176,0.912,0.793,0.735,1.375C459.422,274.178,458.985,274.484,458.511,274.484z M447.781,270.291
							c-0.163,0-0.329-0.037-0.485-0.113c-1.776-0.875-3.505-1.83-5.138-2.84c-0.518-0.318-0.679-0.998-0.358-1.516
							c0.319-0.52,0.999-0.678,1.517-0.359c1.573,0.971,3.24,1.893,4.952,2.736c0.547,0.27,0.771,0.93,0.503,1.475
							C448.579,270.065,448.188,270.291,447.781,270.291z M437.995,264.227c-0.234,0-0.473-0.076-0.673-0.23
							c-1.563-1.209-3.062-2.504-4.453-3.852c-0.438-0.422-0.448-1.121-0.025-1.559c0.424-0.438,1.121-0.447,1.559-0.025
							c1.334,1.291,2.77,2.533,4.268,3.692c0.482,0.371,0.571,1.064,0.198,1.545C438.651,264.078,438.325,264.227,437.995,264.227z
							 M429.73,256.213c-0.319,0-0.636-0.137-0.853-0.402c-1.24-1.514-2.406-3.117-3.464-4.768c-0.328-0.513-0.18-1.195,0.332-1.524
							c0.512-0.33,1.193-0.18,1.523,0.333c1.012,1.578,2.127,3.113,3.313,4.56c0.387,0.473,0.316,1.166-0.154,1.553
							C430.224,256.133,429.976,256.213,429.73,256.213z M423.511,246.525c-0.408,0-0.799-0.227-0.99-0.617
							c-0.856-1.745-1.631-3.568-2.301-5.421c-0.206-0.572,0.09-1.205,0.662-1.411c0.57-0.206,1.204,0.089,1.411,0.662
							c0.642,1.777,1.386,3.526,2.206,5.199c0.268,0.547,0.043,1.207-0.504,1.475C423.839,246.488,423.673,246.525,423.511,246.525z
							 M419.583,235.692c-0.495,0-0.945-0.336-1.069-0.838c-0.468-1.899-0.843-3.843-1.114-5.779
							c-0.085-0.603,0.336-1.16,0.94-1.245c0.601-0.09,1.159,0.336,1.244,0.939c0.261,1.861,0.621,3.731,1.071,5.557
							c0.145,0.591-0.216,1.188-0.807,1.333C419.76,235.682,419.67,235.692,419.583,235.692z"/>
						<path style="fill:#6865B8;" d="M466.823,276.549c-0.07,0-0.142-0.006-0.215-0.021c-0.928-0.184-1.836-0.379-2.727-0.582
							c-0.594-0.137-0.965-0.729-0.828-1.32c0.137-0.594,0.73-0.965,1.321-0.828c0.87,0.199,1.759,0.389,2.662,0.568
							c0.598,0.119,0.986,0.699,0.867,1.295C467.8,276.185,467.339,276.549,466.823,276.549z"/>
					</g>
					<path style="fill:#6865B8;" d="M421.404,213.814c0,1.863-1.511,3.372-3.372,3.372c-1.862,0-3.373-1.51-3.373-3.372
						c0-1.863,1.511-3.373,3.373-3.373C419.894,210.441,421.404,211.951,421.404,213.814z"/>
					<path style="fill:#6865B8;" d="M476.261,275.447c0,1.863-1.511,3.371-3.373,3.371c-1.861,0-3.372-1.508-3.372-3.371
						c0-1.863,1.511-3.373,3.372-3.373C474.75,272.074,476.261,273.584,476.261,275.447z"/>
				</g>
				<g>
					<g>
						<path style="fill:#6865B8;" d="M344.965,355.586c-0.334,0-0.663-0.15-0.88-0.438c-1.088-1.434-1.626-2.279-1.648-2.314
							c-0.326-0.514-0.174-1.193,0.34-1.52c0.515-0.328,1.194-0.176,1.521,0.338c0.005,0.008,0.518,0.813,1.544,2.166
							c0.367,0.484,0.272,1.178-0.213,1.545C345.43,355.514,345.196,355.586,344.965,355.586z"/>
						<path style="fill:#6865B8;" d="M430.043,394.113c-0.524,0-1.046-0.004-1.565-0.008c-0.608-0.008-1.097-0.506-1.091-1.115
							c0.007-0.605,0.499-1.09,1.102-1.09c0.003,0,0.008,0,0.012,0c1.818,0.02,3.67,0.004,5.553-0.051c0.011,0,0.021,0,0.033,0
							c0.593,0,1.083,0.473,1.102,1.07c0.017,0.607-0.462,1.115-1.07,1.135C432.743,394.094,431.385,394.113,430.043,394.113z
							 M422.899,393.922c-0.021,0-0.041,0-0.061-0.002c-1.895-0.102-3.788-0.246-5.626-0.428c-0.605-0.059-1.049-0.6-0.988-1.205
							c0.059-0.605,0.571-1.047,1.205-0.988c1.807,0.178,3.667,0.318,5.53,0.422c0.606,0.031,1.073,0.551,1.039,1.16
							C423.967,393.467,423.48,393.922,422.899,393.922z M439.675,393.781c-0.575,0-1.06-0.447-1.1-1.027
							c-0.041-0.609,0.418-1.135,1.025-1.176c1.816-0.123,3.679-0.285,5.535-0.48c0.592-0.07,1.147,0.373,1.211,0.98
							c0.064,0.604-0.375,1.147-0.98,1.211c-1.883,0.199-3.772,0.363-5.615,0.49C439.726,393.779,439.699,393.781,439.675,393.781z
							 M411.768,392.822c-0.053,0-0.105-0.004-0.159-0.012c-1.859-0.271-3.732-0.588-5.567-0.945
							c-0.597-0.115-0.988-0.693-0.872-1.291c0.116-0.598,0.697-0.99,1.292-0.873c1.801,0.35,3.64,0.662,5.464,0.928
							c0.604,0.088,1.021,0.646,0.933,1.248C412.777,392.426,412.308,392.822,411.768,392.822z M450.804,392.609
							c-0.54,0-1.012-0.397-1.09-0.947c-0.085-0.604,0.333-1.162,0.937-1.246c1.818-0.258,3.667-0.551,5.491-0.873
							c0.597-0.1,1.171,0.297,1.277,0.897c0.104,0.6-0.296,1.172-0.896,1.277c-1.849,0.322-3.721,0.621-5.563,0.881
							C450.907,392.605,450.854,392.609,450.804,392.609z M400.788,390.685c-0.087,0-0.176-0.01-0.264-0.031
							c-1.821-0.447-3.655-0.945-5.452-1.484c-0.583-0.176-0.914-0.789-0.739-1.373c0.174-0.584,0.787-0.916,1.372-0.74
							c1.762,0.529,3.56,1.02,5.345,1.455c0.591,0.147,0.953,0.744,0.809,1.334C401.734,390.35,401.283,390.685,400.788,390.685z
							 M461.828,390.676c-0.512,0-0.969-0.357-1.078-0.879c-0.125-0.594,0.258-1.18,0.853-1.303
							c1.812-0.379,3.639-0.789,5.428-1.221c0.6-0.141,1.188,0.223,1.33,0.814c0.143,0.592-0.223,1.188-0.813,1.33
							c-1.812,0.435-3.66,0.85-5.494,1.232C461.978,390.668,461.902,390.676,461.828,390.676z M472.71,388.06
							c-0.486,0-0.931-0.322-1.063-0.814c-0.16-0.586,0.188-1.191,0.774-1.35c1.753-0.475,3.554-0.99,5.353-1.531
							c0.59-0.174,1.197,0.156,1.373,0.738c0.175,0.584-0.156,1.199-0.738,1.375c-1.819,0.545-3.64,1.065-5.41,1.545
							C472.902,388.049,472.806,388.06,472.71,388.06z M390.072,387.473c-0.123,0-0.249-0.02-0.371-0.064
							c-1.778-0.635-3.553-1.32-5.272-2.037c-0.563-0.234-0.828-0.881-0.594-1.441c0.235-0.563,0.881-0.828,1.441-0.594
							c1.686,0.701,3.425,1.373,5.167,1.996c0.573,0.205,0.872,0.836,0.667,1.41C390.949,387.191,390.524,387.473,390.072,387.473z
							 M483.431,384.846c-0.464,0-0.895-0.295-1.047-0.758c-0.19-0.58,0.125-1.201,0.702-1.393c1.74-0.57,3.495-1.172,5.27-1.805
							c0.576-0.203,1.203,0.096,1.409,0.67c0.203,0.572-0.096,1.203-0.669,1.408c-1.791,0.639-3.565,1.244-5.32,1.822
							C483.66,384.828,483.545,384.846,483.431,384.846z M379.745,383.166c-0.159,0-0.323-0.035-0.477-0.109
							c-1.69-0.811-3.382-1.682-5.029-2.586c-0.534-0.293-0.73-0.961-0.438-1.496c0.292-0.533,0.963-0.73,1.496-0.436
							c1.615,0.885,3.271,1.736,4.926,2.531c0.548,0.264,0.779,0.922,0.516,1.471C380.55,382.935,380.156,383.166,379.745,383.166z
							 M369.935,377.785c-0.198,0-0.399-0.055-0.58-0.166c-1.595-0.99-3.184-2.037-4.724-3.115c-0.499-0.35-0.62-1.037-0.271-1.535
							c0.35-0.498,1.037-0.621,1.535-0.272c1.507,1.055,3.063,2.08,4.622,3.049c0.518,0.32,0.676,1,0.355,1.518
							C370.664,377.6,370.304,377.785,369.935,377.785z M360.767,371.367c-0.238,0-0.477-0.076-0.68-0.234
							c-1.486-1.168-2.95-2.385-4.352-3.621c-0.456-0.402-0.5-1.098-0.098-1.555c0.402-0.457,1.099-0.502,1.556-0.098
							c1.37,1.207,2.802,2.398,4.255,3.539c0.479,0.377,0.563,1.07,0.187,1.547C361.417,371.225,361.094,371.367,360.767,371.367z
							 M352.374,363.965c-0.281,0-0.562-0.105-0.776-0.318c-1.359-1.348-2.672-2.732-3.9-4.115
							c-0.404-0.457-0.363-1.152,0.092-1.557c0.455-0.406,1.152-0.363,1.556,0.092c1.198,1.35,2.478,2.699,3.805,4.014
							c0.433,0.43,0.436,1.127,0.007,1.559C352.94,363.857,352.657,363.965,352.374,363.965z"/>
						<path style="fill:#6865B8;" d="M494.008,381.08c-0.443,0-0.861-0.268-1.029-0.707c-0.217-0.568,0.067-1.207,0.636-1.424
							c0.849-0.324,1.7-0.656,2.557-0.994c0.565-0.225,1.206,0.053,1.43,0.619c0.225,0.566-0.053,1.207-0.618,1.43
							c-0.864,0.342-1.725,0.676-2.581,1.004C494.272,381.057,494.14,381.08,494.008,381.08z"/>
					</g>
					<path style="fill:#6865B8;" d="M505.651,375.34c0,1.863-1.51,3.371-3.372,3.371c-1.862,0-3.372-1.508-3.372-3.371
						c0-1.863,1.51-3.373,3.372-3.373C504.142,371.967,505.651,373.477,505.651,375.34z"/>
					<path style="fill:#6865B8;" d="M342.957,347.17c0,1.863-1.51,3.373-3.372,3.373s-3.372-1.51-3.372-3.373
						c0-1.863,1.51-3.371,3.372-3.371S342.957,345.307,342.957,347.17z"/>
				</g>
				<g>
					<g>
						<path style="fill:#6865B8;" d="M587.116,352.408c-0.049,0-0.101-0.002-0.151-0.01c-1.759-0.242-2.74-0.438-2.781-0.445
							c-0.598-0.119-0.985-0.701-0.865-1.297c0.118-0.596,0.702-0.992,1.296-0.865c0.01,0,0.967,0.19,2.652,0.424
							c0.602,0.082,1.024,0.639,0.94,1.242C588.132,352.01,587.659,352.408,587.116,352.408z"/>
						<path style="fill:#6865B8;" d="M603.205,353.332c-0.601,0-1.093-0.482-1.103-1.084c-0.01-0.609,0.477-1.111,1.084-1.121
							c1.772-0.029,3.562-0.104,5.323-0.219c0.601-0.033,1.132,0.42,1.172,1.027c0.04,0.608-0.419,1.133-1.027,1.172
							c-1.798,0.119-3.625,0.195-5.431,0.225C603.217,353.332,603.211,353.332,603.205,353.332z M597.827,353.289
							c-0.012,0-0.023,0-0.035,0c-1.81-0.057-3.635-0.16-5.424-0.305c-0.607-0.049-1.058-0.582-1.009-1.188
							c0.049-0.607,0.59-1.049,1.188-1.01c1.753,0.143,3.541,0.242,5.313,0.297c0.608,0.019,1.086,0.529,1.068,1.137
							C598.909,352.818,598.419,353.289,597.827,353.289z M613.938,352.617c-0.551,0-1.027-0.412-1.094-0.973
							c-0.072-0.604,0.36-1.152,0.965-1.225c1.768-0.209,3.539-0.469,5.264-0.77c0.597-0.102,1.171,0.297,1.275,0.897
							s-0.297,1.17-0.896,1.275c-1.764,0.307-3.574,0.572-5.383,0.787C614.025,352.615,613.981,352.617,613.938,352.617z
							 M624.529,350.758c-0.499,0-0.951-0.342-1.071-0.85c-0.141-0.592,0.227-1.186,0.818-1.326c1.74-0.412,3.465-0.877,5.124-1.383
							c0.584-0.184,1.199,0.148,1.376,0.732c0.179,0.582-0.15,1.197-0.732,1.375c-1.704,0.521-3.474,0.998-5.26,1.42
							C624.699,350.748,624.613,350.758,624.529,350.758z M634.81,347.613c-0.443,0-0.862-0.27-1.03-0.709
							c-0.217-0.568,0.069-1.205,0.638-1.422c1.66-0.633,3.301-1.328,4.878-2.064c0.553-0.254,1.208-0.02,1.465,0.533
							c0.258,0.551,0.02,1.207-0.532,1.465c-1.625,0.758-3.314,1.475-5.025,2.127C635.074,347.592,634.94,347.613,634.81,347.613z
							 M644.543,343.06c-0.385,0-0.758-0.201-0.961-0.56c-0.3-0.529-0.112-1.203,0.417-1.502c1.537-0.869,3.05-1.807,4.493-2.783
							c0.504-0.34,1.189-0.211,1.53,0.295c0.342,0.504,0.209,1.189-0.295,1.531c-1.492,1.01-3.055,1.979-4.643,2.875
							C644.913,343.014,644.727,343.06,644.543,343.06z M653.43,337.033c-0.322,0-0.642-0.139-0.859-0.41
							c-0.382-0.473-0.308-1.168,0.166-1.549c1.371-1.105,2.704-2.279,3.962-3.486c0.438-0.42,1.137-0.408,1.559,0.033
							c0.421,0.439,0.406,1.137-0.033,1.559c-1.302,1.25-2.683,2.465-4.102,3.609C653.917,336.955,653.672,337.033,653.43,337.033z
							 M661.178,329.607c-0.259,0-0.518-0.09-0.729-0.273c-0.456-0.404-0.501-1.1-0.099-1.557c1.15-1.309,2.267-2.689,3.319-4.105
							c0.364-0.488,1.053-0.588,1.542-0.227c0.489,0.363,0.59,1.053,0.228,1.543c-1.088,1.465-2.243,2.893-3.434,4.246
							C661.787,329.48,661.483,329.607,661.178,329.607z M667.578,320.994c-0.199,0-0.401-0.053-0.583-0.168
							c-0.516-0.322-0.673-1.002-0.35-1.518c0.918-1.471,1.803-3.014,2.628-4.588c0.282-0.539,0.947-0.744,1.489-0.463
							c0.539,0.283,0.747,0.949,0.464,1.488c-0.852,1.623-1.765,3.215-2.713,4.73C668.305,320.813,667.945,320.994,667.578,320.994z
							 M672.572,311.494c-0.146,0-0.298-0.029-0.44-0.092c-0.558-0.244-0.813-0.895-0.568-1.451
							c0.697-1.598,1.357-3.252,1.961-4.922c0.208-0.572,0.841-0.869,1.411-0.662c0.573,0.207,0.869,0.838,0.662,1.412
							c-0.62,1.713-1.298,3.414-2.015,5.055C673.402,311.248,672.997,311.494,672.572,311.494z"/>
						<path style="fill:#6865B8;" d="M676.249,301.344c-0.104,0-0.208-0.014-0.313-0.045c-0.583-0.172-0.917-0.785-0.744-1.369
							c0.254-0.861,0.497-1.734,0.731-2.623c0.156-0.588,0.76-0.938,1.347-0.785c0.589,0.156,0.94,0.758,0.785,1.348
							c-0.239,0.908-0.489,1.805-0.75,2.686C677.164,301.035,676.726,301.344,676.249,301.344z"/>
					</g>
					<path style="fill:#6865B8;" d="M581.342,348.871c0,1.863-1.511,3.373-3.373,3.373c-1.862,0-3.372-1.51-3.372-3.373
						c0-1.863,1.51-3.373,3.372-3.373C579.831,345.498,581.342,347.008,581.342,348.871z"/>
					<path style="fill:#6865B8;" d="M682.017,290.635c0,1.863-1.51,3.373-3.372,3.373s-3.373-1.51-3.373-3.373
						c0-1.863,1.511-3.373,3.373-3.373S682.017,288.772,682.017,290.635z"/>
				</g>
			</g>
		</g>
	</g>
</g>
</svg>
