<?xml version="1.0" encoding="utf-8"?>
<!-- Generator: Adobe Illustrator 27.5.0, SVG Export Plug-In . SVG Version: 6.00 Build 0)  -->
<svg version="1.1" id="_x31_" xmlns="http://www.w3.org/2000/svg" xmlns:xlink="http://www.w3.org/1999/xlink" x="0px" y="0px"
	 viewBox="0 0 537.589 430.071" style="enable-background:new 0 0 537.589 430.071;" xml:space="preserve">
<g>
	<g>
		<g>
			<polygon style="fill:#4F3F44;" points="173.85,208.363 131.196,208.363 131.196,155.975 133.486,155.975 133.486,206.072 
				173.85,206.072 			"/>
		</g>
		<g>
			<rect x="198.47" y="165.135" style="fill:#4F3F44;" width="2.29" height="40.364"/>
		</g>
		<g>
			<rect x="211.31" y="139.35" style="fill:#4F3F44;" width="79.313" height="1.923"/>
		</g>
		<g>
			<polygon style="fill:#4F3F44;" points="395.516,232.342 393.593,232.342 393.593,173.718 319.945,173.718 319.945,171.796 
				395.516,171.796 			"/>
		</g>
		<rect x="384.284" y="228.534" style="fill:#F2ECD1;" width="52.96" height="69.278"/>
		<rect x="385.519" y="234.546" style="fill:#4F3F44;" width="50.491" height="61.651"/>
		<g>
			<rect x="390.883" y="240.003" style="fill:#FBF2D8;" width="1.608" height="1.541"/>
			<rect x="390.883" y="288.88" style="fill:#FBF2D8;" width="1.608" height="1.54"/>
			<rect x="393.342" y="288.88" style="fill:#FBF2D8;" width="3.973" height="1.54"/>
			<rect x="393.147" y="240.003" style="fill:#FBF2D8;" width="9.091" height="1.541"/>
			<rect x="403.779" y="240.003" style="fill:#FBF2D8;" width="5.94" height="1.541"/>
			<polygon style="fill:#FBF2D8;" points="392.113,292.032 391.499,292.032 390.883,293.574 391.499,293.574 			"/>
			<rect x="392.393" y="242.743" style="fill:#FBF2D8;" width="6.104" height="1.542"/>
			<rect x="392.393" y="286.096" style="fill:#FBF2D8;" width="2.56" height="1.541"/>
			<rect x="395.839" y="286.096" style="fill:#FBF2D8;" width="3.642" height="1.541"/>
			<rect x="400.434" y="286.096" style="fill:#FBF2D8;" width="13.552" height="1.541"/>
			<rect x="399.035" y="245.825" style="fill:#FBF2D8;" width="5.552" height="1.543"/>
			<rect x="405.695" y="245.825" style="fill:#FBF2D8;" width="5.551" height="1.543"/>
			<rect x="412.195" y="245.825" style="fill:#FBF2D8;" width="1.002" height="1.543"/>
			<rect x="413.98" y="245.825" style="fill:#FBF2D8;" width="1.609" height="1.543"/>
			<rect x="408.078" y="242.743" style="fill:#FBF2D8;" width="8.401" height="1.542"/>
			<rect x="399.613" y="242.743" style="fill:#FBF2D8;" width="7.02" height="1.542"/>
			<rect x="394.297" y="248.509" style="fill:#FBF2D8;" width="8.401" height="1.541"/>
			<rect x="394.297" y="251.324" style="fill:#FBF2D8;" width="2.427" height="1.541"/>
			<rect x="397.773" y="251.324" style="fill:#FBF2D8;" width="4.268" height="1.541"/>
			<rect x="403.812" y="251.324" style="fill:#FBF2D8;" width="3.217" height="1.541"/>
			<rect x="407.816" y="251.324" style="fill:#FBF2D8;" width="3.217" height="1.541"/>
			<rect x="397.117" y="254.241" style="fill:#FBF2D8;" width="4.201" height="1.542"/>
			<rect x="401.845" y="254.241" style="fill:#FBF2D8;" width="13.52" height="1.542"/>
			<rect x="394.297" y="257.158" style="fill:#FBF2D8;" width="4.199" height="1.543"/>
			<rect x="399.285" y="257.158" style="fill:#FBF2D8;" width="2.098" height="1.543"/>
			<rect x="402.5" y="257.158" style="fill:#FBF2D8;" width="7.482" height="1.543"/>
			<rect x="397.642" y="260.078" style="fill:#FBF2D8;" width="2.297" height="1.54"/>
			<rect x="400.727" y="260.078" style="fill:#FBF2D8;" width="0.985" height="1.54"/>
			<rect x="402.96" y="260.078" style="fill:#FBF2D8;" width="2.56" height="1.54"/>
			<rect x="406.241" y="260.078" style="fill:#FBF2D8;" width="6.103" height="1.54"/>
			<rect x="413.2" y="260.078" style="fill:#FBF2D8;" width="3.082" height="1.54"/>
			<rect x="417.072" y="260.079" style="fill:#FBF2D8;" width="9.451" height="1.539"/>
			<rect x="397.642" y="262.996" style="fill:#FBF2D8;" width="4.202" height="1.541"/>
			<rect x="403.156" y="262.996" style="fill:#FBF2D8;" width="2.821" height="1.541"/>
			<rect x="407.095" y="262.996" style="fill:#FBF2D8;" width="2.818" height="1.541"/>
			<rect x="397.642" y="265.913" style="fill:#FBF2D8;" width="10.568" height="1.541"/>
			<rect x="409.129" y="265.913" style="fill:#FBF2D8;" width="5.577" height="1.541"/>
			<rect x="394.297" y="268.832" style="fill:#FBF2D8;" width="4.199" height="1.54"/>
			<rect x="399.613" y="268.832" style="fill:#FBF2D8;" width="3.019" height="1.54"/>
			<rect x="403.548" y="268.832" style="fill:#FBF2D8;" width="7.254" height="1.54"/>
			<rect x="411.328" y="268.832" style="fill:#FBF2D8;" width="3.609" height="1.54"/>
			<rect x="415.56" y="268.832" style="fill:#FBF2D8;" width="9.123" height="1.54"/>
			<rect x="397.642" y="271.75" style="fill:#FBF2D8;" width="4.202" height="1.542"/>
			<rect x="403.256" y="271.75" style="fill:#FBF2D8;" width="3.411" height="1.542"/>
			<rect x="407.915" y="271.75" style="fill:#FBF2D8;" width="2.2" height="1.542"/>
			<rect x="411.36" y="271.75" style="fill:#FBF2D8;" width="7.711" height="1.542"/>
			<rect x="419.925" y="271.75" style="fill:#FBF2D8;" width="2.199" height="1.542"/>
			<rect x="397.642" y="274.667" style="fill:#FBF2D8;" width="6.825" height="1.541"/>
			<rect x="405.583" y="274.667" style="fill:#FBF2D8;" width="4.2" height="1.541"/>
			<rect x="410.771" y="274.667" style="fill:#FBF2D8;" width="5.578" height="1.541"/>
			<rect x="417.202" y="274.667" style="fill:#FBF2D8;" width="12.536" height="1.541"/>
			<rect x="397.642" y="277.586" style="fill:#FBF2D8;" width="4.202" height="1.54"/>
			<rect x="403.091" y="277.586" style="fill:#FBF2D8;" width="4.2" height="1.54"/>
			<rect x="408.473" y="277.586" style="fill:#FBF2D8;" width="4.397" height="1.54"/>
			<rect x="413.725" y="277.586" style="fill:#FBF2D8;" width="2.493" height="1.54"/>
			<rect x="394.297" y="280.505" style="fill:#FBF2D8;" width="4.199" height="1.54"/>
			<rect x="399.088" y="280.505" style="fill:#FBF2D8;" width="6.105" height="1.54"/>
			<rect x="397.642" y="283.351" style="fill:#FBF2D8;" width="4.299" height="1.542"/>
			<rect x="403.237" y="283.351" style="fill:#FBF2D8;" width="3.136" height="1.542"/>
			<rect x="407.699" y="283.351" style="fill:#FBF2D8;" width="1.954" height="1.542"/>
			<rect x="406.109" y="280.505" style="fill:#FBF2D8;" width="2.954" height="1.54"/>
			<rect x="409.914" y="280.505" style="fill:#FBF2D8;" width="4.662" height="1.54"/>
			<rect x="404.273" y="248.509" style="fill:#FBF2D8;" width="2.36" height="1.541"/>
		</g>
		<rect x="187.591" y="122.9" style="fill:#F2ECD1;" width="47.807" height="56.109"/>
		<rect x="188.88" y="129.102" style="fill:#4F3F44;" width="45.231" height="48.762"/>
		<rect x="162.113" y="196.625" style="fill:#F2ECD1;" width="56.968" height="39.219"/>
		<g>
			<rect x="203.469" y="197.309" style="fill:#BAB335;" width="3.928" height="3.928"/>
			<rect x="208.742" y="197.309" style="fill:#FFCE61;" width="3.928" height="3.928"/>
			<rect x="214.016" y="197.309" style="fill:#E54880;" width="3.928" height="3.928"/>
		</g>
		<g>
			<rect x="219.636" y="124.085" style="fill:#BAB335;" width="3.928" height="3.928"/>
			<rect x="224.909" y="124.085" style="fill:#FFCE61;" width="3.928" height="3.928"/>
			<rect x="230.182" y="124.085" style="fill:#E54880;" width="3.928" height="3.928"/>
		</g>
		<rect x="282.211" y="120.843" style="fill:#F2ECD1;" width="44.463" height="57.041"/>
		<rect x="283.533" y="126.131" style="fill:#4F3F44;" width="41.819" height="50.552"/>
		<g>
			<rect x="313.2" y="121.918" style="fill:#BAB335;" width="3.298" height="3.298"/>
			<rect x="317.627" y="121.918" style="fill:#FFCE61;" width="3.298" height="3.298"/>
			<rect x="322.055" y="121.918" style="fill:#E54880;" width="3.298" height="3.298"/>
		</g>
		<g>
			<rect x="421.535" y="229.433" style="fill:#BAB335;" width="3.928" height="3.928"/>
			<rect x="426.808" y="229.433" style="fill:#FFCE61;" width="3.928" height="3.928"/>
			<rect x="432.081" y="229.433" style="fill:#E54880;" width="3.928" height="3.928"/>
		</g>
		<rect x="163.251" y="201.969" style="fill:#4F3F44;" width="54.693" height="33.092"/>
		<g>
			<rect x="168.796" y="204.542" style="fill:#FBF2D8;" width="1.996" height="1.582"/>
			<rect x="171.607" y="204.542" style="fill:#FBF2D8;" width="11.286" height="1.582"/>
			<rect x="184.805" y="204.542" style="fill:#FBF2D8;" width="7.376" height="1.582"/>
			<rect x="170.669" y="207.352" style="fill:#FBF2D8;" width="7.58" height="1.582"/>
			<rect x="178.915" y="210.515" style="fill:#FBF2D8;" width="6.893" height="1.58"/>
			<rect x="187.185" y="210.515" style="fill:#FBF2D8;" width="6.892" height="1.58"/>
			<rect x="195.253" y="210.515" style="fill:#FBF2D8;" width="1.245" height="1.58"/>
			<rect x="197.469" y="210.515" style="fill:#FBF2D8;" width="1.998" height="1.58"/>
			<rect x="190.143" y="207.352" style="fill:#FBF2D8;" width="10.429" height="1.582"/>
			<rect x="179.633" y="207.352" style="fill:#FBF2D8;" width="8.717" height="1.582"/>
			<rect x="173.035" y="213.27" style="fill:#FBF2D8;" width="10.429" height="1.58"/>
			<rect x="173.035" y="216.158" style="fill:#FBF2D8;" width="3.011" height="1.58"/>
			<rect x="177.351" y="216.158" style="fill:#FBF2D8;" width="5.296" height="1.58"/>
			<rect x="184.848" y="216.158" style="fill:#FBF2D8;" width="3.994" height="1.58"/>
			<rect x="189.818" y="216.158" style="fill:#FBF2D8;" width="3.992" height="1.58"/>
			<rect x="176.535" y="219.151" style="fill:#FBF2D8;" width="5.215" height="1.582"/>
			<rect x="182.401" y="219.151" style="fill:#FBF2D8;" width="16.787" height="1.582"/>
			<rect x="173.035" y="222.142" style="fill:#FBF2D8;" width="5.211" height="1.584"/>
			<rect x="179.225" y="222.142" style="fill:#FBF2D8;" width="2.605" height="1.584"/>
			<rect x="183.219" y="222.142" style="fill:#FBF2D8;" width="9.288" height="1.584"/>
			<rect x="177.187" y="225.14" style="fill:#FBF2D8;" width="2.855" height="1.582"/>
			<rect x="181.018" y="225.14" style="fill:#FBF2D8;" width="1.22" height="1.582"/>
			<rect x="183.788" y="225.14" style="fill:#FBF2D8;" width="3.178" height="1.582"/>
			<rect x="187.863" y="225.14" style="fill:#FBF2D8;" width="7.577" height="1.582"/>
			<rect x="196.5" y="225.14" style="fill:#FBF2D8;" width="3.827" height="1.582"/>
			<rect x="201.308" y="225.14" style="fill:#FBF2D8;" width="11.733" height="1.581"/>
			<rect x="177.187" y="228.131" style="fill:#FBF2D8;" width="5.215" height="1.583"/>
			<rect x="184.032" y="228.131" style="fill:#FBF2D8;" width="3.504" height="1.583"/>
			<rect x="188.922" y="228.131" style="fill:#FBF2D8;" width="3.501" height="1.583"/>
			<rect x="177.187" y="231.127" style="fill:#FBF2D8;" width="13.12" height="1.578"/>
			<rect x="191.446" y="231.127" style="fill:#FBF2D8;" width="6.927" height="1.578"/>
			<rect x="185.419" y="213.27" style="fill:#FBF2D8;" width="2.932" height="1.58"/>
		</g>
		<g>
			<rect x="72.319" y="101.143" style="fill:#F2ECD1;" width="93.134" height="77.866"/>
			<rect x="73.712" y="106.868" style="fill:#4F3F44;" width="90.348" height="70.976"/>
			<rect x="149.585" y="101.986" style="fill:#BAB335;" width="3.928" height="3.928"/>
			<rect x="154.859" y="101.986" style="fill:#FFCE61;" width="3.928" height="3.928"/>
			<rect x="160.132" y="101.986" style="fill:#E54880;" width="3.928" height="3.928"/>
		</g>
		<g>
			<rect x="288.357" y="128.365" style="fill:#FBF2D8;" width="1.35" height="1.345"/>
			<rect x="288.357" y="171.041" style="fill:#FBF2D8;" width="1.35" height="1.344"/>
			<rect x="290.421" y="171.041" style="fill:#FBF2D8;" width="3.335" height="1.344"/>
			<rect x="290.257" y="128.365" style="fill:#FBF2D8;" width="7.633" height="1.345"/>
			<rect x="299.183" y="128.365" style="fill:#FBF2D8;" width="4.987" height="1.345"/>
			<polygon style="fill:#FBF2D8;" points="289.389,173.794 288.874,173.794 288.357,175.14 288.874,175.14 			"/>
			<rect x="289.624" y="130.758" style="fill:#FBF2D8;" width="5.125" height="1.347"/>
			<rect x="289.624" y="168.61" style="fill:#FBF2D8;" width="2.149" height="1.346"/>
			<rect x="292.517" y="168.61" style="fill:#FBF2D8;" width="3.058" height="1.346"/>
			<rect x="296.375" y="168.61" style="fill:#FBF2D8;" width="11.377" height="1.346"/>
			<rect x="295.201" y="133.448" style="fill:#FBF2D8;" width="4.661" height="1.347"/>
			<rect x="300.793" y="133.448" style="fill:#FBF2D8;" width="4.66" height="1.347"/>
			<rect x="306.249" y="133.448" style="fill:#FBF2D8;" width="0.841" height="1.347"/>
			<rect x="307.748" y="133.448" style="fill:#FBF2D8;" width="1.351" height="1.347"/>
			<rect x="302.793" y="130.758" style="fill:#FBF2D8;" width="7.053" height="1.347"/>
			<rect x="295.686" y="130.758" style="fill:#FBF2D8;" width="5.894" height="1.347"/>
			<rect x="291.223" y="135.792" style="fill:#FBF2D8;" width="7.053" height="1.346"/>
			<rect x="291.223" y="138.25" style="fill:#FBF2D8;" width="2.038" height="1.345"/>
			<rect x="294.141" y="138.25" style="fill:#FBF2D8;" width="3.583" height="1.345"/>
			<rect x="299.211" y="138.25" style="fill:#FBF2D8;" width="2.7" height="1.345"/>
			<rect x="302.573" y="138.25" style="fill:#FBF2D8;" width="2.701" height="1.345"/>
			<rect x="293.591" y="140.797" style="fill:#FBF2D8;" width="3.527" height="1.347"/>
			<rect x="297.56" y="140.797" style="fill:#FBF2D8;" width="11.35" height="1.347"/>
			<rect x="291.223" y="143.343" style="fill:#FBF2D8;" width="3.525" height="1.347"/>
			<rect x="295.411" y="143.343" style="fill:#FBF2D8;" width="1.762" height="1.347"/>
			<rect x="298.11" y="143.343" style="fill:#FBF2D8;" width="6.281" height="1.347"/>
			<rect x="294.032" y="145.893" style="fill:#FBF2D8;" width="1.929" height="1.344"/>
			<rect x="296.621" y="145.893" style="fill:#FBF2D8;" width="0.827" height="1.344"/>
			<rect x="298.496" y="145.893" style="fill:#FBF2D8;" width="2.149" height="1.344"/>
			<rect x="301.251" y="145.893" style="fill:#FBF2D8;" width="5.124" height="1.344"/>
			<rect x="307.093" y="145.893" style="fill:#FBF2D8;" width="2.588" height="1.344"/>
			<rect x="310.344" y="145.894" style="fill:#FBF2D8;" width="7.935" height="1.344"/>
			<rect x="294.032" y="148.441" style="fill:#FBF2D8;" width="3.528" height="1.345"/>
			<rect x="298.661" y="148.441" style="fill:#FBF2D8;" width="2.369" height="1.345"/>
			<rect x="301.968" y="148.441" style="fill:#FBF2D8;" width="2.366" height="1.345"/>
			<rect x="294.032" y="150.988" style="fill:#FBF2D8;" width="8.872" height="1.345"/>
			<rect x="303.675" y="150.988" style="fill:#FBF2D8;" width="4.683" height="1.345"/>
			<rect x="291.223" y="153.536" style="fill:#FBF2D8;" width="3.525" height="1.344"/>
			<rect x="295.686" y="153.536" style="fill:#FBF2D8;" width="2.535" height="1.344"/>
			<rect x="298.99" y="153.536" style="fill:#FBF2D8;" width="6.09" height="1.344"/>
			<rect x="305.521" y="153.536" style="fill:#FBF2D8;" width="3.03" height="1.344"/>
			<rect x="309.074" y="153.536" style="fill:#FBF2D8;" width="7.659" height="1.344"/>
			<rect x="294.032" y="156.084" style="fill:#FBF2D8;" width="3.528" height="1.346"/>
			<rect x="298.745" y="156.084" style="fill:#FBF2D8;" width="2.864" height="1.346"/>
			<rect x="302.656" y="156.084" style="fill:#FBF2D8;" width="1.847" height="1.346"/>
			<rect x="305.548" y="156.084" style="fill:#FBF2D8;" width="6.474" height="1.346"/>
			<rect x="312.739" y="156.084" style="fill:#FBF2D8;" width="1.846" height="1.346"/>
			<rect x="294.032" y="158.631" style="fill:#FBF2D8;" width="5.73" height="1.345"/>
			<rect x="300.698" y="158.631" style="fill:#FBF2D8;" width="3.526" height="1.345"/>
			<rect x="305.054" y="158.631" style="fill:#FBF2D8;" width="4.683" height="1.345"/>
			<rect x="310.453" y="158.631" style="fill:#FBF2D8;" width="10.525" height="1.345"/>
			<rect x="294.032" y="161.18" style="fill:#FBF2D8;" width="3.528" height="1.345"/>
			<rect x="298.606" y="161.18" style="fill:#FBF2D8;" width="3.526" height="1.345"/>
			<rect x="303.125" y="161.18" style="fill:#FBF2D8;" width="3.691" height="1.345"/>
			<rect x="307.534" y="161.18" style="fill:#FBF2D8;" width="2.093" height="1.345"/>
			<rect x="291.223" y="163.729" style="fill:#FBF2D8;" width="3.525" height="1.344"/>
			<rect x="295.246" y="163.729" style="fill:#FBF2D8;" width="5.126" height="1.344"/>
			<rect x="294.032" y="166.214" style="fill:#FBF2D8;" width="3.61" height="1.346"/>
			<rect x="298.729" y="166.214" style="fill:#FBF2D8;" width="2.633" height="1.346"/>
			<rect x="302.475" y="166.214" style="fill:#FBF2D8;" width="1.641" height="1.346"/>
			<rect x="301.14" y="163.729" style="fill:#FBF2D8;" width="2.48" height="1.344"/>
			<rect x="304.334" y="163.729" style="fill:#FBF2D8;" width="3.914" height="1.344"/>
			<rect x="299.598" y="135.792" style="fill:#FBF2D8;" width="1.981" height="1.346"/>
		</g>
		<g>
			<rect x="87.461" y="111.41" style="fill:#FF5240;" width="2.973" height="2.151"/>
			<rect x="91.648" y="111.41" style="fill:#FFF3D9;" width="16.806" height="2.151"/>
			<rect x="111.309" y="111.41" style="fill:#FFCD50;" width="10.984" height="2.151"/>
			<rect x="90.252" y="115.234" style="fill:#FF5240;" width="11.288" height="2.153"/>
			<rect x="102.534" y="119.539" style="fill:#FFCD50;" width="10.268" height="2.15"/>
			<rect x="114.85" y="119.539" style="fill:#FFCD50;" width="10.27" height="2.15"/>
			<rect x="126.866" y="119.539" style="fill:#FFCD50;" width="1.86" height="2.15"/>
			<rect x="130.173" y="119.539" style="fill:#FFCD50;" width="2.978" height="2.15"/>
			<rect x="119.26" y="115.234" style="fill:#FFF3D9;" width="15.535" height="2.153"/>
			<rect x="103.604" y="115.234" style="fill:#FFF3D9;" width="12.983" height="2.153"/>
			<rect x="93.771" y="123.284" style="fill:#FFF3D9;" width="15.537" height="2.151"/>
			<rect x="93.771" y="127.212" style="fill:#FF5240;" width="4.491" height="2.15"/>
			<rect x="100.204" y="127.212" style="fill:#FFF3D9;" width="7.889" height="2.15"/>
			<rect x="111.369" y="127.212" style="fill:#FFF3D9;" width="5.947" height="2.15"/>
			<rect x="118.773" y="127.212" style="fill:#FFF3D9;" width="5.948" height="2.15"/>
			<rect x="98.992" y="131.284" style="fill:#FFF3D9;" width="7.767" height="2.154"/>
			<rect x="107.73" y="131.284" style="fill:#FFCD50;" width="25" height="2.154"/>
			<rect x="93.771" y="135.359" style="fill:#FF5240;" width="7.769" height="2.151"/>
			<rect x="102.995" y="135.359" style="fill:#FF5240;" width="3.882" height="2.151"/>
			<rect x="108.941" y="135.359" style="fill:#FFF3D9;" width="13.836" height="2.151"/>
			<rect x="99.962" y="139.432" style="fill:#FFF3D9;" width="4.247" height="2.152"/>
			<rect x="105.665" y="139.432" style="fill:#FFF3D9;" width="1.821" height="2.152"/>
			<rect x="109.791" y="139.432" style="fill:#FFF3D9;" width="4.734" height="2.152"/>
			<rect x="115.862" y="139.432" style="fill:#FFF3D9;" width="11.286" height="2.152"/>
			<rect x="128.726" y="139.432" style="fill:#FFF3D9;" width="5.704" height="2.152"/>
			<rect x="135.889" y="139.432" style="fill:#FFF3D9;" width="17.474" height="2.152"/>
			<rect x="93.771" y="159.124" style="fill:#FF5240;" width="4.491" height="2.15"/>
			<rect x="100.204" y="159.124" style="fill:#FFF3D9;" width="7.889" height="2.15"/>
			<rect x="111.369" y="159.124" style="fill:#FFF3D9;" width="5.947" height="2.15"/>
			<rect x="118.773" y="159.124" style="fill:#FFF3D9;" width="5.948" height="2.15"/>
			<rect x="98.992" y="155.049" style="fill:#FFF3D9;" width="7.767" height="2.153"/>
			<rect x="107.73" y="155.049" style="fill:#FFCD50;" width="8.278" height="2.153"/>
			<rect x="93.771" y="150.976" style="fill:#FF5240;" width="7.769" height="2.151"/>
			<rect x="102.995" y="150.976" style="fill:#FF5240;" width="3.882" height="2.151"/>
			<rect x="108.941" y="150.976" style="fill:#FFF3D9;" width="13.836" height="2.151"/>
			<rect x="99.962" y="146.903" style="fill:#FFF3D9;" width="14.218" height="2.152"/>
			<rect x="115.862" y="146.903" style="fill:#FFF3D9;" width="8.146" height="2.152"/>
			<rect x="125.146" y="146.903" style="fill:#FFF3D9;" width="4.116" height="2.152"/>
			<rect x="130.315" y="146.903" style="fill:#FFF3D9;" width="12.613" height="2.152"/>
			<rect x="99.962" y="143.505" style="fill:#FFF3D9;" width="7.769" height="2.152"/>
			<rect x="110.156" y="143.505" style="fill:#C3C640;" width="5.219" height="2.152"/>
			<rect x="117.439" y="143.505" style="fill:#C3C640;" width="5.218" height="2.152"/>
			<rect x="112.22" y="123.284" style="fill:#FF5240;" width="4.366" height="2.151"/>
			<rect x="90.252" y="162.654" style="fill:#FF5240;" width="11.288" height="2.153"/>
			<rect x="102.534" y="166.958" style="fill:#FFCD50;" width="10.268" height="2.151"/>
			<rect x="114.85" y="166.958" style="fill:#FFCD50;" width="10.27" height="2.151"/>
			<rect x="126.866" y="166.958" style="fill:#FFCD50;" width="1.86" height="2.151"/>
			<rect x="130.173" y="166.958" style="fill:#FFCD50;" width="2.978" height="2.151"/>
			<rect x="119.26" y="162.654" style="fill:#FFF3D9;" width="15.535" height="2.153"/>
			<rect x="103.604" y="162.654" style="fill:#FFF3D9;" width="12.983" height="2.153"/>
			<rect x="93.771" y="170.705" style="fill:#FFF3D9;" width="15.537" height="2.152"/>
			<rect x="112.22" y="170.705" style="fill:#FF5240;" width="4.366" height="2.152"/>
		</g>
		<g>
			<rect x="193.279" y="135.273" style="fill:#FBF2D8;" width="1.534" height="1.526"/>
			<rect x="195.439" y="135.273" style="fill:#FBF2D8;" width="8.673" height="1.526"/>
			<rect x="205.582" y="135.273" style="fill:#FBF2D8;" width="5.668" height="1.526"/>
			<rect x="194.719" y="137.984" style="fill:#FBF2D8;" width="5.825" height="1.526"/>
			<rect x="201.056" y="141.036" style="fill:#FBF2D8;" width="5.297" height="1.524"/>
			<rect x="207.411" y="141.036" style="fill:#FBF2D8;" width="5.297" height="1.524"/>
			<rect x="213.611" y="141.036" style="fill:#FBF2D8;" width="0.957" height="1.524"/>
			<rect x="215.314" y="141.036" style="fill:#FBF2D8;" width="1.536" height="1.524"/>
			<rect x="209.684" y="137.984" style="fill:#FBF2D8;" width="8.015" height="1.526"/>
			<rect x="201.608" y="137.984" style="fill:#FBF2D8;" width="6.699" height="1.526"/>
			<rect x="196.537" y="143.693" style="fill:#FBF2D8;" width="8.015" height="1.524"/>
			<rect x="196.537" y="146.479" style="fill:#FBF2D8;" width="2.314" height="1.524"/>
			<rect x="199.854" y="146.479" style="fill:#FBF2D8;" width="4.07" height="1.524"/>
			<rect x="205.615" y="146.479" style="fill:#FBF2D8;" width="3.069" height="1.524"/>
			<rect x="209.435" y="146.479" style="fill:#FBF2D8;" width="3.068" height="1.524"/>
			<rect x="199.227" y="149.366" style="fill:#FBF2D8;" width="4.008" height="1.526"/>
			<rect x="203.735" y="149.366" style="fill:#FBF2D8;" width="12.901" height="1.526"/>
			<rect x="196.537" y="152.252" style="fill:#FBF2D8;" width="4.005" height="1.528"/>
			<rect x="201.294" y="152.252" style="fill:#FBF2D8;" width="2.002" height="1.528"/>
			<rect x="204.363" y="152.252" style="fill:#FBF2D8;" width="7.138" height="1.528"/>
			<rect x="199.727" y="155.144" style="fill:#FBF2D8;" width="2.194" height="1.526"/>
			<rect x="202.672" y="155.144" style="fill:#FBF2D8;" width="0.938" height="1.526"/>
			<rect x="204.8" y="155.144" style="fill:#FBF2D8;" width="2.442" height="1.526"/>
			<rect x="207.932" y="155.144" style="fill:#FBF2D8;" width="5.823" height="1.526"/>
			<rect x="214.57" y="155.144" style="fill:#FBF2D8;" width="2.941" height="1.526"/>
			<rect x="218.265" y="155.145" style="fill:#FBF2D8;" width="9.017" height="1.525"/>
			<rect x="199.727" y="158.029" style="fill:#FBF2D8;" width="4.008" height="1.528"/>
			<rect x="204.988" y="158.029" style="fill:#FBF2D8;" width="2.693" height="1.528"/>
			<rect x="208.746" y="158.029" style="fill:#FBF2D8;" width="2.691" height="1.528"/>
			<rect x="199.727" y="160.919" style="fill:#FBF2D8;" width="10.082" height="1.523"/>
			<rect x="210.686" y="160.919" style="fill:#FBF2D8;" width="5.323" height="1.523"/>
			<rect x="196.537" y="163.807" style="fill:#FBF2D8;" width="4.005" height="1.526"/>
			<rect x="201.608" y="163.807" style="fill:#FBF2D8;" width="2.879" height="1.526"/>
			<rect x="205.363" y="163.807" style="fill:#FBF2D8;" width="6.921" height="1.526"/>
			<rect x="212.785" y="163.807" style="fill:#FBF2D8;" width="3.445" height="1.526"/>
			<rect x="216.823" y="163.807" style="fill:#FBF2D8;" width="8.704" height="1.525"/>
			<rect x="199.727" y="166.697" style="fill:#FBF2D8;" width="4.008" height="1.524"/>
			<rect x="205.084" y="166.697" style="fill:#FBF2D8;" width="3.255" height="1.524"/>
			<rect x="209.529" y="166.697" style="fill:#FBF2D8;" width="2.097" height="1.524"/>
			<rect x="212.815" y="166.697" style="fill:#FBF2D8;" width="7.359" height="1.524"/>
			<rect x="220.987" y="166.697" style="fill:#FBF2D8;" width="2.099" height="1.524"/>
			<rect x="199.727" y="169.584" style="fill:#FBF2D8;" width="6.512" height="1.524"/>
			<rect x="207.306" y="169.584" style="fill:#FBF2D8;" width="4.008" height="1.524"/>
			<rect x="212.254" y="169.584" style="fill:#FBF2D8;" width="5.32" height="1.524"/>
			<rect x="218.391" y="169.584" style="fill:#FBF2D8;" width="4.661" height="1.524"/>
			<rect x="224.295" y="169.584" style="fill:#FBF2D8;" width="2.007" height="1.524"/>
			<rect x="199.727" y="172.471" style="fill:#FBF2D8;" width="4.008" height="1.523"/>
			<rect x="204.925" y="172.471" style="fill:#FBF2D8;" width="4.008" height="1.523"/>
			<rect x="206.054" y="143.693" style="fill:#FBF2D8;" width="2.253" height="1.524"/>
		</g>
	</g>
	<g>
		<g>
			<path style="fill:#EDB984;" d="M258.444,166.957c1.287,0.417,5.222,4.67,7.266,7.332l-6.773,5.921
				c-5.3-2.217-7.705-8.36-6.853-9.417C252.936,169.736,257.156,166.539,258.444,166.957z"/>
			<path style="fill:#EDB984;" d="M264.355,164.171c0.243,0.469-0.877,4.453,0.761,9.514l-4.596-1.583
				c-0.444-1.387,0.66-7.444,1.381-8.212C262.704,163.034,264,163.486,264.355,164.171z"/>
			<path style="fill:#EDB984;" d="M256.72,161.281c0.296,0.372,2.073,3.956,3.474,7.917l-3.419-0.113c0,0-2.388-6.247-2.082-7.164
				C255,161.005,256.287,160.736,256.72,161.281z"/>
			<path style="fill:#EDB984;" d="M252.013,162.638c0.518,0.116,2.856,4.002,4.963,7.663l-3.493,0.29c0,0-3.504-5.754-3.351-6.674
				C250.285,162.997,251.495,162.522,252.013,162.638z"/>
			<path style="fill:#EDB984;" d="M255.203,177.673c-4.817-2.819-7.575-9.954-7.37-10.58c0.205-0.627,1.187-2.054,1.739-1.372
				c0.552,0.681,2.507,4.593,3.397,5.089c0.89,0.496,6.669,2.857,6.644,3.022C259.588,173.996,255.203,177.673,255.203,177.673z"/>
		</g>
		<g>
			<path style="fill:#EDB984;" d="M386.693,157.883c-1.021,0.888-2.976,6.342-3.813,9.592l8.551,2.795
				c4.008-4.115,3.815-10.71,2.616-11.349C392.849,158.283,387.714,156.995,386.693,157.883z"/>
			<path style="fill:#EDB984;" d="M380.163,157.636c-0.04,0.526,2.551,3.754,3.027,9.052l3.608-3.257
				c-0.134-1.45-3.523-6.591-4.487-7.015C381.237,155.943,380.221,156.866,380.163,157.636z"/>
			<path style="fill:#EDB984;" d="M386.055,151.986c-0.127,0.459-0.358,4.452-0.095,8.645l3.102-1.443c0,0-0.25-6.684-0.891-7.407
				C387.53,151.059,386.24,151.315,386.055,151.986z"/>
			<path style="fill:#EDB984;" d="M390.918,151.391c-0.431,0.31-1.06,4.801-1.564,8.994l3.328-1.101c0,0,0.971-6.667,0.469-7.453
				C392.649,151.044,391.349,151.081,390.918,151.391z"/>
			<path style="fill:#EDB984;" d="M393.871,166.474c3.328-4.48,3.07-12.125,2.637-12.622c-0.434-0.497-1.896-1.425-2.137-0.582
				c-0.241,0.843-0.507,5.208-1.132,6.013c-0.625,0.805-5.017,5.241-4.93,5.383C388.397,164.808,393.871,166.474,393.871,166.474z"
				/>
		</g>
		<polygon style="fill:#72464E;" points="328.967,321.502 310.97,321.502 312.368,331.138 320.55,331.138 		"/>
		<polygon style="fill:#72464E;" points="319.214,321.442 316.058,321.442 312.17,355.954 315.326,355.954 		"/>
		<path style="fill:#60454A;" d="M119.729,242.65c4.177,0.574,6.368,1.958,6.368,1.958l1.02,1.778
			C125.04,244.677,122.57,243.44,119.729,242.65z"/>
		<path style="fill:#FCF2D6;" d="M265.872,172.839l-8.311,7.127c0,0,14.455,41.973,53.816,62.524l8.011-31.871
			C299.011,206.439,271.968,180.676,265.872,172.839z"/>
		<path style="fill:#EFE0BB;" d="M259.066,178.676l-1.505,1.303c0,0,14.269,42.191,53.25,63.008l2.886-11.084
			C281.594,217.131,265.187,189.952,259.066,178.676z"/>
		<path style="fill:#A6BC4A;" d="M101.687,238.049c-0.61,3.919-6.009,2.874-6.009,2.874s-4.615,1.306-4.267-4.093
			c0.348-5.399,5.66-6.792,6.183-5.834c0,0,6.618-5.921,13.236-3.57c0,0,5.418-1.662,5.66,0.522
			C117.013,232.65,101.687,238.049,101.687,238.049z"/>
		<g>
			<path style="fill:#72464E;" d="M337.766,320.529l-26.617-0.639c-1.663-0.04-3.011,1.136-3.011,2.627
				c0,1.491,1.348,2.732,3.011,2.772l26.617,0.639c1.663,0.04,3.011-1.136,3.011-2.627S339.429,320.569,337.766,320.529z"/>
			<polygon style="fill:#72464E;" points="347.765,301.356 342.512,301.356 333.508,314.941 338.761,314.941 			"/>
			<path style="fill:#FFB850;" d="M342.621,313.48l-34.664-1.25c-3.157-0.114-5.816,2.17-5.939,5.102
				c-0.123,2.931,2.337,5.4,5.495,5.514l34.664,1.25c3.157,0.114,5.816-2.17,5.939-5.102
				C348.239,316.063,345.779,313.594,342.621,313.48z"/>
			<path style="fill:#FFB850;" d="M385.653,241.777l-26.183-1.509c-1.359-0.078-2.6,0.626-3.148,1.786l-27.52,58.183
				c-0.973,2.057,0.613,4.48,3.021,4.619l26.183,1.509c1.359,0.078,2.6-0.626,3.149-1.786l27.52-58.183
				C389.647,244.339,388.062,241.915,385.653,241.777z"/>
			<path style="fill:#FCD163;" d="M382.864,243.385l-12.753-0.735c-0.899,2.401-1.654,4.963-2.222,7.654
				c-2.332,11.047-0.984,21.398,2.95,27.611l14.525-30.708C386.169,245.506,384.857,243.5,382.864,243.385z"/>
		</g>
		<path style="fill:#5E93A5;" d="M295.441,271.488c0,0-45.114,16.105-50.861,20.808s-39.006,57.826-39.006,57.826l56.017-36.929
			l43.777-11.4l3.396-22.989L295.441,271.488z"/>
		<path style="fill:#4C8291;" d="M298.489,291.081l-40.903,12.01l-51.953,46.938c-0.035,0.055-0.058,0.093-0.058,0.093
			l56.689-36.574l63.22-14.804L298.489,291.081z"/>
		<path style="fill:#5E93A5;" d="M244.303,374.417c0,0,96.829-72.097,99.722-78.884c2.895-6.79-39.881-18.577-39.881-18.577
			l-15.412,12.746l1.569,9.893L244.303,374.417z"/>
		<path style="fill:#4C8291;" d="M297.474,269.659l-10.564,4.845c11.75,7.989,22.169,16.296,32.69,26.851l-74.986,72.556
			l-0.311,0.506c0,0,97.618-71.181,100.512-77.968C347.71,289.659,297.474,269.659,297.474,269.659z"/>
		<path style="fill:#FCF2D6;" d="M289.258,272.881c20.899,16.197,58.431,26.559,58.431,26.559s10.703-66.667-3.483-88.735
			c-2.351-3.657-25.689-0.871-30.903,1.552C304.489,216.352,310.157,253.81,289.258,272.881z"/>
		<path style="fill:#EFE0BB;" d="M340.845,209.271c-6.931,7.335-11.877,26.545-11.877,49.09c0,14.339,2.002,27.326,5.242,36.77
			c7.966,2.785,13.479,4.309,13.479,4.309s10.703-66.667-3.483-88.735C343.758,210.009,342.545,209.547,340.845,209.271z"/>
		<path style="fill:#FCF2D6;" d="M382.316,166.896l9.958,3.056c0,0-11.32,42.669-45.108,70.709
			c-13.991,5.089-25.49-26.523-11.498-31.612C360.403,202.346,377.596,175.632,382.316,166.896z"/>
		<path style="fill:#EFE0BB;" d="M331.989,231.206c1.985,8.28,9.979,12.189,15.7,10.108c33.787-28.04,44.585-71.362,44.585-71.362
			C377.079,202.52,338.676,234,331.989,231.206z"/>
		<polygon style="fill:#CCBF9B;" points="225.387,284.241 116.491,287.075 235.181,377.67 237.01,376.071 		"/>
		<polygon style="fill:#D3C9A9;" points="223.404,285.072 114.749,287.075 128.247,372.588 235.181,377.67 		"/>
		<path style="fill:#CCBF9B;" d="M185.382,312.098c18,7.179,33.427,16.875,44.954,27.472l-6.932-54.498l-108.654,2.003l2.394,15.168
			C135.995,299.123,160.563,302.199,185.382,312.098z"/>
		<polygon style="fill:#D3C9A9;" points="273.735,360.656 276.808,358.619 265.05,272.097 261.72,272.238 		"/>
		<polygon style="fill:#D3C9A9;" points="160.183,273.858 113.063,286.22 113.519,288.664 224.009,285.662 271.407,270.53 
			271.407,267.917 		"/>
		<polygon style="fill:#E8E1C8;" points="160.183,271.246 113.063,286.22 223.697,283.309 271.407,267.917 		"/>
		<polygon style="fill:#D3C9A9;" points="233.962,271.083 198.885,271.658 181.142,280.306 216.218,279.73 		"/>
		<polygon style="fill:#D3C9A9;" points="187.688,276.081 160.221,275.846 181.499,280.339 209.497,279.841 		"/>
		<polygon style="fill:#C7D3D3;" points="199.386,248.51 171.351,266.785 196.038,269.006 222.228,247.833 		"/>
		<polygon style="fill:#D1DBDB;" points="199.5,249.739 180.516,262.048 193.165,266.785 218.113,249.413 		"/>
		<polygon style="fill:#C7D3D3;" points="204.862,249.047 198.545,253.143 205.054,253.118 211.056,248.939 		"/>
		<polygon style="fill:#B6C1C1;" points="222.245,247.832 193.47,267.83 196.038,269.006 223.012,249.739 		"/>
		<path style="fill:#9DA8A8;" d="M164.915,240.459l-14.793,3.141c-0.918,0.195-1.247,1.336-0.574,1.99l21.804,21.195l24.687,2.221
			l-27.461-27.461C167.619,240.586,166.241,240.178,164.915,240.459z"/>
		<path style="fill:#B6C1C1;" d="M165.573,242.067l26.59,26.59l3.875,0.349l-27.461-27.461c-0.958-0.958-2.336-1.367-3.662-1.085
			l-2.072,0.44C163.858,240.925,164.839,241.333,165.573,242.067z"/>
		<path style="fill:#FF768D;" d="M267.552,250.258c1.237-3.042-12.069-8.453-13.306-5.412l-4.706,11.57
			c-1.834,4.51,11.472,9.921,13.306,5.412L267.552,250.258z"/>
		<path style="fill:#EA4762;" d="M257.89,244.101c0.399,1.681,0.629,3.55,0.629,5.53c0,5.845-1.945,10.79-4.627,12.458
			c3.514,1.701,7.951,2.207,8.955-0.261l4.706-11.57C268.418,248.127,262.149,244.836,257.89,244.101z"/>
		<path style="fill:#BF264F;" d="M266.713,249.561c-0.167-2.501-9.165-6.208-11.313-4.745
			C255.232,248.32,264.208,252.019,266.713,249.561z"/>
		<path style="fill:#EA4762;" d="M267.804,251.316l-1.084-0.415l-0.853,1.902c0.122,0.031,0.244,0.053,0.364,0.099l0.345,0.132
			c1.663,0.637,2.496,2.502,1.859,4.165c-0.637,1.663-2.502,2.496-4.165,1.859l-0.345-0.132c-0.235-0.09-0.448-0.21-0.648-0.344
			l-0.861,1.921c0.096,0.045,0.181,0.103,0.282,0.142l1.338,0.512c2.156,0.825,4.572-0.253,5.397-2.409l0.779-2.035
			C271.038,254.557,269.959,252.141,267.804,251.316z"/>
		<g>
			<path style="fill:#60454A;" d="M127.761,260.814l-0.858-0.596c2.585-3.721,5.401-8.282,4.216-10.548
				c-0.633-1.21-2.435-2.172-5.442-2.172c-6.189,0-10.382-0.26-11.756-2.482c-0.704-1.139-0.877-2.272,0.167-4.359l0.935,0.467
				c-0.868,1.737-1.049,2.973-0.551,3.778c1.087,1.759,5.502,1.899,11.161,1.899c3.475,0,5.572,0.78,6.411,2.385
				C133.203,251.4,131.962,254.769,127.761,260.814z"/>
		</g>
		<g>
			<path style="fill:#60454A;" d="M127.463,247.454c-1.168-1.111-1.542-2.037-1.463-3.546c0.154-2.957,2.736-6.385,7.675-10.191
				l0.255,0.331c-4.62,3.56-6.897,7.366-7.033,9.967c-0.062,1.19,0.528,2.194,1.465,3.086L127.463,247.454z"/>
		</g>
		<g>
			<path style="fill:#60454A;" d="M115.05,240.982l-1.038-0.119c0.201-1.742,0.063-4.061-1.733-5.215
				c-1.536-0.986-5.72-2.432-14.946,3.141l-0.314-0.273c9.226-5.574,13.699-5.114,15.825-3.748
				C114.624,235.912,115.387,238.061,115.05,240.982z"/>
		</g>
		<g>
			<path style="fill:#60454A;" d="M114.491,242.372l-0.989-0.339c1.609-4.7,5.714-7.184,11.871-7.184v0.35
				C121.42,235.199,116.323,237.018,114.491,242.372z"/>
		</g>
		<path style="fill:#E06244;" d="M138.331,253.933c-6.415,1.879-12.318,4.564-17.775,7.949l7.707,14.306
			c5.964-1.459,11.257-3.676,15.594-6.974L138.331,253.933z"/>
		<path style="fill:#D15037;" d="M142.435,265.283c-0.759,1.764-1.955,3.148-3.575,3.91c-4.83,2.273-11.51-1.759-14.919-9.004
			c-0.035-0.074-0.062-0.148-0.095-0.221c-1.113,0.613-2.213,1.246-3.29,1.914l7.707,14.306c5.964-1.459,11.257-3.676,15.594-6.974
			L142.435,265.283z"/>
		<path style="fill:#544444;" d="M258.369,248.243c2.339,1.716,6.313,2.718,7.753,1.305c-0.038-0.573-0.637-1.22-1.509-1.835
			c-0.387-0.018-0.779-0.031-1.18-0.031C261.552,247.681,259.809,247.889,258.369,248.243z"/>
		<path style="fill:#E8E1C8;" d="M244.629,374.809c0,0-5.29-2.351-6.466-5.486c0,0,6.757,1.468,8.325,2.774
			C248.056,373.403,244.629,374.809,244.629,374.809z"/>
		<path style="fill:#EFE0BB;" d="M336.021,208.943c-5.187-0.023-11.765,0.71-16.685,1.663c-0.338-0.07-0.687-0.162-1.031-0.245
			c-0.223,1.731,0.058,3.363,0.957,4.75c3.178,4.904,12.633,4.938,21.12,0.076c6.292-3.604,10.276-8.887,10.624-13.377
			C346.346,204.933,341.327,207.455,336.021,208.943z"/>
		<path style="fill:#77383F;" d="M323.568,193.725c-0.871-8.882,6.008-11.407,6.008-11.407s3.396-4.964,7.576-4.789
			c4.18,0.174,3.657,4.528,3.657,4.528s3.832-1.306,5.051,1.045c1.219,2.351-1.219,6.444-1.219,6.444s2.612-0.174,2.264,2.525
			c-0.348,2.7-3.919,3.919-3.919,3.919s-7.071,5.575-7.28,11.495l-1.747-5.906L323.568,193.725z"/>
		<path style="fill:#D27558;" d="M335.933,197.121l-0.263,12.032c0,0-2.089,4.078-8.01,5.21c-5.922,1.132-6.271-3.837-6.271-3.837
			l1.569-8.615L335.933,197.121z"/>
		<path style="fill:#EDB984;" d="M317.995,205.481c0.367,1.676,9.056,3.919,11.059,2.786c2.003-1.132,8.534-11.407,7.576-15.761
			c-0.958-4.354-4.33-7.579-6.705-7.489C325.309,185.191,317.385,202.694,317.995,205.481z"/>
		<path style="fill:#77383F;" d="M336.848,188.217c-4.704,6.037-5.097,12.197-5.097,12.197l2.88,0.616l1.286,3.818l3.717-12.504
			L336.848,188.217z"/>
		<path style="fill:#EDB984;" d="M336.731,200.319c1.005-1.668,1.102-3.453,0.216-3.987c-0.886-0.534-2.419,0.386-3.424,2.055
			c-1.005,1.668-1.102,3.453-0.216,3.987C334.193,202.907,335.726,201.987,336.731,200.319z"/>
		<path style="fill:#D27558;" d="M335.918,200.295c0.639-1.061,0.718-2.187,0.176-2.513c-0.542-0.327-1.5,0.268-2.14,1.33
			c-0.639,1.061-0.718,2.186-0.176,2.513C334.321,201.951,335.279,201.356,335.918,200.295z"/>
		<path style="fill:#EDB984;" d="M334.692,201.205c0.388-0.645,0.436-1.328,0.107-1.527c-0.329-0.199-0.911,0.163-1.3,0.808
			c-0.388,0.645-0.436,1.328-0.107,1.527C333.722,202.211,334.304,201.849,334.692,201.205z"/>
		<path style="fill:#D3C9A9;" d="M262.773,269.696c-0.125-0.648-4.592-0.664-9.978-0.036c-5.386,0.628-9.652,1.662-9.527,2.31
			c0.125,0.648,4.592,0.664,9.978,0.035C258.633,271.378,262.898,270.343,262.773,269.696z"/>
		<path style="fill:#D3C9A9;" d="M147.854,280.778c-0.16-0.642-4.621-0.736-9.965-0.212c-5.344,0.525-9.546,1.47-9.387,2.112
			c0.16,0.642,4.621,0.736,9.965,0.212S148.014,281.42,147.854,280.778z"/>
		<path style="fill:#A6BC4A;" d="M119.326,242.848c4.144,1.785,1.785,5.992-1.849,6.884c-3.633,0.892-4.908-0.637-4.908-0.637
			s-4.653,0.829-6.119-3.633c-1.466-4.462,4.143-7.841,4.143-7.841s1.785-5.355,6.438-6.948c4.653-1.594,9.434-0.064,9.434-0.064
			s1.466-2.741,4.462-2.55c2.996,0.191,4.016-4.08,2.04-5.418c0,0,4.717-0.255,4.908,4.654c0.191,4.908-2.614,4.972-2.614,4.972
			s3.506,3.633-0.319,5.801c-3.825,2.167-5.1,1.785-5.1,1.785s-1.138,3.122-5.355,3.825
			C121.43,244.187,119.326,242.848,119.326,242.848z"/>
		<path style="fill:#60454A;" d="M101.121,233.434c2.177,1.393,3.744,1.611,3.744,1.611l1.176-0.435
			C104.398,234.591,102.758,234.192,101.121,233.434z"/>
		<path style="fill:#60454A;" d="M104.833,230.571c-1.78,2.688-1.777,3.712-1.777,3.712l0.522,0.406
			C103.463,233.917,103.776,232.653,104.833,230.571z"/>
		<path style="fill:#B6C1C1;" d="M171.098,256.071c-1.518-1.475-3.667-2.552-4.801-2.406c-1.134,0.146-0.824,1.459,0.694,2.934
			c1.518,1.475,3.667,2.552,4.802,2.406C172.926,258.859,172.615,257.546,171.098,256.071z"/>
		<path style="fill:#544444;" d="M262.905,250.102c5.475,1.134,7.772-5.849,6.889-8.676c-0.883-2.827-3.222-2.969-2.626,2.02
			C267.933,249.852,262.905,250.102,262.905,250.102z"/>
		<path style="fill:#544444;" d="M266.198,240.851c0.328-2.012-0.467-4.298-1.449-5.214c-1.683-1.569-3.384-0.254-1.837,1.132
			C264.07,237.808,265.541,238.173,266.198,240.851z"/>
		<path style="fill:#98A838;" d="M137.876,227.294c-0.152-3.913-3.175-4.543-4.397-4.638c0.98,0.631,1.877,1.682,2.217,3.442
			c0.89,4.612-5.102,7.253-5.102,7.253s-2.448,5.086-7.266,6.078c-4.818,0.992-9.367-1.131-9.367-1.131s-1.801,2.533-4.749,1.965
			c-0.664-0.128-1.252-0.01-1.752,0.254c-0.935,1.287-1.578,2.926-1.055,4.756c0.034,0.035,0.061,0.074,0.098,0.107
			c0,0-0.03-0.003-0.074-0.008c0.009,0.03,0.011,0.059,0.021,0.09c1.466,4.462,6.119,3.633,6.119,3.633s1.275,1.53,4.908,0.637
			c3.483-0.855,5.778-4.751,2.314-6.644c0.775,0.359,2.478,0.958,4.698,0.589c4.217-0.703,5.355-3.825,5.355-3.825
			s1.275,0.382,5.1-1.785c3.825-2.167,0.319-5.801,0.319-5.801S138.067,232.203,137.876,227.294z"/>
		<path style="fill:#98A838;" d="M116.491,227.947c-0.125-1.127-1.628-1.228-3.054-1.064c-1.227,2.945-4.274,4.045-4.775,3.381
			c0,0-5.681,6.826-12.572,5.468c0,0-3.028,1.437-4.679,1.131c-0.325,5.357,4.267,4.059,4.267,4.059s5.399,1.045,6.008-2.874
			C101.687,238.049,117.013,232.65,116.491,227.947z"/>
		<path style="fill:#98A838;" d="M110.142,228.835c-0.176-0.39-0.563-0.677-1.068-0.872c-0.544,0.782-1.621,1.536-3.023,2.002
			c-1.583,0.527-3.147,0.545-4.176,0.149c-0.372,0.536-0.502,1.085-0.284,1.567c0.535,1.185,2.883,1.509,5.244,0.723
			C109.196,231.617,110.676,230.02,110.142,228.835z"/>
		<path style="fill:#98A838;" d="M121.614,234.426c-0.279-0.325-0.73-0.492-1.27-0.537c-0.302,0.904-1.126,1.929-2.34,2.77
			c-1.372,0.95-2.868,1.406-3.966,1.315c-0.207,0.619-0.177,1.182,0.167,1.583c0.846,0.987,3.19,0.639,5.236-0.777
			C121.487,237.362,122.46,235.413,121.614,234.426z"/>
		<path style="fill:#72464E;" d="M293.327,369.834c-0.511-2.103-2.63-3.393-4.733-2.882c-2.103,0.511-3.393,2.63-2.882,4.733
			c0.511,2.103,2.63,3.393,4.733,2.882C292.548,374.056,293.838,371.937,293.327,369.834z"/>
		<path style="fill:#72464E;" d="M316.316,369.834c-0.511-2.103-2.63-3.393-4.733-2.882c-2.103,0.511-3.393,2.63-2.882,4.733
			c0.511,2.103,2.63,3.393,4.733,2.882C315.537,374.056,316.828,371.937,316.316,369.834z"/>
		<path style="fill:#72464E;" d="M339.48,369.834c-0.511-2.103-2.63-3.393-4.733-2.882c-2.103,0.511-3.393,2.63-2.882,4.733
			c0.511,2.103,2.63,3.393,4.733,2.882C338.701,374.056,339.991,371.937,339.48,369.834z"/>
		<polygon style="fill:#72464E;" points="315.061,360.571 312.046,360.571 293.264,365.447 333.843,365.447 		"/>
		<polygon style="fill:#72464E;" points="318.521,352.503 310.338,352.503 309.233,362.313 317.415,362.313 		"/>
		<polygon style="fill:#EFE0BB;" points="330.76,295.495 328.935,294.897 327.769,297.416 329.402,297.938 		"/>
		<polygon style="fill:#FCF2D6;" points="332.059,298.729 325.309,296.044 320.041,304.68 328.018,307.296 		"/>
		<polygon style="fill:#EFE0BB;" points="330.753,299.135 328.184,298.113 326.179,301.401 329.215,302.396 		"/>
		<polygon style="fill:#EFE0BB;" points="328.212,303.036 323.078,301.057 322.325,302.054 327.9,303.947 		"/>
		<polygon style="fill:#EFE0BB;" points="326.124,304.019 322.174,302.598 321.476,303.621 325.789,304.919 		"/>
		<path style="fill:#A6BC4A;" d="M112.859,240.521c-0.342-0.932-1.695-1.293-3.023-0.806c-1.328,0.487-2.127,1.637-1.785,2.569
			c0.342,0.932,1.695,1.293,3.023,0.806C112.402,242.604,113.201,241.454,112.859,240.521z"/>
		<g>
			<path style="fill:#5A4949;" d="M328.433,193.732c0.402-0.735,1.079-1.167,1.512-0.965c0.433,0.202,0.458,0.962,0.056,1.697
				c-0.402,0.735-1.079,1.167-1.513,0.964C328.056,195.226,328.03,194.467,328.433,193.732z"/>
			<path style="fill:#754336;" d="M328.513,191.352l3.133,0.053c0.263,0.004,0.479,0.228,0.482,0.5l0.012,1.025
				c0.003,0.272-0.208,0.488-0.472,0.484l-3.133-0.053c-0.263-0.004-0.479-0.228-0.482-0.5l-0.011-1.025
				C328.038,191.564,328.249,191.347,328.513,191.352z"/>
			<path style="fill:#5A4949;" d="M324.211,191.301c0.425-0.723,1.115-1.133,1.54-0.916c0.425,0.217,0.425,0.979,0,1.702
				c-0.425,0.723-1.115,1.133-1.54,0.916C323.785,192.786,323.785,192.024,324.211,191.301z"/>
			<path style="fill:#754336;" d="M326.318,187.807l1.482,2.504c0.125,0.211,0.033,0.489-0.205,0.621l-0.896,0.5
				c-0.238,0.133-0.532,0.07-0.656-0.141l-1.482-2.504c-0.125-0.21-0.033-0.489,0.205-0.621l0.896-0.5
				C325.9,187.533,326.194,187.596,326.318,187.807z"/>
			<path style="fill:#D27558;" d="M326.126,193.269c-2.079,1.239-3.19,2.166-2.894,2.961c0.185,0.497,0.804,0.787,1.346,0.953
				l-0.016,0.04c0,0-1.886-0.249-2.262-1.051C321.928,195.378,323.428,194.5,326.126,193.269z"/>
			<path style="fill:#332B2B;" d="M321.295,198.997c1.922-1.47,5.593,0.043,6.243,0.65c0.65,0.607-0.824,4.162-2.255,4.466
				C325.284,204.113,320.558,199.561,321.295,198.997z"/>
			<path style="fill:#FFFBF0;" d="M321.588,199.201c1.632-1.33,4.867-0.113,5.449,0.397c0.582,0.51-0.604,3.643-1.841,3.946
				C325.196,203.544,320.962,199.711,321.588,199.201z"/>
			<polygon style="fill:#332B2B;" points="326.281,203.217 327.119,201.917 327.495,200.153 326.946,201.271 323.969,200.211 
				326.397,201.888 			"/>
			<path style="fill:#D27558;" d="M322.796,202.386c-0.46-0.371-0.925-0.428-1.04-0.129c-0.114,0.299,0.287,0.483,0.747,0.854
				c0.46,0.37,0.804,0.788,0.918,0.488C323.536,203.3,323.256,202.757,322.796,202.386z"/>
		</g>
	</g>
	<g>
		<polygon style="fill:#E84B78;" points="303.887,41.292 194.337,55.463 203.785,106.526 316.259,89.43 		"/>
		<polygon style="fill:#E84B78;" points="255.748,86.886 255.748,126.096 268.345,84.481 		"/>
		<g>
			<path style="fill:#FCF2D6;" d="M210.661,78.731c-0.415-2.592-0.623-2.8-0.947-4.819c-0.324-2.018-0.576-4.013-0.693-4.959
				c-0.101-0.64,0.151-0.784,0.52-0.843c0.168-0.026,0.341-0.02,0.511-0.047c0.504-0.081,1.127-0.077,2.639-0.32
				c1.447-0.232,3.687-0.902,4.996-1.113c1.381-0.222,3.118-0.364,3.757-0.467c0.639-0.102,0.754,0.192,0.857,0.83
				c0.114,0.705,0.378,1.492,0.544,2.535c0.049,0.301,0.109,0.674,0.1,1.262c0.032,0.409-0.156,0.543-0.39,0.58
				c-0.234,0.037-0.558-0.048-0.767-0.051c-0.521-0.018-1.529,0.144-2.942,0.37c-0.842,0.135-1.727,0.207-2.569,0.343
				c-0.303,0.048-0.604,0.096-0.903,0.178c-0.499,0.116-1.132,0.252-1.771,0.355c-0.808,0.13-1.587,0.221-1.789,0.253
				c-0.369,0.06-0.31,0.221-0.229,0.725c0.088,0.539,0.229,2.069,0.418,3.245l0.32,1.986c0.059,0.369,0.112,0.707,0.205,1.071
				c0.275-0.01,0.577-0.059,0.915-0.113c0.577-0.059,1.417-0.193,2.361-0.345c1.243-0.2,2.735-0.577,3.542-0.708
				c0.809-0.129,1.295-0.103,1.664-0.164c0.371-0.058,0.465,0.098,0.504,0.334c0.037,0.234-0.003,0.416,0.1,1.053
				c0.102,0.639,0.184,0.937,0.318,1.777c0.072,0.438-0.014,0.556-0.215,0.588c-0.135,0.022-0.387-0.042-0.621-0.004
				c-0.537,0.087-1.257,0.132-3.376,0.472c-2.153,0.346-3.556,0.848-3.927,0.907c-0.235,0.037-0.368,0.059-0.441,0.037
				c-0.101,0.016-0.168,0.027-0.208-0.001l0.541,3.363c0.101-0.017,0.236-0.038,0.366-0.093c0.234-0.038,0.565-0.125,0.936-0.185
				c0.774-0.124,2.45-0.428,3.964-0.671c1.109-0.177,2.903-0.398,4.249-0.614c0.605-0.097,1.104-0.212,1.407-0.26
				c0.572-0.092,0.721,0.193,0.786,0.597c0.033,0.203,0.044,0.478,0.075,0.677c0.109,0.675,0.187,1.387,0.345,2.362
				c0.15,0.941-0.42,0.829-1.496,1.001c-1.109,0.178-4.349,0.629-5.93,0.883c-1.615,0.259-4.856,0.917-5.294,0.987
				c-0.067,0.01-0.13,0.056-0.196,0.067c-0.303,0.048-0.312-0.227-0.361-0.529c-0.093-0.364-0.17-0.837-0.234-1.239
				c-0.065-0.404-0.185-0.729-0.299-1.436l-0.74-4.608C210.939,81.965,211.078,81.321,210.661,78.731z"/>
			<path style="fill:#FCF2D6;" d="M245.067,85.59c0.422,0.486,0.6,0.733,0.627,0.899c0.038,0.238-0.27,0.251-0.607,0.305
				c-0.537,0.087-3.211,0.62-3.783,0.712c-0.572,0.092-0.775-0.739-1.836-2.189c-0.567-0.737-1.85-2.498-3.05-4.168l-2.25-3.055
				c0.354,1.564,0.654,2.999,0.966,4.297c0.457,2.202,0.977,4.57,1.136,4.923c0.056,0.13,0.072,0.231,0.088,0.332
				c0.087,0.537-0.227,0.726-0.884,0.729c-0.822,0.026-3.421,0.826-4.296,0.967c-0.639,0.102-0.782-0.15-0.857-0.623
				c-0.033-0.201-0.042-0.477-0.091-0.78c-0.124-0.774-1.123-5.271-1.561-7.996c-0.135-0.84-0.21-1.519-0.196-1.865
				c0.026-0.696-0.254-2.653-0.595-4.772c-0.394-2.455-0.887-5.102-1.122-6.133c-0.077-0.263-0.121-0.533-0.152-0.736
				c-0.189-1.176,0.234-1.106,0.572-1.16c0.369-0.06,2.401-0.731,4.385-1.05c5.248-0.843,8.06,1.845,8.687,5.748
				c0.324,2.018-0.229,3.727-0.824,4.963c-0.334,0.71-0.775,1.401-1.267,1.997l3.041,3.895
				C242.797,82.851,244.488,84.994,245.067,85.59z M234.121,73.306c0.467-0.318,0.824-0.892,0.656-1.935
				c-0.228-1.412-0.847-1.83-1.384-1.743c-0.236,0.038-0.455,0.175-0.597,0.37c-0.084,0.117,0.269,1.026,0.303,1.885
				c-0.03,0.453-0.005,0.829,0.054,1.198c0.016,0.101,0,0.208,0.016,0.308c0.016,0.103,0.061,0.164,0.077,0.264
				C233.582,73.599,233.874,73.483,234.121,73.306z"/>
			<path style="fill:#FCF2D6;" d="M248.52,74.616c0.373,1.458,1.741,9.761,1.876,10.601c0.137,0.842-0.773,0.989-1.209,1.059
				c-0.404,0.065-0.462-0.513-0.555-0.877c-0.079-0.264-0.208-0.864-0.322-1.571c-0.054-0.336-0.109-0.672-0.128-1.013
				c-0.086-0.745-1.291-9.111-2.156-14.492c-0.373-2.32-0.688-4.063-0.824-4.489c-0.077-0.264-0.116-0.5-0.147-0.702
				c-0.114-0.707,0.11-0.812,0.481-0.871c0.436-0.07,3.614-0.478,4.993-0.699c1.414-0.228,6.452-0.656,6.928,2.303
				c0.637,3.969-4.851,5.471-6.531,5.742c-0.269,0.043-0.438,0.071-0.478,0.043c0.352,0.254,11.716,11.508,13.123,12.523
				c0.858,0.62,1.074,0.895,1.108,1.098c0.016,0.101-0.073,0.183-0.131,0.262c-0.178,0.167-0.84,0.342-1.48,0.444
				c-1.412,0.227-1.344,0.01-1.794-0.641c-0.355-0.496-4.111-3.894-6.099-5.957c-0.996-1.048-2.774-2.66-4.273-4.042l-2.784-2.52
				l0.082,1.369C248.222,72.972,248.373,73.914,248.52,74.616z M249.353,68.409c0.936-0.185,2.102-0.442,2.984-0.756
				c1.734-0.589,3.01-1.241,2.772-2.723c-0.233-1.446-3.138-1.704-4.484-1.488c-0.847,0.103-1.687,0.238-2.361,0.347l-1.143,0.184
				l0.555,4.74C248.248,68.62,248.786,68.534,249.353,68.409z"/>
			<path style="fill:#FCF2D6;" d="M283.571,68.087c0.367,2.289,1.344,12.448-7.705,13.902c-4.541,0.73-7.28-2.142-8.982-5.216
				c-0.98-1.81-1.729-3.898-2.226-6.337c-0.971-6.055,2.453-12.23,6.86-12.937c1.851-0.297,3.454-0.625,4.756-0.039
				C281.228,59.736,283.284,66.304,283.571,68.087z M280.78,68.536c-0.882-5.483-4.233-9.809-8.237-9.166
				c-1.244,0.199-2.203,0.249-2.977,1.444c-0.819,1.131-3.544,4.365-2.695,9.647c0.847,5.28,3.512,10.477,8.524,9.672
				C280.44,79.323,281.665,74.054,280.78,68.536z"/>
			<path style="fill:#FCF2D6;" d="M303.851,76.148c0.424,0.485,0.6,0.732,0.627,0.899c0.038,0.238-0.269,0.252-0.607,0.306
				c-0.537,0.087-3.213,0.62-3.783,0.712c-0.572,0.092-0.775-0.739-1.836-2.19c-0.567-0.736-1.85-2.497-3.052-4.167l-2.249-3.055
				c0.355,1.564,0.655,2.999,0.966,4.297c0.457,2.202,0.977,4.57,1.136,4.923c0.054,0.13,0.072,0.231,0.087,0.332
				c0.086,0.537-0.228,0.726-0.884,0.729c-0.823,0.026-3.421,0.826-4.296,0.967c-0.639,0.102-0.784-0.151-0.859-0.624
				c-0.032-0.201-0.04-0.476-0.089-0.779c-0.124-0.773-1.124-5.271-1.561-7.995c-0.135-0.84-0.21-1.519-0.196-1.866
				c0.026-0.696-0.254-2.652-0.595-4.771c-0.394-2.455-0.887-5.102-1.122-6.133c-0.079-0.264-0.121-0.534-0.154-0.737
				c-0.189-1.176,0.236-1.106,0.574-1.159c0.369-0.059,2.401-0.731,4.384-1.05c5.25-0.843,8.062,1.845,8.689,5.748
				c0.324,2.018-0.229,3.727-0.824,4.963c-0.334,0.709-0.775,1.401-1.267,1.997l3.041,3.895
				C301.582,73.408,303.272,75.552,303.851,76.148z M292.905,63.863c0.467-0.318,0.824-0.892,0.656-1.935
				c-0.228-1.412-0.847-1.83-1.384-1.744c-0.236,0.038-0.455,0.176-0.597,0.371c-0.084,0.117,0.269,1.026,0.303,1.885
				c-0.03,0.453-0.005,0.828,0.054,1.198c0.016,0.102,0,0.208,0.016,0.308c0.016,0.103,0.061,0.165,0.077,0.264
				C292.366,64.156,292.659,64.041,292.905,63.863z"/>
		</g>
	</g>
	<path style="fill:#F7CB6B;" d="M481.956,374.905H55.633c0,0,99.981,13.874,218.185,13.874S481.956,374.905,481.956,374.905z"/>
</g>
</svg>
