<?xml version="1.0" encoding="utf-8"?>
<!-- Generator: Adobe Illustrator 27.5.0, SVG Export Plug-In . SVG Version: 6.00 Build 0)  -->
<svg version="1.1" xmlns="http://www.w3.org/2000/svg" xmlns:xlink="http://www.w3.org/1999/xlink" x="0px" y="0px"
	 viewBox="0 0 500 500" style="enable-background:new 0 0 500 500;" xml:space="preserve">
<g id="BACKGROUND">
	<rect id="XMLID_2_" y="0" style="fill:#FF9999;" width="500" height="500"/>
</g>
<g id="OBJECTS">
	<path id="XMLID_262_" style="fill:#FFFFFF;" d="M379.731,340.477l1.007,6.305c0.204,1.276,1.438,2.12,2.701,1.846l0,0
		c1.15-0.249,1.914-1.342,1.754-2.508l-1.064-7.753L379.731,340.477z"/>
	<g id="XMLID_232_">
		<ellipse id="XMLID_231_" style="opacity:0.39;fill:#FF9999;" cx="250.324" cy="451.371" rx="206.62" ry="8.811"/>
		<g id="XMLID_303_">
			
				<text id="XMLID_1_" transform="matrix(1 0 0 1 48.0445 412.1446)" style="fill:#FFFFFF; font-family:'Baloo'; font-size:178.1521px; letter-spacing:-7;">QUIZ</text>
			<g id="XMLID_180_">
				<g id="XMLID_104_">
					<polyline id="XMLID_213_" style="fill:#F6F6F6;" points="324.941,82.256 316.725,82.256 316.725,91.272 325.664,82.293 					
						"/>
				</g>
				<g id="XMLID_3_">
					<path id="XMLID_208_" style="fill:#F6F6F6;" d="M308.766,293.704H168.142V92.855c0-5.854,4.745-10.599,10.599-10.599h137.984
						v203.49C316.725,290.141,313.162,293.704,308.766,293.704z"/>
				</g>
				<g id="XMLID_100_">
					<path id="XMLID_205_" style="fill:#DADADA;" d="M333.157,119.439h-16.432V90.472c0-4.537,3.678-8.216,8.216-8.216l0,0
						c4.537,0,8.216,3.678,8.216,8.216V119.439z"/>
				</g>
				<g id="XMLID_106_">
					<path id="XMLID_194_" style="fill:#FFFFFF;" d="M159.926,256.521h16.432v28.967c0,4.538-3.678,8.216-8.216,8.216l0,0
						c-4.537,0-8.216-3.678-8.216-8.216V256.521z"/>
				</g>
				<g id="XMLID_103_">
					<rect id="XMLID_289_" x="168.142" y="256.521" style="fill:#FFFFFF;" width="140.367" height="37.183"/>
				</g>
				<g id="XMLID_105_">
					<path id="XMLID_152_" style="fill:#DADADA;" d="M300.293,256.521h16.432v28.967c0,4.538-3.678,8.216-8.216,8.216l0,0
						c-4.538,0-8.216-3.678-8.216-8.216V256.521z"/>
				</g>
				<g id="XMLID_107_">
					<path id="XMLID_191_" style="fill:#E6332A;" d="M282.673,114.681h-6.95c-1.507,0-2.733-1.226-2.733-2.733v-6.95
						c0-1.507,1.227-2.733,2.733-2.733h6.95c1.507,0,2.733,1.226,2.733,2.733v6.95C285.407,113.455,284.18,114.681,282.673,114.681z
						 M275.723,103.265c-0.956,0-1.733,0.777-1.733,1.733v6.95c0,0.956,0.777,1.733,1.733,1.733h6.95
						c0.956,0,1.733-0.778,1.733-1.733v-6.95c0-0.955-0.777-1.733-1.733-1.733H275.723z"/>
				</g>
				<g id="XMLID_121_">
					<path id="XMLID_179_" style="fill:#E6332A;" d="M282.673,136.681h-6.95c-1.507,0-2.733-1.226-2.733-2.733v-6.95
						c0-1.507,1.227-2.733,2.733-2.733h6.95c1.507,0,2.733,1.226,2.733,2.733v6.95C285.407,135.455,284.18,136.681,282.673,136.681z
						 M275.723,125.265c-0.956,0-1.733,0.777-1.733,1.733v6.95c0,0.956,0.777,1.733,1.733,1.733h6.95
						c0.956,0,1.733-0.778,1.733-1.733v-6.95c0-0.955-0.777-1.733-1.733-1.733H275.723z"/>
				</g>
				<g id="XMLID_122_">
					<path id="XMLID_172_" style="fill:#E6332A;" d="M282.673,158.681h-6.95c-1.507,0-2.733-1.226-2.733-2.733v-6.95
						c0-1.507,1.227-2.733,2.733-2.733h6.95c1.507,0,2.733,1.226,2.733,2.733v6.95C285.407,157.455,284.18,158.681,282.673,158.681z
						 M275.723,147.264c-0.956,0-1.733,0.777-1.733,1.733v6.95c0,0.956,0.777,1.733,1.733,1.733h6.95
						c0.956,0,1.733-0.778,1.733-1.733v-6.95c0-0.956-0.777-1.733-1.733-1.733H275.723z"/>
				</g>
				<g id="XMLID_123_">
					<path id="XMLID_168_" style="fill:#E6332A;" d="M282.673,180.681h-6.95c-1.507,0-2.733-1.226-2.733-2.733v-6.95
						c0-1.507,1.227-2.733,2.733-2.733h6.95c1.507,0,2.733,1.226,2.733,2.733v6.95C285.407,179.455,284.18,180.681,282.673,180.681z
						 M275.723,169.264c-0.956,0-1.733,0.777-1.733,1.733v6.95c0,0.956,0.777,1.733,1.733,1.733h6.95
						c0.956,0,1.733-0.778,1.733-1.733v-6.95c0-0.956-0.777-1.733-1.733-1.733H275.723z"/>
				</g>
				<g id="XMLID_124_">
					<path id="XMLID_162_" style="fill:#E6332A;" d="M282.673,202.681h-6.95c-1.507,0-2.733-1.226-2.733-2.733v-6.95
						c0-1.507,1.227-2.733,2.733-2.733h6.95c1.507,0,2.733,1.226,2.733,2.733v6.95C285.407,201.455,284.18,202.681,282.673,202.681z
						 M275.723,191.264c-0.956,0-1.733,0.777-1.733,1.733v6.95c0,0.956,0.777,1.733,1.733,1.733h6.95
						c0.956,0,1.733-0.778,1.733-1.733v-6.95c0-0.956-0.777-1.733-1.733-1.733H275.723z"/>
				</g>
				<g id="XMLID_125_">
					<path id="XMLID_157_" style="fill:#E6332A;" d="M282.673,224.681h-6.95c-1.507,0-2.733-1.226-2.733-2.733v-6.95
						c0-1.507,1.227-2.733,2.733-2.733h6.95c1.507,0,2.733,1.226,2.733,2.733v6.95C285.407,223.455,284.18,224.681,282.673,224.681z
						 M275.723,213.264c-0.956,0-1.733,0.777-1.733,1.733v6.95c0,0.956,0.777,1.733,1.733,1.733h6.95
						c0.956,0,1.733-0.778,1.733-1.733v-6.95c0-0.956-0.777-1.733-1.733-1.733H275.723z"/>
				</g>
				<g id="XMLID_131_">
					<path id="XMLID_153_" style="fill:#E6332A;" d="M282.673,246.681h-6.95c-1.507,0-2.733-1.227-2.733-2.733v-6.95
						c0-1.507,1.227-2.733,2.733-2.733h6.95c1.507,0,2.733,1.226,2.733,2.733v6.95C285.407,245.454,284.18,246.681,282.673,246.681z
						 M275.723,235.264c-0.956,0-1.733,0.777-1.733,1.733v6.95c0,0.956,0.777,1.733,1.733,1.733h6.95
						c0.956,0,1.733-0.777,1.733-1.733v-6.95c0-0.956-0.777-1.733-1.733-1.733H275.723z"/>
				</g>
				<g id="XMLID_119_">
					<rect id="XMLID_151_" x="186.49" y="102.764" style="fill:#DADADA;" width="76.667" height="5.708"/>
				</g>
				<g id="XMLID_142_">
					<rect id="XMLID_149_" x="186.49" y="125.098" style="fill:#DADADA;" width="76.667" height="5.708"/>
				</g>
				<g id="XMLID_145_">
					<rect id="XMLID_148_" x="186.49" y="134.348" style="fill:#DADADA;" width="31" height="5.708"/>
				</g>
				<g id="XMLID_154_">
					<rect id="XMLID_147_" x="186.49" y="149.098" style="fill:#DADADA;" width="76.667" height="5.708"/>
				</g>
				<g id="XMLID_150_">
					<rect id="XMLID_144_" x="186.49" y="167.889" style="fill:#DADADA;" width="76.667" height="5.708"/>
				</g>
				<g id="XMLID_159_">
					<rect id="XMLID_143_" x="186.49" y="190.764" style="fill:#DADADA;" width="76.667" height="5.708"/>
				</g>
				<g id="XMLID_163_">
					<rect id="XMLID_136_" x="186.49" y="199.327" style="fill:#DADADA;" width="76.667" height="5.708"/>
				</g>
				<g id="XMLID_169_">
					<rect id="XMLID_135_" x="186.49" y="212.764" style="fill:#DADADA;" width="76.667" height="5.708"/>
				</g>
				<g id="XMLID_166_">
					<rect id="XMLID_134_" x="186.49" y="221.327" style="fill:#DADADA;" width="41.167" height="5.708"/>
				</g>
				<g id="XMLID_173_">
					<rect id="XMLID_133_" x="186.49" y="233.337" style="fill:#DADADA;" width="76.667" height="5.708"/>
				</g>
				<g id="XMLID_167_">
					<rect id="XMLID_132_" x="186.49" y="241.9" style="fill:#DADADA;" width="41.167" height="5.708"/>
				</g>
				<g id="XMLID_146_">
					<rect id="XMLID_126_" x="186.49" y="177.139" style="fill:#DADADA;" width="31" height="5.708"/>
				</g>
				<g id="XMLID_176_">
					<path id="XMLID_130_" style="fill:#575756;" d="M279.282,112.038c-0.042,0-0.085-0.002-0.128-0.005
						c-0.506-0.043-0.956-0.34-1.195-0.789c-0.541-1.014-1.223-1.942-2.027-2.759c-0.581-0.59-0.573-1.54,0.017-2.121
						c0.591-0.581,1.54-0.574,2.122,0.017c0.484,0.493,0.934,1.018,1.346,1.572c2.555-3.166,5.294-6.217,8.163-9.09
						c0.586-0.587,1.535-0.587,2.121-0.002c0.587,0.585,0.587,1.535,0.002,2.121c-3.281,3.287-6.389,6.812-9.235,10.477
						C280.181,111.826,279.742,112.038,279.282,112.038z"/>
				</g>
				<g id="XMLID_184_">
					<path id="XMLID_129_" style="fill:#575756;" d="M279.282,134.76c-0.042,0-0.085-0.002-0.128-0.005
						c-0.506-0.044-0.956-0.34-1.195-0.789c-0.541-1.014-1.223-1.942-2.027-2.759c-0.581-0.59-0.573-1.54,0.017-2.121
						c0.591-0.581,1.54-0.573,2.122,0.017c0.484,0.493,0.934,1.018,1.346,1.572c2.555-3.165,5.293-6.215,8.163-9.089
						c0.586-0.587,1.535-0.587,2.121-0.002c0.587,0.585,0.587,1.535,0.002,2.121c-3.282,3.288-6.39,6.812-9.235,10.476
						C280.181,134.547,279.742,134.76,279.282,134.76z"/>
				</g>
				<g id="XMLID_187_">
					<path id="XMLID_128_" style="fill:#575756;" d="M279.282,200.096c-0.042,0-0.085-0.002-0.128-0.005
						c-0.506-0.043-0.956-0.34-1.195-0.789c-0.541-1.014-1.223-1.942-2.026-2.758c-0.582-0.59-0.574-1.54,0.016-2.121
						c0.591-0.582,1.541-0.573,2.121,0.016c0.485,0.493,0.935,1.018,1.347,1.572c2.555-3.165,5.293-6.215,8.163-9.089
						c0.586-0.587,1.535-0.587,2.121-0.002c0.587,0.586,0.587,1.535,0.002,2.121c-3.282,3.288-6.39,6.813-9.235,10.476
						C280.181,199.883,279.742,200.096,279.282,200.096z"/>
				</g>
				<g id="XMLID_188_">
					<path id="XMLID_127_" style="fill:#575756;" d="M279.282,242.999c-0.042,0-0.085-0.002-0.128-0.005
						c-0.506-0.044-0.956-0.34-1.195-0.789c-0.541-1.014-1.223-1.942-2.027-2.759c-0.581-0.59-0.573-1.54,0.017-2.121
						c0.591-0.58,1.54-0.574,2.122,0.017c0.484,0.493,0.934,1.018,1.346,1.572c2.555-3.166,5.294-6.217,8.163-9.09
						c0.586-0.587,1.535-0.587,2.121-0.002c0.587,0.585,0.587,1.535,0.002,2.121c-3.281,3.287-6.389,6.811-9.235,10.477
						C280.181,242.787,279.742,242.999,279.282,242.999z"/>
				</g>
			</g>
			<g id="XMLID_302_">
				<path id="XMLID_264_" d="M340.359,376.918l1.212,5.043c0,0,1.503,7.612,4.509,9.018c3.006,1.406,1.503-9.988,1.261-10.618
					c-0.242-0.63-1.104-7.612-1.765-8.626c-0.661-1.014-0.952-0.413-4.491,0.688C341.085,372.423,339.573,373.647,340.359,376.918z"
					/>
				<path id="XMLID_255_" d="M372.404,329.061c0,0-4.062,1.457-4.499,4.511c-0.436,3.055,18.328,11.2,18.328,11.2
					s0.873-0.036,0-1.164l-6.546-7.709c0,0-2.428-3.855-4.396-4.582C373.651,330.711,372.404,329.061,372.404,329.061z"/>
				<path id="XMLID_253_" style="fill:#FFFFFF;" d="M340.359,368.263l1.08,5.219l0.749,0.466c1.113,0.693,2.581,0.286,3.177-0.882
					l0,0v-5.472L340.359,368.263z"/>
				<g id="XMLID_301_">
					<circle id="XMLID_300_" style="fill:#1D1D1B;" cx="320.797" cy="187.158" r="4.063"/>
					<circle id="XMLID_282_" style="fill:#1D1D1B;" cx="325.15" cy="203.739" r="4.063"/>
					<circle id="XMLID_283_" style="fill:#1D1D1B;" cx="324.483" cy="197.906" r="4.063"/>
					<g id="XMLID_271_">
						<path id="XMLID_273_" style="fill:#FFCB9C;" d="M327.536,226.177c0.266-0.374,0.416-0.584,0.531-0.77
							c0.005-0.009,0.01-0.016,0.016-0.025c0.424,0.047,0.853,0.041,1.275-0.039c0.263-0.057,0.528-0.1,0.795-0.129
							c0.243-0.017,0.37-0.028,0.396-0.033c0.294,0.03,0.616,0.086,0.742,0.1c0.966,0.109,1.918,0.313,2.865,0.528
							c1.107,0.251,5.522,3.203,6.413,2.626l26.308,41.806l-2.248,3.937l-44.54-43.664
							C320.09,230.514,326.685,227.376,327.536,226.177z"/>
					</g>
					<g id="XMLID_7_">
						<path id="XMLID_272_" style="fill:#FFCB9C;" d="M279.239,240.029c-0.32-0.329-0.5-0.513-0.643-0.68
							c-0.007-0.008-0.012-0.014-0.019-0.022c-0.412,0.112-0.836,0.171-1.266,0.157c-0.268-0.016-0.537-0.018-0.806-0.006
							c-0.242,0.021-0.37,0.029-0.397,0.028c-0.286,0.074-0.595,0.179-0.718,0.213c-0.938,0.256-1.848,0.604-2.75,0.961
							c-1.055,0.418-2.139,0.303-3.107-0.13l-22.411,49.056l2.825,3.545l37.314-49.979
							C287.263,243.172,280.264,241.083,279.239,240.029z"/>
					</g>
					<path id="XMLID_259_" style="fill:#FFFFFF;" d="M374.664,324.617l-2.26,4.443c-0.271,1.264,1.495,4.295,2.772,4.496l2.06,0.325
						l2.291-9.642L374.664,324.617z"/>
					<path id="XMLID_246_" style="fill:#1B364F;" d="M393.471,271.951c-7.208-0.289-29.347,0.405-47.032,10.449
						c-12.987,7.376-53.328,5.879-53.328,5.879s-13.794,18.124,10.182,30.219c23.976,12.096,22.464,18.576,25.704,26.135
						c2.562,5.978,8.263,16.664,10.576,22.757c0.648,1.708,2.562,2.559,4.248,1.856l0.049-0.02c1.059-0.442,1.802-1.414,1.948-2.552
						c1.133-8.833,4.26-33.685,4.008-37.051c-0.308-4.104-13.402-21.6-13.402-21.6s27.323-2.16,38.339-10.152
						c0,0,1.106,15.012-0.082,19.656c-0.487,1.906-1.173,4.642-1.814,7.212c2.122,0.917,4.117,2.096,6.129,3.249
						c4.869-7.9,18.567-30.659,20.957-40.484C402.867,275.514,398.898,272.168,393.471,271.951z"/>
					<path id="XMLID_263_" style="opacity:0.39;fill:#274F6D;" d="M319.392,296.759c0,0-2.652,9.38,9.305,19.357
						c11.957,9.977,21.049,17.614,20.145,25.512l-3.026,25.044c0,0-1.77,4.975-5.683,1.666l-7.2-15.333
						c0,0-4.784-9.335-6.429-15.168c0,0-0.863-5.26-12.339-13.167c-11.477-7.908-17.995-7.732-23.258-17.219
						c-5.262-9.487,2.205-19.173,2.205-19.173L319.392,296.759z"/>
					<g id="XMLID_222_">
						<path id="XMLID_225_" style="fill:#662483;" d="M319.891,225.717l5.567,4.885c12.432,10.908,20.419,26.005,22.443,42.42
							l1.003,8.132l-67.994,6.766l3.152-54.812L319.891,225.717z"/>
						<path id="XMLID_223_" style="fill:#662483;" d="M348.904,281.154c0,0-3.901,1.145-11.012,10.591
							c-11.282,14.986-52.843,8.673-56.982-3.825C276.771,275.422,348.904,281.154,348.904,281.154z"/>
					</g>
					<path id="XMLID_266_" style="fill:#662483;" d="M285.395,249.464l-4.485,5.228l-15.515-7.155c0,0,10-22.356,32.167-24.354
						l18.437-0.422l2.968,6.131L285.395,249.464z"/>
					<path id="XMLID_274_" style="fill:#662483;" d="M335.516,246.61l4.878,8.082l14.167-7.155c0,0-7.667-25.03-32.167-24.354
						l-18.436-0.422l-2.968,6.131L335.516,246.61z"/>
					<g id="XMLID_6_">
						
							<rect id="XMLID_270_" x="171.229" y="270.392" transform="matrix(0.9852 -0.1713 0.1713 0.9852 -43.9242 53.9911)" style="fill:#FFF48D;" width="239.17" height="22.122"/>
						<path id="XMLID_269_" style="fill:#FFCC66;" d="M410.523,271.861l30.868-16.588l-34.654-5.208l0,0
							c-1.67,5.637-1.181,11.613,1.379,16.861L410.523,271.861z"/>
						<path id="XMLID_268_" style="fill:#1D1D1B;" d="M432.304,253.908c0,0-1.278,1.986-0.721,3.48
							c0.557,1.494,1.713,2.236,1.713,2.236l8.095-4.35L432.304,253.908z"/>
						
							<rect id="XMLID_267_" x="150.217" y="292.846" transform="matrix(0.9853 -0.1711 0.1711 0.9853 -49.6193 32.151)" style="fill:#1D1D1B;" width="22.95" height="22.122"/>
						
							<rect id="XMLID_258_" x="153.701" y="293.939" transform="matrix(0.9852 -0.1711 0.1711 0.9852 -49.9036 31.0931)" style="fill:#FFED00;" width="3.39" height="22.122"/>
						
							<rect id="XMLID_233_" x="163.594" y="292.221" transform="matrix(0.9852 -0.1711 0.1711 0.9852 -49.4636 32.7608)" style="fill:#FFED00;" width="3.39" height="22.122"/>
						<path id="XMLID_229_" style="fill:#FF5E5A;" d="M146.089,317.843l6.189-1.075l-3.785-21.795l-6.189,1.075
							c-6.019,1.045-10.05,6.772-9.005,12.79v0C134.344,314.857,140.07,318.888,146.089,317.843z"/>
						<path id="XMLID_52_" style="fill:#1D1D1B;" d="M197.092,302.153l-12.811,2.225c-1.918,0.333-3.76-0.964-4.093-2.882l0,0
							c-0.333-1.918,0.964-3.76,2.882-4.093l12.811-2.225c1.918-0.333,3.76,0.964,4.093,2.882l0,0
							C200.306,299.978,199.01,301.819,197.092,302.153z"/>
					</g>
					<path id="XMLID_276_" style="fill:#FFCB9C;" d="M244.666,302.302c0.37-0.005,0.717,0.019,1.045,0.064
						c0.85-0.828,3.514-3.431,3.768-3.816c0.303-0.458,0.224-1.008-0.568-0.811c-0.792,0.196-4.002,3.398-4.002,3.398
						s2.023-4.187,2.645-5.242c0.622-1.055,0.356-2.709-0.541-1.784c-0.897,0.925-3.376,5.836-3.376,5.836s1.573-5.956,2.133-7.12
						c0.56-1.164-0.368-1.695-1.107-1.417c-0.74,0.279-3.697,9.054-3.697,9.054s0.989-5.56,1.506-7.359
						c0.518-1.799-0.731-2.463-1.411-1.653c-0.604,0.718-2.494,9.122-2.913,11.01C239.583,302.976,243.418,302.321,244.666,302.302z
						"/>
					<path id="XMLID_275_" style="fill:#FFCB9C;" d="M294.561,193.844c0,0-3.563-1.411-4.625,1.771
						c-1.063,3.182-0.25,9.634,5.25,11.345s4.723-4.063,4.723-4.063L294.561,193.844z"/>
					<path id="XMLID_57_" style="fill:#FFCB9C;" d="M371.253,281.23c-0.367,0.052-0.706,0.129-1.023,0.223
						c-0.967-0.687-3.998-2.851-4.308-3.193c-0.369-0.407-0.376-0.961,0.436-0.889c0.813,0.073,4.476,2.744,4.476,2.744
						s-2.642-3.827-3.418-4.775c-0.776-0.948-0.767-2.622,0.261-1.846c1.029,0.776,4.231,5.249,4.231,5.249s-2.468-5.644-3.2-6.708
						c-0.732-1.064,0.103-1.732,0.877-1.57c0.773,0.162,5.042,8.38,5.042,8.38s-1.83-5.343-2.617-7.041
						c-0.788-1.699,0.345-2.546,1.141-1.85c0.707,0.617,3.864,8.631,4.568,10.433C376.378,281.116,372.489,281.057,371.253,281.23z"
						/>
					<path id="XMLID_212_" style="fill:#FFCB9C;" d="M326.724,199.709c0.452,5.719-0.344,11.035-8.416,15.911
						c0,0-3.849,4.93-1.831,10.82c2.019,5.889-14.578,7.444-13.105-1.192c1.473-8.637-3.809-17.762-7.469-22.861
						c-3.66-5.099-3.8-16.667,2.637-21.215c2.53-1.787,9.352-1.94,13.991-0.321C320.402,183.599,326.067,191.399,326.724,199.709z"
						/>
					<path id="XMLID_17_" style="fill:none;stroke:#1D1D1B;stroke-miterlimit:10;" d="M316.99,191.923
						c0.039,3.283,2.732,5.913,6.015,5.874c3.283-0.039,5.913-2.732,5.874-6.015c-0.039-3.283-2.732-5.913-6.015-5.874
						C319.582,185.947,316.952,188.639,316.99,191.923z"/>
					<path id="XMLID_18_" style="fill:none;stroke:#1D1D1B;stroke-miterlimit:10;" d="M302.05,192.099
						c0.039,3.283,2.732,5.913,6.015,5.874c3.283-0.039,5.913-2.732,5.874-6.015c-0.039-3.283-2.732-5.913-6.015-5.874
						C304.641,186.123,302.011,188.816,302.05,192.099z"/>
					<polygon id="XMLID_230_" style="fill:#FF6252;" points="315.53,187.158 320.006,198.76 313.709,198.835 					"/>
					
						<line id="XMLID_28_" style="fill:none;stroke:#1D1D1B;stroke-miterlimit:10;" x1="318.176" y1="188.299" x2="312.672" y2="188.364"/>
					<path id="XMLID_32_" d="M319.415,191.939c0.168,0.643,0.666,1.069,1.113,0.952c0.446-0.117,0.672-0.733,0.504-1.375
						c-0.168-0.643-0.666-1.069-1.113-0.952C319.472,190.68,319.247,191.296,319.415,191.939z"/>
					<path id="XMLID_33_" d="M309.229,192.445c0.168,0.643,0.666,1.069,1.113,0.952c0.446-0.117,0.672-0.733,0.504-1.375
						c-0.168-0.643-0.666-1.069-1.113-0.952C309.286,191.186,309.061,191.802,309.229,192.445z"/>
					<circle id="XMLID_5_" style="fill:#1D1D1B;" cx="300.249" cy="202.897" r="4.063"/>
					<circle id="XMLID_294_" style="fill:#1D1D1B;" cx="297.439" cy="199.677" r="4.063"/>
					<circle id="XMLID_298_" style="fill:#1D1D1B;" cx="296.186" cy="193.844" r="4.062"/>
					<circle id="XMLID_299_" style="fill:#1D1D1B;" cx="316.734" cy="183.095" r="4.063"/>
					<circle id="XMLID_277_" style="fill:#1D1D1B;" cx="303.249" cy="208.147" r="4.063"/>
					<circle id="XMLID_278_" style="fill:#1D1D1B;" cx="309.173" cy="212.897" r="4.063"/>
					<circle id="XMLID_279_" style="fill:#1D1D1B;" cx="315.742" cy="215.564" r="4.063"/>
					<circle id="XMLID_280_" style="fill:#1D1D1B;" cx="322.761" cy="213.832" r="4.063"/>
					<circle id="XMLID_281_" style="fill:#1D1D1B;" cx="325.15" cy="209.573" r="4.063"/>
					<circle id="XMLID_285_" style="fill:#1D1D1B;" cx="325.279" cy="201.914" r="4.063"/>
					<circle id="XMLID_286_" style="fill:#1D1D1B;" cx="320.006" cy="206.96" r="4.063"/>
					<circle id="XMLID_287_" style="fill:#1D1D1B;" cx="315.742" cy="211.501" r="4.063"/>
					<circle id="XMLID_288_" style="fill:#1D1D1B;" cx="308.147" cy="208.835" r="4.063"/>
					<circle id="XMLID_290_" style="fill:#1D1D1B;" cx="305.111" cy="203.376" r="4.063"/>
					<circle id="XMLID_291_" style="fill:#1D1D1B;" cx="312.672" cy="204.085" r="4.063"/>
					<circle id="XMLID_292_" style="fill:#1D1D1B;" cx="319.359" cy="204.085" r="4.063"/>
					<circle id="XMLID_293_" style="fill:#1D1D1B;" cx="313.236" cy="208.835" r="4.063"/>
					<g id="XMLID_337_">
						<g id="XMLID_341_">
							<path id="XMLID_343_" style="fill:#FFFFFF;" d="M317.343,203.629c0,0,1.64-0.898,3.025-0.871
								c1.385,0.027,2.716,0.563,2.948,2.312c0.232,1.749-1.512,2.995-3.62,4.002c-1.242,0.594-5.41,1.194-7.628,0.049
								c-2.219-1.145-3.373-2.039-3.827-3.574c-0.453-1.534,0.796-3.048,2.008-3.456c1.212-0.408,2.435,0.216,3,0.692
								C313.814,203.258,315.193,204.414,317.343,203.629z"/>
						</g>
					</g>
					<path id="XMLID_296_" style="fill:#432918;" d="M292.268,187.005l-0.22-0.52c-2.833-6.692,0.202-14.421,6.832-17.397h0
						c6.733-3.022,14.641-0.012,17.661,6.722l0.64,1.428L292.268,187.005z"/>
					<path id="XMLID_295_" style="fill:#683C11;" d="M292.667,192.724l26.663-10.089c1.728-0.654,2.827-2.358,2.708-4.202
						l-0.061-1.884c-0.107-1.672-1.835-2.736-3.376-2.078l-31.006,12.291c-1.701,0.726-1.998,3.012-0.539,4.149l1.538,1.198
						C289.752,193.01,291.295,193.243,292.667,192.724z"/>
					<polygon id="XMLID_297_" style="fill:#FFFFFF;" points="290.995,181.618 314.385,172.451 315.424,173.802 290.987,183.635 
											"/>
				</g>
			</g>
		</g>
	</g>
	<path id="XMLID_304_" style="fill:#2FAC66;" d="M439.845,452.164c0,0-1.633-3.38-6.108-2.943c-4.475,0.437-3.304-3.599-8.317-4.253
		c-5.013-0.655-5.919,0.827-12.016-4.294c-6.097-5.121-11.161,4.025-15.697,0.231c-4.536-3.794-7.785-9.905-15.468-7.537
		c-7.683,2.368-4.446,8.416-8.997,10.696c-4.551,2.28-9.293,3.019-11.215,8.219L439.845,452.164z"/>
	<path id="XMLID_306_" style="fill:#2FAC66;" d="M197.044,450.497c0,0,1.633-3.38,6.108-2.943c4.475,0.437,3.304-3.599,8.317-4.253
		c5.012-0.655,5.919,0.827,12.016-4.294c6.097-5.121,11.161,4.025,15.697,0.231c4.536-3.794,7.785-9.905,15.468-7.537
		c7.683,2.368,4.446,8.416,8.997,10.696c4.551,2.28,9.293,3.019,11.215,8.219L197.044,450.497z"/>
	<path id="XMLID_317_" style="fill:#FFFFFF;" d="M446.516,114h-80.505c0,0,4.025-9.714,9.057-10.117
		c5.031-0.402,6.44,2.69,8.05,2.389c1.61-0.302,4.227-8.316,10.667-8.718c6.44-0.403,8.956,5.604,12.478,6.711
		c3.522,1.107,10.466,0.487,15.9-8.268c5.434-8.755,15.739,0.648,16,7.392c0.402,10.365,16.202,4.612,16.202,10.612H446.516z"/>
	<path id="XMLID_333_" style="fill:#FFFFFF;" d="M127.516,204H47.011c0,0,4.025-9.714,9.057-10.117
		c5.031-0.402,6.44,2.69,8.05,2.389c1.61-0.302,4.227-8.316,10.667-8.718c6.44-0.403,8.956,5.604,12.478,6.71
		c3.522,1.107,10.466,0.487,15.9-8.268c5.434-8.755,15.739,0.648,16,7.392c0.403,10.365,16.202,4.612,16.202,10.612H127.516z"/>
	<circle id="XMLID_332_" style="fill:#FFF48D;" cx="96.072" cy="68.061" r="43.061"/>
	<g id="XMLID_4_" style="opacity:0.4;">
		<path id="XMLID_14_" style="fill:#FFFFFF;" d="M407.834,180.137c1.118-1.32,1.795-3.025,1.795-4.89
			c0-4.184-3.392-7.576-7.576-7.576c-4.184,0-7.576,3.392-7.576,7.576c0,0.172,0.014,0.34,0.026,0.51l-0.052,0.008
			c0.012-0.172,0.026-0.343,0.026-0.518c0-4.184-3.392-7.576-7.576-7.576c-4.184,0-7.576,3.392-7.576,7.576
			c0,2.258,0.993,4.279,2.56,5.667l12.592,12.777l12.636-12.818c0.233-0.21,0.454-0.432,0.66-0.67l0.063-0.064L407.834,180.137z"/>
		<path id="XMLID_13_" style="fill:#FFFFFF;" d="M177.527,52.815c0.929-1.097,1.491-2.514,1.491-4.064
			c0-3.477-2.819-6.296-6.296-6.296c-3.477,0-6.296,2.819-6.296,6.296c0,0.143,0.012,0.283,0.021,0.424l-0.043,0.007
			c0.01-0.143,0.022-0.285,0.022-0.43c0-3.477-2.819-6.296-6.296-6.296c-3.477,0-6.296,2.819-6.296,6.296
			c0,1.876,0.825,3.556,2.128,4.709l10.464,10.618l10.501-10.652c0.194-0.174,0.378-0.359,0.549-0.556l0.052-0.053L177.527,52.815z"
			/>
		<path id="XMLID_12_" style="fill:#FFFFFF;" d="M101.279,260.547c0.929-1.097,1.491-2.514,1.491-4.064
			c0-3.477-2.819-6.296-6.296-6.296c-3.477,0-6.296,2.819-6.296,6.296c0,0.143,0.012,0.283,0.021,0.424l-0.043,0.007
			c0.01-0.143,0.022-0.285,0.022-0.43c0-3.477-2.819-6.296-6.296-6.296c-3.477,0-6.296,2.819-6.296,6.296
			c0,1.876,0.825,3.556,2.128,4.71l10.464,10.618l10.501-10.651c0.194-0.174,0.378-0.359,0.549-0.556l0.052-0.053L101.279,260.547z"
			/>
		<path id="XMLID_11_" style="fill:#FFFFFF;" d="M451.269,300.26c0.448-0.529,0.719-1.212,0.719-1.96
			c0-1.677-1.359-3.036-3.036-3.036s-3.036,1.359-3.036,3.036c0,0.069,0.006,0.137,0.01,0.204l-0.021,0.003
			c0.005-0.069,0.01-0.137,0.01-0.207c0-1.677-1.359-3.036-3.036-3.036c-1.677,0-3.036,1.359-3.036,3.036
			c0,0.905,0.398,1.715,1.026,2.271l5.046,5.12l5.064-5.136c0.094-0.084,0.182-0.173,0.265-0.268l0.025-0.026L451.269,300.26z"/>
		<path id="XMLID_10_" style="fill:#FFFFFF;" d="M399.829,53.049c0.448-0.529,0.719-1.212,0.719-1.959
			c0-1.677-1.359-3.036-3.036-3.036s-3.036,1.359-3.036,3.036c0,0.069,0.006,0.137,0.01,0.204l-0.021,0.003
			c0.005-0.069,0.01-0.138,0.01-0.208c0-1.677-1.359-3.036-3.036-3.036c-1.677,0-3.036,1.359-3.036,3.036
			c0,0.905,0.398,1.715,1.026,2.271l5.046,5.12l5.064-5.136c0.094-0.084,0.182-0.173,0.265-0.268l0.025-0.026L399.829,53.049z"/>
		<path id="XMLID_9_" style="fill:#FFFFFF;" d="M101.603,150.805c0.448-0.529,0.719-1.212,0.719-1.96
			c0-1.677-1.359-3.036-3.036-3.036s-3.036,1.359-3.036,3.036c0,0.069,0.006,0.137,0.01,0.204l-0.021,0.003
			c0.005-0.069,0.01-0.138,0.01-0.208c0-1.677-1.359-3.036-3.036-3.036c-1.677,0-3.036,1.359-3.036,3.036
			c0,0.905,0.398,1.715,1.026,2.271l5.046,5.12l5.064-5.136c0.093-0.084,0.182-0.173,0.265-0.268l0.025-0.026L101.603,150.805z"/>
		<path id="XMLID_8_" style="fill:#FFFFFF;" d="M165.26,299.308c0.448-0.529,0.719-1.212,0.719-1.96
			c0-1.677-1.359-3.036-3.036-3.036c-1.677,0-3.036,1.359-3.036,3.036c0,0.069,0.006,0.137,0.01,0.204l-0.021,0.003
			c0.005-0.069,0.01-0.137,0.01-0.207c0-1.677-1.359-3.036-3.036-3.036c-1.677,0-3.036,1.359-3.036,3.036
			c0,0.905,0.398,1.715,1.026,2.271l5.046,5.12l5.064-5.136c0.093-0.084,0.182-0.173,0.265-0.268l0.025-0.026L165.26,299.308z"/>
	</g>
</g>
<g id="DESIGNED_BY_FREEPIK">
	<g id="XMLID_11896_">
		<g id="XMLID_11939_">
			<path id="XMLID_11968_" style="fill:#FFFFFF;" d="M186.001,483.597v-0.147c-0.2,0.229-0.397,0.415-0.592,0.558
				c-0.194,0.144-0.405,0.253-0.633,0.327c-0.227,0.076-0.475,0.112-0.744,0.112c-0.357,0-0.686-0.075-0.99-0.226
				c-0.303-0.151-0.566-0.367-0.787-0.646c-0.222-0.28-0.39-0.608-0.504-0.987c-0.114-0.378-0.172-0.787-0.172-1.226
				c0-0.93,0.227-1.656,0.682-2.176c0.454-0.519,1.052-0.779,1.793-0.779c0.429,0,0.79,0.074,1.085,0.22
				c0.294,0.147,0.581,0.374,0.861,0.679v-2.197c0-0.305,0.061-0.536,0.183-0.692c0.121-0.156,0.295-0.234,0.52-0.234
				c0.225,0,0.398,0.072,0.52,0.215c0.122,0.144,0.183,0.355,0.183,0.635v6.563c0,0.284-0.065,0.496-0.196,0.638
				c-0.131,0.141-0.299,0.212-0.507,0.212c-0.203,0-0.372-0.073-0.505-0.22C186.068,484.079,186.001,483.87,186.001,483.597z
				 M183.074,481.411c0,0.404,0.063,0.747,0.188,1.03c0.126,0.284,0.297,0.497,0.515,0.64c0.218,0.144,0.456,0.216,0.714,0.216
				c0.262,0,0.501-0.068,0.717-0.205c0.216-0.136,0.389-0.345,0.518-0.626c0.129-0.282,0.193-0.634,0.193-1.055
				c0-0.396-0.064-0.737-0.193-1.023c-0.129-0.285-0.303-0.503-0.523-0.654c-0.22-0.15-0.461-0.225-0.722-0.225
				c-0.272,0-0.516,0.077-0.73,0.232c-0.214,0.154-0.381,0.375-0.499,0.665C183.133,480.694,183.074,481.03,183.074,481.411z"/>
			<path id="XMLID_11965_" style="fill:#FFFFFF;" d="M192.564,481.788h-2.911c0.004,0.337,0.072,0.636,0.205,0.893
				c0.132,0.258,0.309,0.453,0.529,0.584c0.22,0.131,0.463,0.196,0.728,0.196c0.178,0,0.34-0.02,0.488-0.062
				c0.147-0.043,0.29-0.107,0.428-0.197c0.138-0.089,0.265-0.184,0.381-0.286c0.116-0.102,0.266-0.241,0.452-0.415
				c0.076-0.065,0.186-0.098,0.328-0.098c0.152,0,0.276,0.043,0.37,0.126c0.094,0.084,0.142,0.201,0.142,0.354
				c0,0.135-0.053,0.291-0.158,0.471c-0.106,0.18-0.265,0.353-0.477,0.518c-0.213,0.165-0.479,0.302-0.802,0.411
				c-0.321,0.109-0.691,0.164-1.109,0.164c-0.955,0-1.699-0.273-2.229-0.818c-0.531-0.545-0.796-1.285-0.796-2.218
				c0-0.44,0.065-0.848,0.196-1.224c0.131-0.377,0.322-0.699,0.572-0.968c0.251-0.269,0.56-0.475,0.927-0.619
				c0.367-0.143,0.774-0.215,1.221-0.215c0.581,0,1.08,0.122,1.496,0.368c0.417,0.245,0.729,0.562,0.935,0.951
				c0.207,0.389,0.311,0.786,0.311,1.188c0,0.375-0.107,0.617-0.321,0.729C193.255,481.732,192.953,481.788,192.564,481.788z
				 M189.653,480.943h2.699c-0.036-0.509-0.174-0.89-0.412-1.142c-0.238-0.253-0.551-0.379-0.94-0.379
				c-0.371,0-0.675,0.128-0.913,0.384C189.848,480.062,189.704,480.441,189.653,480.943z"/>
			<path id="XMLID_11962_" style="fill:#FFFFFF;" d="M199.345,482.501c0,0.411-0.1,0.763-0.3,1.055
				c-0.2,0.293-0.495,0.514-0.886,0.665c-0.39,0.151-0.866,0.226-1.425,0.226c-0.534,0-0.992-0.082-1.374-0.246
				c-0.381-0.163-0.663-0.368-0.845-0.613c-0.182-0.246-0.273-0.492-0.273-0.739c0-0.164,0.058-0.303,0.175-0.419
				c0.116-0.116,0.263-0.174,0.442-0.174c0.156,0,0.275,0.038,0.359,0.114c0.084,0.076,0.164,0.184,0.24,0.321
				c0.153,0.266,0.336,0.463,0.548,0.595c0.213,0.131,0.502,0.196,0.87,0.196c0.298,0,0.542-0.067,0.733-0.199
				c0.19-0.133,0.286-0.285,0.286-0.456c0-0.262-0.099-0.452-0.297-0.572c-0.198-0.12-0.524-0.235-0.979-0.344
				c-0.512-0.127-0.929-0.261-1.251-0.401c-0.322-0.139-0.579-0.324-0.771-0.553c-0.193-0.229-0.289-0.511-0.289-0.845
				c0-0.298,0.089-0.579,0.267-0.845c0.178-0.265,0.441-0.476,0.788-0.635c0.346-0.159,0.765-0.238,1.256-0.238
				c0.385,0,0.732,0.04,1.038,0.121c0.308,0.079,0.564,0.187,0.769,0.322c0.205,0.134,0.361,0.283,0.469,0.446
				c0.107,0.164,0.161,0.323,0.161,0.48c0,0.17-0.057,0.311-0.171,0.42c-0.114,0.108-0.277,0.164-0.488,0.164
				c-0.153,0-0.282-0.044-0.39-0.132c-0.107-0.087-0.23-0.217-0.368-0.392c-0.113-0.145-0.245-0.262-0.398-0.349
				c-0.153-0.087-0.36-0.131-0.622-0.131c-0.269,0-0.492,0.057-0.67,0.172c-0.178,0.114-0.267,0.256-0.267,0.427
				c0,0.157,0.065,0.285,0.196,0.384c0.131,0.1,0.307,0.183,0.529,0.248c0.222,0.065,0.526,0.145,0.916,0.239
				c0.461,0.113,0.838,0.248,1.131,0.404c0.292,0.156,0.514,0.341,0.666,0.554C199.27,481.987,199.345,482.229,199.345,482.501z"/>
			<path id="XMLID_11959_" style="fill:#FFFFFF;" d="M200.865,477.705c-0.207,0-0.384-0.064-0.531-0.191
				c-0.147-0.127-0.221-0.307-0.221-0.54c0-0.211,0.075-0.384,0.226-0.521c0.151-0.137,0.326-0.204,0.526-0.204
				c0.193,0,0.363,0.062,0.512,0.185c0.149,0.124,0.224,0.303,0.224,0.54c0,0.229-0.073,0.408-0.219,0.537
				C201.237,477.64,201.065,477.705,200.865,477.705z M201.601,479.242v4.301c0,0.298-0.071,0.524-0.213,0.677
				c-0.142,0.152-0.321,0.229-0.54,0.229c-0.218,0-0.395-0.078-0.532-0.234c-0.137-0.156-0.204-0.38-0.204-0.671v-4.257
				c0-0.294,0.068-0.516,0.204-0.665c0.136-0.149,0.313-0.224,0.532-0.224c0.218,0,0.398,0.075,0.54,0.224
				C201.53,478.769,201.601,478.977,201.601,479.242z"/>
			<path id="XMLID_11955_" style="fill:#FFFFFF;" d="M208.12,479.487v4.322c0,0.494-0.053,0.92-0.159,1.276
				c-0.105,0.355-0.274,0.65-0.507,0.883c-0.233,0.232-0.537,0.405-0.913,0.517c-0.376,0.113-0.844,0.169-1.404,0.169
				c-0.512,0-0.97-0.072-1.374-0.215c-0.403-0.144-0.714-0.329-0.932-0.556c-0.218-0.227-0.327-0.461-0.327-0.701
				c0-0.182,0.062-0.33,0.186-0.444c0.123-0.115,0.273-0.172,0.447-0.172c0.218,0,0.409,0.096,0.573,0.289
				c0.08,0.098,0.162,0.198,0.248,0.298c0.085,0.1,0.18,0.185,0.284,0.257c0.104,0.07,0.228,0.123,0.373,0.158
				c0.146,0.034,0.313,0.052,0.502,0.052c0.385,0,0.684-0.053,0.897-0.161c0.213-0.107,0.362-0.257,0.447-0.45
				c0.085-0.192,0.135-0.398,0.15-0.618c0.015-0.22,0.025-0.573,0.033-1.061c-0.229,0.321-0.493,0.564-0.793,0.731
				c-0.3,0.167-0.657,0.251-1.071,0.251c-0.498,0-0.933-0.127-1.306-0.382c-0.372-0.254-0.659-0.61-0.858-1.068
				c-0.2-0.458-0.3-0.986-0.3-1.586c0-0.447,0.06-0.851,0.182-1.21c0.122-0.36,0.296-0.664,0.521-0.911
				c0.225-0.247,0.485-0.433,0.779-0.559c0.294-0.125,0.618-0.188,0.971-0.188c0.421,0,0.787,0.081,1.096,0.242
				c0.309,0.163,0.596,0.416,0.861,0.761v-0.202c0-0.258,0.063-0.457,0.191-0.6c0.128-0.141,0.291-0.212,0.491-0.212
				c0.287,0,0.478,0.094,0.572,0.281C208.073,478.865,208.12,479.135,208.12,479.487z M203.808,481.373
				c0,0.603,0.131,1.059,0.395,1.368c0.263,0.309,0.604,0.464,1.022,0.464c0.247,0,0.48-0.067,0.7-0.199
				c0.22-0.133,0.399-0.333,0.537-0.6c0.138-0.267,0.207-0.591,0.207-0.973c0-0.606-0.133-1.079-0.401-1.417
				c-0.267-0.338-0.619-0.507-1.055-0.507c-0.425,0-0.766,0.162-1.022,0.485C203.936,480.317,203.808,480.777,203.808,481.373z"/>
			<path id="XMLID_11953_" style="fill:#FFFFFF;" d="M210.485,479.22v0.18c0.261-0.345,0.548-0.599,0.858-0.761
				c0.311-0.161,0.668-0.243,1.071-0.243c0.393,0,0.743,0.086,1.052,0.257c0.309,0.171,0.54,0.413,0.692,0.724
				c0.099,0.182,0.162,0.379,0.191,0.589c0.029,0.211,0.044,0.48,0.044,0.807v2.769c0,0.298-0.068,0.524-0.205,0.677
				c-0.136,0.152-0.313,0.229-0.531,0.229c-0.222,0-0.402-0.078-0.54-0.234c-0.138-0.156-0.207-0.38-0.207-0.671v-2.48
				c0-0.49-0.069-0.866-0.205-1.125c-0.137-0.259-0.408-0.39-0.815-0.39c-0.265,0-0.507,0.079-0.725,0.237
				c-0.218,0.159-0.378,0.376-0.48,0.652c-0.073,0.222-0.109,0.636-0.109,1.243v1.864c0,0.302-0.07,0.529-0.21,0.679
				c-0.14,0.151-0.321,0.226-0.542,0.226c-0.215,0-0.391-0.078-0.529-0.234c-0.138-0.156-0.207-0.38-0.207-0.671v-4.301
				c0-0.284,0.062-0.495,0.185-0.636c0.124-0.14,0.293-0.21,0.507-0.21c0.131,0,0.249,0.031,0.355,0.093
				c0.105,0.062,0.19,0.155,0.253,0.277C210.454,478.891,210.485,479.042,210.485,479.22z"/>
			<path id="XMLID_11949_" style="fill:#FFFFFF;" d="M219.539,481.788h-2.911c0.004,0.337,0.072,0.636,0.205,0.893
				c0.133,0.258,0.309,0.453,0.529,0.584c0.219,0.131,0.462,0.196,0.727,0.196c0.178,0,0.341-0.02,0.488-0.062
				c0.146-0.043,0.289-0.107,0.428-0.197c0.138-0.089,0.265-0.184,0.382-0.286c0.116-0.102,0.266-0.241,0.452-0.415
				c0.076-0.065,0.185-0.098,0.327-0.098c0.153,0,0.276,0.043,0.371,0.126c0.094,0.084,0.142,0.201,0.142,0.354
				c0,0.135-0.052,0.291-0.158,0.471c-0.106,0.18-0.265,0.353-0.477,0.518c-0.213,0.165-0.479,0.302-0.801,0.411
				c-0.322,0.109-0.692,0.164-1.109,0.164c-0.956,0-1.699-0.273-2.23-0.818c-0.53-0.545-0.796-1.285-0.796-2.218
				c0-0.44,0.065-0.848,0.196-1.224c0.131-0.377,0.322-0.699,0.573-0.968c0.251-0.269,0.56-0.475,0.926-0.619
				c0.367-0.143,0.774-0.215,1.221-0.215c0.581,0,1.079,0.122,1.496,0.368c0.417,0.245,0.728,0.562,0.936,0.951
				c0.207,0.389,0.311,0.786,0.311,1.188c0,0.375-0.107,0.617-0.322,0.729C220.23,481.732,219.928,481.788,219.539,481.788z
				 M216.628,480.943h2.698c-0.036-0.509-0.174-0.89-0.411-1.142c-0.238-0.253-0.551-0.379-0.94-0.379
				c-0.371,0-0.676,0.128-0.914,0.384C216.823,480.062,216.679,480.441,216.628,480.943z"/>
			<path id="XMLID_11946_" style="fill:#FFFFFF;" d="M225.605,483.597v-0.147c-0.2,0.229-0.397,0.415-0.591,0.558
				c-0.195,0.144-0.405,0.253-0.632,0.327c-0.227,0.076-0.475,0.112-0.744,0.112c-0.357,0-0.686-0.075-0.99-0.226
				c-0.303-0.151-0.566-0.367-0.788-0.646c-0.222-0.28-0.39-0.608-0.504-0.987c-0.115-0.378-0.172-0.787-0.172-1.226
				c0-0.93,0.227-1.656,0.681-2.176c0.454-0.519,1.052-0.779,1.794-0.779c0.429,0,0.791,0.074,1.085,0.22
				c0.294,0.147,0.582,0.374,0.861,0.679v-2.197c0-0.305,0.061-0.536,0.183-0.692c0.121-0.156,0.295-0.234,0.521-0.234
				c0.225,0,0.398,0.072,0.52,0.215c0.122,0.144,0.183,0.355,0.183,0.635v6.563c0,0.284-0.065,0.496-0.196,0.638
				c-0.131,0.141-0.3,0.212-0.507,0.212c-0.204,0-0.372-0.073-0.504-0.22C225.672,484.079,225.605,483.87,225.605,483.597z
				 M222.678,481.411c0,0.404,0.062,0.747,0.188,1.03c0.125,0.284,0.297,0.497,0.516,0.64c0.218,0.144,0.456,0.216,0.713,0.216
				c0.262,0,0.501-0.068,0.717-0.205c0.216-0.136,0.389-0.345,0.518-0.626c0.129-0.282,0.194-0.634,0.194-1.055
				c0-0.396-0.064-0.737-0.194-1.023c-0.129-0.285-0.303-0.503-0.523-0.654c-0.22-0.15-0.461-0.225-0.722-0.225
				c-0.272,0-0.516,0.077-0.73,0.232c-0.214,0.154-0.38,0.375-0.499,0.665C222.737,480.694,222.678,481.03,222.678,481.411z"/>
			<path id="XMLID_11942_" style="fill:#FFFFFF;" d="M231.688,477.034v2.273c0.28-0.29,0.565-0.513,0.856-0.668
				c0.291-0.154,0.651-0.231,1.079-0.231c0.494,0,0.927,0.117,1.3,0.351c0.372,0.236,0.661,0.575,0.867,1.02
				c0.205,0.445,0.308,0.973,0.308,1.584c0,0.451-0.057,0.863-0.172,1.24c-0.115,0.376-0.281,0.702-0.499,0.978
				c-0.218,0.276-0.482,0.49-0.793,0.641c-0.311,0.151-0.654,0.226-1.028,0.226c-0.229,0-0.445-0.027-0.646-0.082
				c-0.202-0.054-0.374-0.125-0.515-0.215c-0.141-0.089-0.262-0.181-0.362-0.275c-0.1-0.094-0.232-0.237-0.395-0.425v0.147
				c0,0.28-0.067,0.492-0.202,0.636c-0.134,0.143-0.305,0.215-0.512,0.215c-0.211,0-0.379-0.071-0.504-0.215
				c-0.126-0.144-0.188-0.356-0.188-0.636v-6.498c0-0.302,0.061-0.53,0.182-0.684c0.122-0.154,0.292-0.231,0.51-0.231
				c0.229,0,0.405,0.073,0.529,0.22C231.626,476.552,231.688,476.761,231.688,477.034z M231.759,481.455
				c0,0.592,0.135,1.047,0.406,1.365c0.271,0.318,0.626,0.478,1.066,0.478c0.374,0,0.697-0.163,0.967-0.488
				c0.271-0.326,0.406-0.791,0.406-1.398c0-0.392-0.056-0.731-0.169-1.014c-0.113-0.284-0.272-0.503-0.479-0.657
				c-0.207-0.154-0.449-0.232-0.725-0.232c-0.283,0-0.536,0.077-0.758,0.232c-0.222,0.154-0.396,0.378-0.523,0.67
				C231.823,480.703,231.759,481.052,231.759,481.455z"/>
			<path id="XMLID_11940_" style="fill:#FFFFFF;" d="M238.028,484.633l0.136-0.333l-1.832-4.612
				c-0.112-0.265-0.169-0.458-0.169-0.578c0-0.127,0.033-0.245,0.098-0.354c0.066-0.109,0.155-0.197,0.27-0.262
				c0.115-0.066,0.234-0.099,0.357-0.099c0.214,0,0.376,0.068,0.485,0.205c0.109,0.136,0.205,0.331,0.289,0.586l1.259,3.663
				l1.194-3.407c0.094-0.275,0.18-0.492,0.256-0.648c0.076-0.156,0.157-0.262,0.242-0.316c0.085-0.055,0.206-0.082,0.363-0.082
				c0.113,0,0.221,0.03,0.325,0.09c0.103,0.06,0.183,0.141,0.24,0.243c0.056,0.101,0.085,0.208,0.085,0.321
				c-0.015,0.069-0.038,0.167-0.071,0.295c-0.033,0.127-0.072,0.257-0.12,0.387l-1.941,5.081c-0.168,0.447-0.331,0.797-0.491,1.052
				c-0.16,0.254-0.371,0.451-0.635,0.586c-0.264,0.137-0.619,0.205-1.066,0.205c-0.436,0-0.763-0.047-0.981-0.141
				c-0.219-0.095-0.327-0.268-0.327-0.518c0-0.17,0.051-0.303,0.156-0.395c0.103-0.092,0.257-0.14,0.46-0.14
				c0.08,0,0.159,0.011,0.235,0.034c0.094,0.021,0.176,0.033,0.245,0.033c0.171,0,0.305-0.025,0.404-0.077
				c0.098-0.05,0.186-0.138,0.264-0.265C237.836,485.061,237.926,484.876,238.028,484.633z"/>
		</g>
		<g id="XMLID_11913_">
			<path id="XMLID_11938_" style="fill:#FFFFFF;" d="M259.586,478.526h0.355v-0.447c0-0.467,0.057-0.836,0.176-1.112
				c0.117-0.275,0.319-0.474,0.601-0.6c0.281-0.124,0.668-0.187,1.157-0.187c0.872,0,1.304,0.211,1.304,0.639
				c0,0.137-0.045,0.255-0.138,0.353c-0.089,0.097-0.197,0.147-0.32,0.147c-0.057,0-0.16-0.011-0.303-0.034
				c-0.136-0.019-0.259-0.032-0.358-0.032c-0.268,0-0.44,0.081-0.52,0.238c-0.073,0.158-0.112,0.384-0.112,0.68v0.354h0.363
				c0.569,0,0.85,0.17,0.85,0.514c0,0.24-0.073,0.396-0.225,0.462c-0.15,0.066-0.358,0.098-0.625,0.098h-0.363v3.944
				c0,0.293-0.069,0.517-0.212,0.67c-0.138,0.156-0.318,0.233-0.541,0.233c-0.211,0-0.385-0.077-0.527-0.233
				c-0.14-0.154-0.209-0.377-0.209-0.67v-3.944h-0.41c-0.223,0-0.392-0.048-0.513-0.15c-0.12-0.098-0.181-0.229-0.181-0.389
				C258.838,478.702,259.088,478.526,259.586,478.526"/>
			<path id="XMLID_11937_" style="fill:#FFFFFF;" d="M264.459,482.299v1.244c0,0.301-0.076,0.527-0.215,0.677
				c-0.142,0.152-0.321,0.227-0.538,0.227c-0.219,0-0.395-0.075-0.532-0.23c-0.136-0.151-0.207-0.377-0.207-0.674v-4.145
				c0-0.669,0.241-1.004,0.723-1.004c0.249,0,0.427,0.077,0.536,0.234c0.109,0.157,0.169,0.387,0.182,0.693
				c0.177-0.307,0.358-0.536,0.544-0.693c0.191-0.157,0.438-0.234,0.752-0.234c0.315,0,0.615,0.077,0.91,0.234
				c0.296,0.157,0.443,0.365,0.443,0.623c0,0.181-0.063,0.333-0.187,0.448c-0.126,0.12-0.261,0.179-0.405,0.179
				c-0.057,0-0.19-0.036-0.397-0.103c-0.21-0.065-0.395-0.099-0.553-0.099c-0.218,0-0.397,0.059-0.535,0.171
				c-0.139,0.118-0.247,0.285-0.324,0.509c-0.074,0.227-0.126,0.497-0.156,0.806C264.472,481.473,264.459,481.852,264.459,482.299"
				/>
			<path id="XMLID_11933_" style="fill:#FFFFFF;" d="M271.301,481.786h-2.912c0.005,0.337,0.071,0.637,0.203,0.895
				c0.135,0.256,0.31,0.451,0.531,0.583c0.221,0.131,0.461,0.195,0.728,0.195c0.178,0,0.34-0.019,0.488-0.064
				c0.146-0.04,0.29-0.106,0.428-0.196c0.139-0.087,0.264-0.183,0.381-0.287c0.116-0.1,0.268-0.239,0.453-0.413
				c0.077-0.065,0.186-0.1,0.326-0.1c0.154,0,0.276,0.043,0.373,0.127c0.095,0.085,0.14,0.201,0.14,0.354
				c0,0.135-0.051,0.292-0.154,0.47c-0.108,0.182-0.266,0.354-0.48,0.52c-0.215,0.164-0.482,0.303-0.802,0.41
				c-0.321,0.109-0.692,0.164-1.109,0.164c-0.959,0-1.701-0.271-2.231-0.816c-0.53-0.547-0.799-1.287-0.799-2.22
				c0-0.44,0.067-0.849,0.199-1.225c0.129-0.378,0.32-0.698,0.573-0.968c0.25-0.27,0.557-0.475,0.925-0.619
				c0.366-0.143,0.773-0.215,1.221-0.215c0.58,0,1.079,0.123,1.496,0.371c0.415,0.243,0.731,0.56,0.935,0.949
				c0.208,0.391,0.311,0.785,0.311,1.19c0,0.372-0.108,0.614-0.322,0.726C271.991,481.731,271.69,481.786,271.301,481.786
				 M268.388,480.94h2.698c-0.036-0.508-0.171-0.889-0.41-1.14c-0.24-0.254-0.55-0.379-0.942-0.379c-0.37,0-0.675,0.126-0.914,0.384
				C268.584,480.061,268.438,480.439,268.388,480.94"/>
			<path id="XMLID_11930_" style="fill:#FFFFFF;" d="M277.492,481.786h-2.912c0.003,0.337,0.072,0.637,0.204,0.895
				c0.133,0.256,0.309,0.451,0.529,0.583c0.22,0.131,0.462,0.195,0.73,0.195c0.177,0,0.34-0.019,0.485-0.064
				c0.148-0.04,0.29-0.106,0.43-0.196c0.139-0.087,0.264-0.183,0.381-0.287c0.114-0.1,0.266-0.239,0.452-0.413
				c0.077-0.065,0.187-0.1,0.326-0.1c0.154,0,0.277,0.043,0.373,0.127c0.095,0.085,0.138,0.201,0.138,0.354
				c0,0.135-0.05,0.292-0.157,0.47c-0.102,0.182-0.261,0.354-0.476,0.52c-0.212,0.164-0.482,0.303-0.801,0.41
				c-0.32,0.109-0.693,0.164-1.11,0.164c-0.957,0-1.698-0.271-2.231-0.816c-0.53-0.547-0.797-1.287-0.797-2.22
				c0-0.44,0.067-0.849,0.199-1.225c0.13-0.378,0.321-0.698,0.572-0.968c0.25-0.27,0.558-0.475,0.927-0.619
				c0.366-0.143,0.775-0.215,1.222-0.215c0.579,0,1.078,0.123,1.5,0.371c0.413,0.243,0.726,0.56,0.93,0.949
				c0.206,0.391,0.313,0.785,0.313,1.19c0,0.372-0.11,0.614-0.322,0.726C278.181,481.731,277.88,481.786,277.492,481.786
				 M274.58,480.94h2.698c-0.036-0.508-0.174-0.889-0.41-1.14c-0.242-0.254-0.552-0.379-0.943-0.379
				c-0.37,0-0.675,0.126-0.914,0.384C274.774,480.061,274.628,480.439,274.58,480.94"/>
			<path id="XMLID_11926_" style="fill:#FFFFFF;" d="M280.752,479.231v0.178c0.279-0.345,0.571-0.598,0.875-0.76
				c0.298-0.163,0.642-0.245,1.023-0.245c0.456,0,0.881,0.119,1.267,0.354c0.385,0.238,0.688,0.583,0.912,1.037
				c0.224,0.456,0.336,0.993,0.336,1.615c0,0.457-0.064,0.879-0.193,1.263c-0.128,0.383-0.308,0.704-0.533,0.964
				c-0.226,0.258-0.491,0.46-0.798,0.6c-0.311,0.138-0.638,0.208-0.992,0.208c-0.424,0-0.783-0.085-1.07-0.257
				c-0.289-0.168-0.564-0.421-0.827-0.749v2.234c0,0.652-0.239,0.981-0.714,0.981c-0.281,0-0.464-0.084-0.558-0.252
				c-0.087-0.171-0.134-0.415-0.134-0.741v-6.424c0-0.284,0.061-0.493,0.184-0.636c0.123-0.137,0.294-0.209,0.508-0.209
				c0.212,0,0.382,0.072,0.514,0.215C280.687,478.754,280.752,478.959,280.752,479.231 M283.669,481.393
				c0-0.393-0.061-0.731-0.18-1.012c-0.12-0.283-0.286-0.498-0.497-0.647c-0.211-0.151-0.449-0.228-0.707-0.228
				c-0.41,0-0.757,0.163-1.038,0.484c-0.283,0.325-0.424,0.801-0.424,1.431c0,0.589,0.14,1.052,0.422,1.381
				c0.28,0.329,0.623,0.493,1.04,0.493c0.246,0,0.477-0.072,0.687-0.214c0.213-0.145,0.382-0.36,0.507-0.647
				C283.606,482.147,283.669,481.8,283.669,481.393"/>
			<path id="XMLID_11923_" style="fill:#FFFFFF;" d="M286.663,477.701c-0.208,0-0.384-0.066-0.53-0.192
				c-0.149-0.128-0.223-0.305-0.223-0.538c0-0.211,0.075-0.384,0.228-0.522c0.15-0.135,0.325-0.204,0.525-0.204
				c0.195,0,0.365,0.061,0.513,0.183c0.149,0.126,0.224,0.307,0.224,0.543c0,0.229-0.073,0.408-0.217,0.537
				C287.037,477.635,286.865,477.701,286.663,477.701 M287.4,479.238v4.306c0,0.296-0.071,0.521-0.212,0.673
				c-0.143,0.155-0.322,0.23-0.54,0.23c-0.219,0-0.393-0.077-0.533-0.233c-0.134-0.159-0.204-0.382-0.204-0.669v-4.263
				c0-0.293,0.07-0.513,0.204-0.663c0.14-0.152,0.314-0.225,0.533-0.225c0.219,0,0.397,0.073,0.54,0.225
				C287.329,478.768,287.4,478.975,287.4,479.238"/>
			<path id="XMLID_11921_" style="fill:#FFFFFF;" d="M292.198,483.767l-1.311-2.161l-0.808,0.762v1.185
				c0,0.286-0.076,0.506-0.228,0.66c-0.147,0.156-0.325,0.233-0.52,0.233c-0.229,0-0.41-0.075-0.54-0.23
				c-0.13-0.151-0.197-0.377-0.197-0.674v-6.35c0-0.329,0.065-0.58,0.19-0.754c0.128-0.175,0.313-0.259,0.547-0.259
				c0.229,0,0.409,0.078,0.545,0.236c0.134,0.155,0.203,0.387,0.203,0.69v3.612l1.674-1.758c0.208-0.216,0.363-0.368,0.475-0.447
				c0.109-0.08,0.241-0.119,0.396-0.119c0.187,0,0.341,0.059,0.468,0.177c0.121,0.118,0.184,0.267,0.184,0.444
				c0,0.217-0.203,0.51-0.605,0.873l-0.79,0.725l1.526,2.401c0.111,0.18,0.194,0.312,0.243,0.405
				c0.048,0.091,0.074,0.183,0.074,0.265c0,0.237-0.066,0.422-0.195,0.56c-0.129,0.136-0.301,0.203-0.508,0.203
				c-0.182,0-0.324-0.047-0.421-0.147C292.5,484.2,292.364,484.022,292.198,483.767"/>
			<path id="XMLID_11920_" style="fill:#FFFFFF;" d="M295.432,484.447c-0.225,0-0.418-0.072-0.582-0.219
				c-0.163-0.143-0.246-0.348-0.246-0.611c0-0.221,0.079-0.413,0.235-0.571c0.158-0.16,0.349-0.241,0.578-0.241
				c0.228,0,0.422,0.08,0.587,0.237c0.16,0.158,0.242,0.351,0.242,0.575c0,0.259-0.082,0.464-0.242,0.608
				C295.84,484.374,295.65,484.447,295.432,484.447"/>
			<path id="XMLID_11919_" style="fill:#FFFFFF;" d="M302.835,482.604c0,0.184-0.055,0.383-0.167,0.594
				c-0.11,0.212-0.28,0.412-0.508,0.603c-0.227,0.191-0.512,0.346-0.858,0.461c-0.345,0.116-0.735,0.176-1.165,0.176
				c-0.922,0-1.641-0.27-2.157-0.804c-0.514-0.537-0.772-1.257-0.772-2.158c0-0.613,0.117-1.151,0.355-1.621
				c0.234-0.467,0.576-0.831,1.022-1.087c0.447-0.257,0.985-0.385,1.603-0.385c0.387,0,0.739,0.056,1.063,0.169
				c0.322,0.112,0.592,0.259,0.818,0.436c0.222,0.18,0.393,0.369,0.511,0.569c0.119,0.202,0.177,0.391,0.177,0.567
				c0,0.177-0.065,0.328-0.197,0.452c-0.135,0.123-0.296,0.186-0.481,0.186c-0.126,0-0.228-0.033-0.311-0.095
				c-0.082-0.064-0.175-0.166-0.275-0.311c-0.182-0.275-0.371-0.483-0.572-0.619c-0.197-0.14-0.448-0.208-0.754-0.208
				c-0.437,0-0.794,0.171-1.064,0.515c-0.268,0.342-0.404,0.815-0.404,1.409c0,0.28,0.036,0.539,0.105,0.773
				c0.067,0.234,0.167,0.434,0.299,0.599c0.132,0.165,0.289,0.29,0.474,0.375c0.186,0.088,0.391,0.13,0.61,0.13
				c0.299,0,0.555-0.069,0.767-0.207c0.216-0.138,0.403-0.349,0.566-0.633c0.091-0.167,0.188-0.297,0.292-0.392
				c0.105-0.094,0.235-0.143,0.388-0.143c0.182,0,0.333,0.071,0.451,0.208C302.774,482.3,302.835,482.449,302.835,482.604"/>
			<path id="XMLID_11916_" style="fill:#FFFFFF;" d="M309.258,481.422c0,0.442-0.07,0.852-0.204,1.227
				c-0.142,0.374-0.34,0.696-0.603,0.963c-0.261,0.269-0.575,0.475-0.936,0.62c-0.367,0.142-0.775,0.215-1.228,0.215
				c-0.451,0-0.857-0.073-1.217-0.22c-0.358-0.143-0.672-0.353-0.933-0.621c-0.265-0.274-0.464-0.594-0.604-0.962
				c-0.132-0.369-0.201-0.777-0.201-1.223c0-0.451,0.071-0.864,0.206-1.239c0.139-0.375,0.338-0.696,0.596-0.96
				c0.259-0.265,0.57-0.469,0.936-0.614c0.369-0.143,0.775-0.215,1.217-0.215c0.45,0,0.86,0.072,1.228,0.219
				c0.366,0.144,0.679,0.353,0.943,0.619c0.263,0.272,0.461,0.591,0.597,0.96C309.189,480.566,309.258,480.973,309.258,481.422
				 M307.764,481.422c0-0.608-0.135-1.079-0.401-1.417c-0.266-0.342-0.625-0.51-1.076-0.51c-0.292,0-0.548,0.076-0.771,0.226
				c-0.222,0.15-0.391,0.373-0.511,0.668c-0.12,0.295-0.181,0.639-0.181,1.032c0,0.39,0.059,0.727,0.178,1.018
				c0.119,0.293,0.288,0.515,0.508,0.669c0.221,0.153,0.479,0.232,0.776,0.232c0.45,0,0.81-0.17,1.076-0.512
				C307.629,482.49,307.764,482.019,307.764,481.422"/>
			<path id="XMLID_11914_" style="fill:#FFFFFF;" d="M314.935,481.531v1.978c0,0.314-0.069,0.546-0.212,0.704
				c-0.144,0.156-0.328,0.234-0.561,0.234c-0.225,0-0.41-0.078-0.546-0.234c-0.142-0.159-0.214-0.391-0.214-0.704v-2.371
				c0-0.375-0.012-0.667-0.036-0.875c-0.026-0.203-0.096-0.376-0.208-0.507c-0.113-0.135-0.292-0.202-0.534-0.202
				c-0.488,0-0.808,0.167-0.962,0.506c-0.154,0.331-0.233,0.811-0.233,1.439v2.01c0,0.309-0.07,0.543-0.207,0.702
				c-0.143,0.157-0.326,0.237-0.554,0.237c-0.227,0-0.411-0.08-0.555-0.237c-0.145-0.159-0.216-0.393-0.216-0.702v-4.258
				c0-0.281,0.064-0.494,0.192-0.638c0.132-0.147,0.302-0.219,0.511-0.219c0.204,0,0.374,0.071,0.512,0.204
				c0.136,0.137,0.203,0.325,0.203,0.565v0.141c0.26-0.307,0.536-0.535,0.829-0.678c0.297-0.149,0.621-0.221,0.983-0.221
				c0.374,0,0.695,0.075,0.963,0.224c0.27,0.15,0.49,0.376,0.666,0.675c0.252-0.303,0.522-0.53,0.809-0.678
				c0.287-0.147,0.604-0.221,0.954-0.221c0.405,0,0.758,0.082,1.053,0.241c0.293,0.16,0.512,0.39,0.659,0.686
				c0.127,0.271,0.189,0.694,0.189,1.272v2.906c0,0.314-0.07,0.546-0.211,0.704c-0.141,0.156-0.33,0.234-0.562,0.234
				c-0.227,0-0.41-0.08-0.554-0.237c-0.143-0.159-0.216-0.393-0.216-0.702v-2.503c0-0.321-0.014-0.576-0.04-0.768
				c-0.027-0.193-0.101-0.356-0.22-0.486c-0.122-0.131-0.304-0.197-0.547-0.197c-0.196,0-0.382,0.061-0.559,0.177
				c-0.176,0.114-0.314,0.273-0.414,0.466C314.992,480.449,314.935,480.893,314.935,481.531"/>
		</g>
		<g id="XMLID_11897_">
			<path id="XMLID_11912_" style="fill:#FFFFFF;" d="M245.658,481.061c-0.001-0.003-0.001-0.006-0.001-0.01
				C245.657,481.056,245.657,481.058,245.658,481.061z"/>
			<path id="XMLID_11911_" style="fill:#FFFFFF;" d="M245.733,481.537c0.001,0,0.001,0,0.002,0c-0.029-0.136-0.051-0.27-0.068-0.403
				C245.684,481.268,245.706,481.403,245.733,481.537z"/>
			<path id="XMLID_11910_" style="fill:#FFFFFF;" d="M246.226,482.918c-0.003-0.006-0.006-0.012-0.01-0.019
				C246.22,482.906,246.223,482.912,246.226,482.918z"/>
			<path id="XMLID_11909_" style="fill:#FFFFFF;" d="M246.179,482.826c-0.013-0.025-0.025-0.052-0.037-0.077
				C246.154,482.776,246.166,482.801,246.179,482.826z"/>
			<path id="XMLID_11907_" style="fill:#FFFFFF;" d="M245.872,482.069c0.073,0.23,0.161,0.452,0.262,0.665
				c-0.103-0.217-0.189-0.44-0.26-0.665C245.873,482.069,245.872,482.069,245.872,482.069z"/>
			<path id="XMLID_11906_" style="fill:#FFFFFF;" d="M251.419,475.358c0.288,0,0.5,0.023,0.743,0.064l0.069-0.438
				c0,0-0.672-0.207-1.556-0.135l-0.07-0.238c0.275-0.058,0.481-0.302,0.481-0.594c0-0.334-0.272-0.605-0.607-0.605
				c-0.335,0-0.606,0.271-0.606,0.605c0,0.292,0.206,0.536,0.48,0.594l0.077,0.266c-0.938,0.129-1.685,0.495-1.685,0.495
				l0.132,0.405c0.568-0.189,1.06-0.304,1.506-0.352C250.822,475.378,251.151,475.358,251.419,475.358z"/>
			<path id="XMLID_11905_" style="fill:#FFFFFF;" d="M246.215,477.573l0.003-0.004c0.022-0.029,0.043-0.056,0.065-0.082l-0.18-0.129
				l-0.28-0.204c-0.016,0.022-0.456,0.427-0.804,1.175c-0.015-0.023-0.032-0.047-0.051-0.068c-0.104-0.114-0.25-0.172-0.435-0.169
				c-0.002,0-0.005,0-0.008,0c-0.115,0-0.193-0.038-0.245-0.085c0.051-0.065,0.082-0.147,0.082-0.237
				c0-0.211-0.172-0.384-0.384-0.384c-0.212,0-0.384,0.173-0.384,0.384c0,0.212,0.172,0.384,0.384,0.384
				c0.033,0,0.065-0.006,0.096-0.012c0.094,0.105,0.244,0.196,0.464,0.192c0.113-0.001,0.196,0.028,0.251,0.089
				c0.064,0.069,0.085,0.17,0.092,0.245c-0.001,0.001-0.001,0.003-0.002,0.003c-0.25,0.683-0.178,1.532-0.178,1.532l0.607,0.024
				c0.012-0.309,0.057-0.851,0.213-1.28C245.821,478.115,246.199,477.595,246.215,477.573z"/>
			<path id="XMLID_11904_" style="fill:#FFFFFF;" d="M256.699,475.865c-0.211,0-0.384,0.172-0.384,0.384
				c0,0.033,0.005,0.065,0.014,0.095c-0.105,0.095-0.197,0.245-0.193,0.465c0.002,0.113-0.027,0.195-0.089,0.251
				c-0.049,0.043-0.11,0.066-0.17,0.081c-0.452-0.633-1.008-1.019-1.008-1.019l-0.436,0.467c0.329,0.299,0.665,0.674,0.992,1.142
				c0.226,0.323,0.459,0.74,0.652,1.156l0.588-0.279c0,0-0.268-0.663-0.646-1.258c0.066-0.023,0.132-0.059,0.19-0.11
				c0.115-0.104,0.171-0.25,0.168-0.435c-0.001-0.119,0.038-0.2,0.085-0.253c0.065,0.05,0.147,0.082,0.236,0.082
				c0.213,0,0.385-0.172,0.385-0.384C257.083,476.037,256.912,475.865,256.699,475.865z"/>
			<path id="XMLID_11903_" style="fill:#FFFFFF;" d="M255.174,481.147c-0.809,0.394-2.14,0.915-3.892,1.159
				c-0.688,0.095-1.354,0.13-1.968,0.13c-0.798,0-1.503-0.059-2.045-0.128c-0.618-0.078-1.1-0.173-1.396-0.24
				c0.071,0.225,0.157,0.448,0.26,0.665c0.002,0.006,0.004,0.012,0.007,0.016c0.012,0.025,0.025,0.052,0.037,0.077
				c0.012,0.025,0.025,0.05,0.037,0.073c0.004,0.007,0.007,0.013,0.01,0.019c0.174,0.327,0.383,0.628,0.62,0.889
				c0.826,0.904,1.668,1.047,1.676,1.048l0.013,0.002l0.012,0.005c0.008,0.003,0.754,0.244,1.889,0.244
				c1.117,0,2.212-0.225,3.257-0.67c0.773-0.396,1.505-0.997,1.868-1.532c0.28-0.415,0.483-0.857,0.603-1.317
				c0.064-0.244,0.114-0.636,0.085-1.048C256.021,480.692,255.661,480.91,255.174,481.147z"/>
			<path id="XMLID_11898_" style="fill:#FFFFFF;" d="M246.474,477.764c-0.024,0.034-0.374,0.531-0.652,1.293
				c-0.208,0.571-0.198,1.402-0.198,1.412v0.002c0,0.195,0.011,0.389,0.033,0.58c0,0.005,0,0.007,0.001,0.01
				c0.002,0.025,0.006,0.048,0.009,0.073c0.017,0.133,0.04,0.267,0.068,0.403c0.402,0.102,2.8,0.661,5.48,0.288
				c1.68-0.234,2.955-0.73,3.73-1.106c0.643-0.312,1.057-0.595,1.217-0.711c-0.159-0.59-0.598-1.516-1-2.093
				c-1.151-1.645-2.392-2.066-3.029-2.171c-0.243-0.04-0.438-0.063-0.714-0.063c-0.257,0-0.575,0.021-1.001,0.065
				c-0.426,0.044-0.902,0.156-1.453,0.342c-0.773,0.259-1.473,0.665-2.024,1.175l-0.019,0.017
				C246.841,477.357,246.67,477.515,246.474,477.764z M253.516,477.382c0.551,0,1,0.448,1,1c0,0.552-0.449,1.001-1,1.001
				c-0.552,0-1-0.449-1-1.001C252.516,477.83,252.964,477.382,253.516,477.382z M248.786,477.342c0.893,0,1.617,0.724,1.617,1.617
				c0,0.893-0.723,1.615-1.617,1.615c-0.892,0-1.616-0.723-1.616-1.615C247.17,478.066,247.894,477.342,248.786,477.342z"/>
		</g>
	</g>
</g>
</svg>
