<?xml version="1.0" encoding="utf-8"?>
<!-- Generator: Adobe Illustrator 27.5.0, SVG Export Plug-In . SVG Version: 6.00 Build 0)  -->
<svg version="1.1" xmlns="http://www.w3.org/2000/svg" xmlns:xlink="http://www.w3.org/1999/xlink" x="0px" y="0px"
	 viewBox="0 0 2500 2500" style="enable-background:new 0 0 2500 2500;" xml:space="preserve">
<g id="Background">
	<rect style="fill:#FFFFFF;" width="2500" height="2500"/>
</g>
<g id="Illustration">
	<g id="Mobile_SEO_2_">
		<circle style="fill:#F2E6DC;" cx="1250" cy="1248.686" r="913.686"/>
		<g>
			<path style="fill:#FFFFFF;" d="M561.601,1002.647c-25.794-49.593-55.431-92.405-84.572-124.456l-10.767,80.007l-15.112-105.754
				c-34.198-30.348-65.807-43.419-87.293-32.243c-44.708,23.254-28.662,142.639,35.84,266.655
				c64.503,124.016,153.036,205.699,197.745,182.445C642.15,1246.048,626.104,1126.662,561.601,1002.647z"/>
			<path style="fill:#E6D0BE;" d="M730.121,1064.996l-55.007,32.18l51.656-58.099c-16.232-105.443-60.398-183.296-104.722-179.233
				c-48.923,4.485-79.513,107.065-68.324,229.121c11.188,122.055,59.919,217.365,108.841,212.881
				c48.923-4.485,79.513-107.066,68.325-229.121C730.652,1070.135,730.391,1067.561,730.121,1064.996z"/>
			<path style="fill:#E6D0BE;" d="M408.334,1210.884l46.152-7.713l-56.448-8.48c-40.42-67.098-52.115-131.769-25.207-150.317
				c29.699-20.472,95.18,22.999,146.254,97.094c51.075,74.096,68.403,150.758,38.703,171.23
				c-29.699,20.472-95.18-22.998-146.255-97.094C410.451,1214.032,409.388,1212.458,408.334,1210.884z"/>
			<path style="fill:#E6D0BE;" d="M690.076,1563.927c-0.983,0-1.877-0.662-2.131-1.658
				c-60.053-235.674-139.362-411.812-195.319-518.074C431.995,929.057,384.96,868.88,384.493,868.285
				c-0.753-0.956-0.589-2.339,0.368-3.092c0.952-0.754,2.339-0.586,3.09,0.368c0.471,0.597,47.695,61.001,108.5,176.448
				c56.091,106.493,135.584,283.01,195.76,519.172c0.301,1.178-0.411,2.377-1.589,2.678
				C690.439,1563.906,690.257,1563.927,690.076,1563.927z"/>
			<path style="fill:#F2E6DC;" d="M706.963,1559.624c-0.998,0-1.903-0.683-2.142-1.696
				c-80.311-340.891-86.862-613.458-86.92-616.172c-0.026-1.216,0.94-2.222,2.156-2.248c1.275-0.023,2.221,0.941,2.247,2.155
				c0.056,2.709,6.603,274.842,86.804,615.253c0.277,1.184-0.456,2.369-1.638,2.648
				C707.3,1559.605,707.13,1559.624,706.963,1559.624z"/>
			<path style="fill:#F2E6DC;" d="M668.07,1566.696c-0.967,0-1.853-0.643-2.122-1.621
				c-39.791-145.361-105.4-264.914-153.434-339.611c-53.005-82.429-97.567-131.091-101.773-134.028
				c-0.983-0.471-1.486-1.61-1.137-2.674c0.38-1.155,1.625-1.78,2.78-1.402c7.211,2.376,181.026,196.049,257.813,476.552
				c0.32,1.173-0.37,2.384-1.544,2.705C668.459,1566.671,668.264,1566.696,668.07,1566.696z M411.001,1091.54
				c0.002,0.001,0.004,0.002,0.006,0.002C411.006,1091.542,411.004,1091.541,411.001,1091.54z M410.997,1091.539L410.997,1091.539
				L410.997,1091.539z"/>
		</g>
		<g>
			<g>
				<path style="fill:#FFFFFF;" d="M1109.058,710.591l-25.658-8.966c2.073-13.31,3.047-26.618,2.986-39.817l16.199-3.072
					c5.791-1.098,9.595-6.683,8.497-12.474l-13.161-69.401c-1.099-5.791-6.683-9.595-12.474-8.497l-16.259,3.084
					c-4.827-12.415-10.621-24.434-17.328-35.943l20.626-17.765l-60.028-69.695l-20.579,17.726
					c-10.288-8.269-21.306-15.796-33.01-22.464l8.966-25.658L881,387.306l-8.966,25.658c-13.31-2.073-26.618-3.047-39.817-2.985
					l-5.06-26.685l-90.372,17.139l5.072,26.745c-12.415,4.826-24.434,10.62-35.943,17.328l-10.8-12.54
					c-3.847-4.466-10.585-4.968-15.051-1.122l-53.522,46.099c-4.466,3.846-4.968,10.585-1.121,15.051l10.76,12.493
					c-8.268,10.288-15.796,21.306-22.464,33.01l-25.657-8.966h-0.001l-30.343,86.833l25.658,8.966
					c-2.073,13.31-3.046,26.618-2.985,39.817l-16.199,3.073c-5.791,1.098-9.596,6.683-8.497,12.474l13.161,69.401
					c1.099,5.791,6.683,9.596,12.474,8.497l16.26-3.084c4.826,12.415,10.621,24.435,17.328,35.943l-20.626,17.766l60.028,69.695
					h0.001l20.579-17.725c10.288,8.268,21.306,15.795,33.01,22.464l-8.966,25.657l86.833,30.343l8.966-25.658
					c13.31,2.073,26.618,3.047,39.817,2.985l5.06,26.684l0,0l90.371-17.138l-5.071-26.746c12.415-4.826,24.434-10.62,35.943-17.328
					l10.8,12.54c3.846,4.466,10.585,4.968,15.051,1.122l53.522-46.099c4.466-3.847,4.968-10.585,1.121-15.051l-10.76-12.493
					c8.268-10.288,15.795-21.306,22.464-33.01l25.657,8.966L1109.058,710.591z M997.789,726.537
					c-33.224,86.15-128.977,132.312-217.069,104.65c-97.276-30.546-148.423-136.639-111.736-231.768
					c33.225-86.149,128.977-132.312,217.07-104.65C983.33,525.315,1034.477,631.408,997.789,726.537z"/>
			</g>
			<path style="fill:#F2E6DC;" d="M833.424,866.422c-22.406,0-45.069-3.707-67.14-11.419
				c-51.292-17.923-92.534-54.748-116.129-103.692c-23.595-48.943-26.719-104.144-8.796-155.437
				c16.168-46.264,48.471-85.126,90.958-109.428c42.066-24.06,91.315-32.368,138.67-23.404c1.193,0.226,1.978,1.378,1.752,2.572
				c-0.226,1.195-1.365,1.987-2.574,1.753c-95.83-18.145-192.419,37.724-224.648,129.96
				c-17.536,50.181-14.481,104.188,8.604,152.072c23.083,47.883,63.433,83.911,113.615,101.447
				c85.594,29.909,180.568-1.746,230.959-76.98c0.679-1.01,2.047-1.279,3.055-0.604c1.011,0.677,1.281,2.045,0.604,3.055
				C963.842,833.82,899.835,866.422,833.424,866.422z"/>
		</g>
		<g>
			<g>
				<path style="fill:#FFFFFF;" d="M1990.411,1613.473l-33.195-11.6c2.682-17.221,3.941-34.438,3.862-51.514l34.524-6.548
					l-22.173-116.92l-34.602,6.562c-6.245-16.062-13.741-31.612-22.419-46.501l26.685-22.984l-77.663-90.17l-26.625,22.933
					c-13.311-10.698-27.565-20.436-42.708-29.064l11.599-33.195l-112.343-39.257l-11.599,33.195
					c-17.22-2.682-34.438-3.942-51.515-3.862l-6.547-34.524l-116.921,22.174l6.562,34.602c-16.062,6.244-31.612,13.74-46.502,22.418
					l-22.984-26.686l-90.169,77.663l22.932,26.625c-10.697,13.311-20.436,27.565-29.063,42.708l-33.195-11.6h-0.001l-39.257,112.342
					l33.195,11.6c-2.682,17.221-3.941,34.438-3.863,51.514l-34.524,6.548l22.173,116.921l34.603-6.562
					c6.244,16.062,13.741,31.613,22.418,46.502l-26.685,22.985l77.663,90.169h0.001l26.625-22.932
					c13.311,10.697,27.565,20.435,42.708,29.063l-11.6,33.195l112.343,39.257l11.6-33.195c17.22,2.682,34.437,3.942,51.514,3.862
					l6.547,34.524l0,0l116.92-22.173l-6.562-34.603c16.062-6.244,31.613-13.74,46.502-22.418l22.984,26.686l90.17-77.664
					l-22.932-26.625c10.697-13.311,20.435-27.565,29.063-42.708l33.195,11.6L1990.411,1613.473z M1846.453,1634.104
					c-42.985,111.459-166.867,171.182-280.839,135.394c-125.853-39.52-192.026-176.781-144.561-299.857
					c42.985-111.458,166.867-171.182,280.84-135.393C1827.746,1373.767,1893.92,1511.028,1846.453,1634.104z"/>
			</g>
			<path style="fill:#F2E6DC;" d="M1633.8,1814.437c-28.914,0-58.165-4.783-86.649-14.737
				c-136.653-47.753-208.979-197.777-161.226-334.431c20.866-59.708,62.554-109.863,117.389-141.227
				c54.289-31.052,117.84-41.782,178.966-30.206c1.193,0.226,1.978,1.378,1.752,2.573c-0.228,1.194-1.387,1.983-2.572,1.753
				c-124.325-23.543-249.574,48.929-291.377,168.561c-46.953,134.361,24.16,281.87,158.521,328.821
				c111.014,38.796,234.203-2.263,299.56-99.846c0.677-1.009,2.047-1.278,3.055-0.604c1.01,0.677,1.281,2.045,0.604,3.055
				C1802.119,1772.362,1719.51,1814.437,1633.8,1814.437z"/>
		</g>
		<g>
			<rect x="909.301" y="629.439" style="fill:#EFBC73;" width="676.096" height="1275.501"/>
			<path style="fill:#363E44;" d="M1555.85,1982.459H934.171c-43.315,0-78.552-35.237-78.552-78.55V618.347
				c0-43.313,35.237-78.551,78.552-78.551h621.679c43.315,0,78.552,35.238,78.552,78.551v1285.562
				C1634.402,1947.222,1599.165,1982.459,1555.85,1982.459z M934.171,544.199c-40.885,0-74.149,33.262-74.149,74.148v1285.562
				c0,40.884,33.263,74.147,74.149,74.147h621.679c40.885,0,74.149-33.262,74.149-74.147V618.347
				c0-40.885-33.263-74.148-74.149-74.148H934.171z"/>
		</g>
		<g>
			<path style="fill:#8B865C;" d="M2118.302,1098.201h-772.494V595.863h772.494V1098.201z M1350.211,1093.798h763.688V600.266
				h-763.688V1093.798z"/>
			<g>
				<rect x="1440.236" y="707.101" style="fill:#E6D0BE;" width="309.108" height="264.709"/>
				<rect x="1403.306" y="670.171" style="fill:#FFFFFF;" width="309.108" height="264.709"/>
				<g>
					<path style="fill:#8B865C;" d="M2060.803,708.685h-276.624c-1.217,0-2.202-0.986-2.202-2.202c0-1.216,0.985-2.202,2.202-2.202
						h276.624c1.217,0,2.201,0.986,2.201,2.202C2063.004,707.699,2062.02,708.685,2060.803,708.685z"/>
					<path style="fill:#8B865C;" d="M2002.051,765.381h-217.871c-1.217,0-2.202-0.986-2.202-2.202c0-1.216,0.985-2.202,2.202-2.202
						h217.871c1.217,0,2.202,0.986,2.202,2.202C2004.252,764.395,2003.267,765.381,2002.051,765.381z"/>
					<path style="fill:#8B865C;" d="M2038.771,816.737h-254.592c-1.217,0-2.202-0.986-2.202-2.202c0-1.216,0.985-2.202,2.202-2.202
						h254.592c1.217,0,2.202,0.986,2.202,2.202C2040.973,815.751,2039.988,816.737,2038.771,816.737z"/>
					<path style="fill:#8B865C;" d="M1959.32,870.762h-175.141c-1.217,0-2.202-0.986-2.202-2.202c0-1.216,0.985-2.202,2.202-2.202
						h175.141c1.217,0,2.202,0.986,2.202,2.202C1961.522,869.776,1960.537,870.762,1959.32,870.762z"/>
				</g>
			</g>
			<g>
				<path style="fill:#EFBC73;" d="M1521.46,750.081c4.852-2.427,9.884-4.112,14.967-5.104l-1.927-27.525
					c-8.597,1.327-17.132,3.983-25.319,8.078c-19.885,9.944-34.243,26.598-41.708,45.857l26.459,7.79
					C1499.223,766.969,1508.658,756.483,1521.46,750.081z"/>
				<path style="fill:#EFBC73;" d="M1492.418,822.096c-3.391-9.55-4.143-19.545-2.562-29.084l-26.459-7.79
					c-3.312,16.051-2.087,33.137,4.346,49.215L1492.418,822.096z"/>
				<path style="fill:#D87355;" d="M1627.628,770.602l-24.676,12.34c9.755,27.478-2.311,58.647-29.042,72.015
					c-26.731,13.369-58.908,4.326-75.041-19.962l-24.676,12.341c23.015,37.801,71.715,52.317,111.995,32.173
					C1626.468,859.364,1644.067,811.691,1627.628,770.602z"/>
				<path style="fill:#EFBC73;" d="M1550.817,743.985c18.066,0.997,35.238,10.331,45.684,26.057l24.676-12.341
					c-15.728-25.834-43.451-40.789-72.287-41.241L1550.817,743.985z"/>
			</g>
		</g>
		<g>
			<polygon style="fill:#FFFFFF;" points="1512.796,1836.313 1173.102,1836.313 1173.102,1612.632 1177.506,1612.632 
				1177.506,1831.91 1512.796,1831.91 			"/>
			<g>
				
					<rect x="1388.548" y="1670.529" transform="matrix(0.8585 -0.5128 0.5128 0.8585 -657.9856 960.6462)" style="fill:#FFFFFF;" width="46.701" height="4.403"/>
				
					<rect x="1337.115" y="1587.496" transform="matrix(0.8358 -0.549 0.549 0.8358 -678.8245 1004.0975)" style="fill:#FFFFFF;" width="4.403" height="98.929"/>
				
					<rect x="1240.745" y="1606.131" transform="matrix(0.7914 -0.6113 0.6113 0.7914 -718.7675 1110.1674)" style="fill:#FFFFFF;" width="53.32" height="4.404"/>
				
					<ellipse transform="matrix(0.2298 -0.9732 0.9732 0.2298 -642.3483 2459.4048)" style="fill:#FFFFFF;" cx="1232.622" cy="1635.524" rx="17.399" ry="17.399"/>
				
					<ellipse transform="matrix(0.0553 -0.9985 0.9985 0.0553 -348.2447 2794.7188)" style="fill:#FFFFFF;" cx="1302.772" cy="1581.392" rx="17.399" ry="17.399"/>
				<path style="fill:#FFFFFF;" d="M1393.929,1693.032c0,9.609-7.79,17.399-17.4,17.399c-9.609,0-17.399-7.79-17.399-17.399
					s7.79-17.399,17.399-17.399C1386.139,1675.633,1393.929,1683.423,1393.929,1693.032z"/>
				
					<ellipse transform="matrix(0.9239 -0.3827 0.3827 0.9239 -522.2021 679.6204)" style="fill:#FFFFFF;" cx="1447.237" cy="1652.451" rx="17.399" ry="17.399"/>
			</g>
			<g>
				<rect x="1212.062" y="1680.565" style="fill:#8B865C;" width="43.271" height="118.649"/>
				<rect x="1283.471" y="1656.928" style="fill:#8B865C;" width="43.272" height="142.286"/>
				<rect x="1354.88" y="1722.539" style="fill:#8B865C;" width="43.272" height="76.675"/>
				<rect x="1426.29" y="1700.521" style="fill:#8B865C;" width="43.272" height="98.693"/>
			</g>
		</g>
		<g>
			<path style="fill:#8B865C;" d="M2053.11,1579.291h-575.599v-157.7h575.599V1579.291z M1481.914,1574.888h566.792v-148.893
				h-566.792V1574.888z"/>
			<g>
				<path style="fill:#8B865C;" d="M1980.299,1379.398c-24.359-7.72-27.243-45.359-47.562-44.824
					c-50.311,1.327-73.153,165.515-111.309,163.347c-31.498-1.79-36.655-114.853-73.131-118.523
					c-38.934-3.917-66.387,121.541-108.436,118.523c-36.923-2.65-35.45-100.797-100.871-133.654
					c-10.992-5.52-22.509-8.507-34.059-9.691v197.296h520.76v-185.754C2006.038,1380.235,1991.411,1382.919,1980.299,1379.398z"/>
			</g>
		</g>
		<g>
			<g>
				<path style="fill:#84524D;" d="M1011.017,1378.416c92.26,22.13,354.614,102.295,387.055-8.22
					c26.834-91.413-232.109-158.211-322.3-186.126C1054.187,1248.852,1032.602,1313.634,1011.017,1378.416z"/>
				<g>
					<path style="fill:#84524D;" d="M1226.484,1306.989c0-0.005-0.005-0.009-0.002-0.013
						c92.766-145.231,155.797-250.048,176.527-281.642c2.171-3.309,5.976-9.166,12.8-15.153
						c25.284-22.187,51.492-10.615,88.723-21.813c42.245-12.706,58.839-43.778,68.271-37.618
						c6.561,4.285,3.601,17.768-11.959,40.832c-0.001,0.002,0.002,0.005,0.003,0.003c13.837-16.164,33.558-37.268,42.469-29.595
						c9.815,9.409-10.444,36.924-23.513,52.97c15.819-19.422,30.042-25.017,33.944-19.501c6.142,8.682-2.618,26.6-24.521,51.458
						l0.001,0.002c19.918-12.939,26.679-13.109,28.94-7.393c4.128,10.438-14.264,30.535-33.247,45.81
						c-21.37,17.196-43.909,23.118-58.209,26.514c-0.004,0.001-0.007,0.004-0.009,0.007
						c-54.425,108.453-94.184,176.092-131.453,266.752C1371.497,1436.387,1234.217,1401.184,1226.484,1306.989z"/>
					<path style="fill:#363E44;" d="M1224.79,1309.953c-0.406,0-0.815-0.112-1.182-0.346c-1.026-0.654-1.324-2.016-0.671-3.04
						c12.78-20.018,25.751-40.45,38.553-60.728c0.651-1.027,2.008-1.334,3.038-0.687c1.028,0.649,1.335,2.009,0.686,3.037
						c-12.806,20.285-25.781,40.723-38.565,60.747C1226.228,1309.594,1225.516,1309.953,1224.79,1309.953z"/>
					<path style="fill:#84524D;" d="M1472.778,1006.603c21.097-38.213,20.608-56.466,14.446-59.617
						c-10.363-5.298-41.729,19.953-79.597,71.917C1426.085,1017.104,1454.319,1008.403,1472.778,1006.603z"/>
					<g>
						<path style="fill:#363E44;" d="M1464.535,1081.049c-0.359,0-0.722-0.087-1.06-0.273c-1.064-0.586-1.453-1.924-0.866-2.99
							c3.883-7.057,11.167-16.867,23.825-23.533c17.901-9.431,35.416-6.429,42.113-4.7c1.178,0.304,1.886,1.505,1.58,2.682
							c-0.303,1.177-1.511,1.881-2.681,1.581c-6.203-1.603-22.419-4.383-38.961,4.332c-11.69,6.158-18.426,15.232-22.019,21.76
							C1466.066,1080.637,1465.312,1081.049,1464.535,1081.049z"/>
						<path style="fill:#363E44;" d="M1435.735,1002.485c-0.935,0-1.802-0.6-2.099-1.538c-0.368-1.159,0.275-2.396,1.434-2.763
							c9.346-2.959,19.12-3.618,29.471-4.316c4.79-0.324,9.746-0.657,14.906-1.23c1.219-0.134,2.298,0.738,2.432,1.945
							c0.133,1.208-0.737,2.297-1.946,2.431c-5.255,0.584-10.258,0.921-15.095,1.248c-10.077,0.678-19.598,1.32-28.439,4.12
							C1436.178,1002.452,1435.955,1002.485,1435.735,1002.485z"/>
						<path style="fill:#363E44;" d="M1526.758,1014.177c-0.914,0-1.767-0.573-2.081-1.485c-0.398-1.149,0.213-2.403,1.363-2.799
							c4.896-1.691,9.652-3.841,14.137-6.392c6.506-3.702,12.513-8.279,17.85-13.602c0.862-0.86,2.255-0.857,3.113,0.004
							c0.858,0.86,0.858,2.254-0.004,3.113c-5.614,5.6-11.933,10.415-18.783,14.312c-4.717,2.685-9.723,4.948-14.876,6.727
							C1527.24,1014.137,1526.997,1014.177,1526.758,1014.177z"/>
						<path style="fill:#363E44;" d="M1547.674,1034.964c-0.914,0-1.767-0.573-2.081-1.485c-0.396-1.149,0.213-2.403,1.363-2.799
							c4.891-1.689,9.647-3.839,14.137-6.392c6.506-3.702,12.513-8.279,17.85-13.602c0.86-0.86,2.253-0.856,3.113,0.004
							c0.858,0.86,0.858,2.254-0.004,3.113c-5.614,5.6-11.933,10.415-18.783,14.312c-4.721,2.688-9.727,4.95-14.876,6.727
							C1548.153,1034.924,1547.912,1034.964,1547.674,1034.964z"/>
						<path style="fill:#363E44;" d="M1555.803,1069.905c-0.914,0-1.767-0.573-2.081-1.485c-0.398-1.149,0.213-2.403,1.363-2.799
							c4.896-1.691,9.651-3.841,14.137-6.392c6.506-3.703,12.513-8.279,17.85-13.602c0.862-0.86,2.255-0.856,3.113,0.004
							c0.858,0.86,0.858,2.254-0.004,3.113c-5.614,5.6-11.933,10.415-18.783,14.312c-4.717,2.685-9.723,4.948-14.876,6.728
							C1556.285,1069.866,1556.042,1069.905,1555.803,1069.905z"/>
					</g>
				</g>
			</g>
			<path style="fill:#363E44;" d="M1015.414,1526.997c19.108,50.222,36.89,106.255,51.202,167.829
				c42.889,184.521,38.178,348.092,22.757,469.353c-89.13-1.896-178.259,1.896-267.389,0
				c-6.638-94.819-13.274-195.327-19.912-290.145c-15.172,45.513-30.342,91.026-45.514,136.539
				c-17.067,51.202-34.135,102.404-51.202,153.606c-91.026-2.845-182.051,2.845-273.077,0
				c4.93-93.266,21.807-231.872,73.958-378.327c49.791-139.828,114.914-247.344,167.829-321.436
				C787.849,1485.276,901.632,1506.137,1015.414,1526.997z"/>
			<g>
				<path style="fill:#84524D;" d="M523.556,1222.914c-63.668,51.267-252.414,172.768-160.023,296.374
					c34.855,46.63,191.943-103.077,258.466-149.887C589.186,1320.572,556.371,1271.743,523.556,1222.914z"/>
				<path style="fill:#FFFFFF;" d="M466.704,1250.126c23.383-21.616,198.693-178.39,437.113-139.384
					c137.49,22.494,224.845,61.963,275.358,93.998c-50.425,91.247-66.756,111.443-95.202,146.842
					c14.539,73.959,29.077,147.917,43.616,221.876c-108.093-0.948-457.026-11.379-567.015-15.171
					c19.596-62.58,39.191-96.056,58.786-158.637c-15.17,12.643-30.342,25.285-45.512,37.927
					C538.766,1379.08,497.994,1305.121,466.704,1250.126z"/>
				<g>
					<path style="fill:#D87355;" d="M729.508,1515.525c-0.245,0-0.494-0.042-0.74-0.129c-1.144-0.407-1.742-1.667-1.335-2.812
						l101.51-285.008h222.95c1.217,0,2.202,0.986,2.202,2.202c0,1.216-0.985,2.202-2.202,2.202H832.048l-100.466,282.082
						C731.26,1514.962,730.413,1515.525,729.508,1515.525z"/>
				</g>
				<g>
					<polygon style="fill:#D87355;" points="961.559,1527.03 740.161,1527.03 841.149,1243.485 1062.547,1243.485 					"/>
				</g>
				<g>
					<path style="fill:#84524D;" d="M412.462,1368.728c75.745,5.066,254.713,8.165,272.171,9.163
						c32.635,1.867,207.516,16.427,208.151,41.89c0.303,12.167-33.515,10.884-44.934,10.119
						c8.918,5.166,45.315,21.295,42.106,34.556c-3.77,15.579-50.083,3-50.928,3.259c9.589,4.327,48.482,20.019,46.462,30.054
						c-2.627,13.056-43.187,9.31-55.278,7.626c1.038,1.827,40.122,11.342,37.651,27.043c-1.814,11.527-39.02,8.032-55.165,6.564
						c-28.997-1.635-367.266-2.409-430.115-10.58C357.981,1525.222,379.186,1392.448,412.462,1368.728z"/>
					<path style="fill:#363E44;" d="M575.607,1376.403c-0.026,0-0.049,0-0.073-0.001c-38.482-1.259-138.977-5.733-163.438-7.096
						c-1.215-0.068-2.144-1.107-2.075-2.321c0.067-1.213,1.094-2.162,2.32-2.076c24.446,1.363,124.879,5.834,163.335,7.092
						c1.217,0.04,2.169,1.058,2.129,2.273C577.766,1375.464,576.79,1376.403,575.607,1376.403z"/>
					<g>
						<path style="fill:#363E44;" d="M848.322,1430.916c-0.293,0-0.587-0.058-0.871-0.181c-6.194-2.666-12.623-4.922-19.107-6.705
							c-11.653-3.207-23.739-4.97-35.921-5.24c-1.215-0.028-2.178-1.035-2.152-2.25c0.028-1.2,1.008-2.153,2.202-2.153
							c0.015,0,0.032,0,0.049,0.001c12.543,0.279,24.988,2.093,36.992,5.396c6.678,1.837,13.3,4.161,19.679,6.907
							c1.116,0.481,1.632,1.776,1.153,2.893C849.986,1430.417,849.173,1430.916,848.322,1430.916z"/>
						<path style="fill:#363E44;" d="M839.726,1469.116c-0.215,0-0.432-0.032-0.647-0.099c-1.352-0.416-2.735-0.818-4.145-1.207
							c-11.649-3.205-23.734-4.968-35.921-5.24c-1.215-0.027-2.178-1.034-2.152-2.25c0.028-1.199,1.008-2.152,2.202-2.152
							c0.015,0,0.032,0,0.049,0.001c12.546,0.28,24.992,2.095,36.992,5.396c1.453,0.401,2.879,0.816,4.27,1.245
							c1.163,0.358,1.815,1.59,1.458,2.752C841.539,1468.508,840.668,1469.116,839.726,1469.116z"/>
						<path style="fill:#363E44;" d="M829.447,1507.199c-0.133,0-0.267-0.012-0.402-0.037c-7.766-1.436-15.736-2.254-23.687-2.433
							c-1.215-0.027-2.178-1.034-2.152-2.25c0.028-1.214,0.948-2.243,2.251-2.151c8.187,0.183,16.392,1.026,24.388,2.504
							c1.195,0.222,1.987,1.37,1.765,2.565C831.414,1506.458,830.487,1507.199,829.447,1507.199z"/>
					</g>
				</g>
			</g>
			<g>
				<path style="fill:#363E44;" d="M668.072,992.082c-69.012,0-125.159-56.146-125.159-125.159
					c0-69.012,56.146-125.159,125.159-125.159s125.159,56.146,125.159,125.159C793.231,935.936,737.085,992.082,668.072,992.082z
					 M668.072,746.168c-66.585,0-120.756,54.17-120.756,120.755c0,66.585,54.171,120.755,120.756,120.755
					s120.755-54.171,120.755-120.755C788.828,800.338,734.657,746.168,668.072,746.168z"/>
				<circle style="fill:#363E44;" cx="690.079" cy="814.403" r="153.205"/>
				<circle style="fill:#363E44;" cx="851.381" cy="933.676" r="103.358"/>
				<path style="fill:#84524D;" d="M935.885,1060.291c-22.838,16.219-87.351-27.815-87.351-27.815l-36.911-77.208
					c0-39.406,31.945-71.351,71.351-71.351h0c39.406,0,71.351,31.945,71.351,71.351
					C954.324,955.269,959.146,1043.771,935.885,1060.291z"/>
				<ellipse style="fill:#84524D;" cx="858.884" cy="1138.83" rx="82.623" ry="33.875"/>
				<rect x="811.623" y="954.468" style="fill:#84524D;" width="88.186" height="180.384"/>
				<path style="fill:#84524D;" d="M946.125,974.031c0,0,20.013,20.968,18.948,26.504c-1.271,6.608-23.564,10.638-23.564,10.638
					S946.657,974.081,946.125,974.031z"/>
				<path style="fill:#363E44;" d="M913.978,1066.479c-0.127,0-0.258-0.011-0.387-0.034c-28.084-4.998-64.751-29.863-66.297-30.919
					c-1.004-0.686-1.264-2.055-0.578-3.059c0.688-1.005,2.06-1.263,3.06-0.578c0.372,0.254,37.441,25.39,64.585,30.222
					c1.198,0.213,1.995,1.355,1.782,2.553C915.954,1065.73,915.025,1066.479,913.978,1066.479z"/>
				<g>
					<path style="fill:#FFFFFF;" d="M874.653,966.001c0,0,13.091-7.041,28.873-7.04c3.358,0-2.977,26.869-6.164,25.347
						C883.348,977.618,874.653,966.001,874.653,966.001z"/>
					<g>
						<defs>
							<path id="SVGID_1_" d="M874.653,966.001c0,0,19.255-10.356,39.211-5.948c19.956,4.408,33.057,21.912,33.057,21.912
								s-19.255,10.356-39.211,5.948C887.753,983.504,874.653,966.001,874.653,966.001z"/>
						</defs>
						<clipPath id="SVGID_00000081638531108064763220000008291499021356897719_">
							<use xlink:href="#SVGID_1_"  style="overflow:visible;"/>
						</clipPath>
						
							<circle style="clip-path:url(#SVGID_00000081638531108064763220000008291499021356897719_);fill:#363E44;" cx="923.093" cy="977.169" r="26.727"/>
					</g>
				</g>
				<path style="fill:#363E44;" d="M920.807,1025.792c-2.494,0-4.982-0.703-7.149-2.109c-4.171-2.707-6.484-7.664-5.895-12.628
					c0.144-1.206,1.234-2.061,2.447-1.927c1.206,0.144,2.07,1.238,1.927,2.447c-0.393,3.31,1.146,6.613,3.919,8.414
					c2.881,1.87,6.627,1.867,9.538-0.005c1.028-0.655,2.386-0.361,3.042,0.662c0.658,1.022,0.361,2.384-0.66,3.042
					C925.793,1025.09,923.296,1025.792,920.807,1025.792z"/>
				<path style="fill:#363E44;" d="M794.258,974.031c0,0,22.75-9.13,46.235,14.974l15.223-8.335c0,0-8.817-97.091,97.596-58.929
					c0,0-36.495-81.53-107.682-51.59C774.443,900.091,794.258,974.031,794.258,974.031z"/>
				<g>
					<path style="fill:#84524D;" d="M793.359,991.09c4.163,13.941,17.364,22.308,29.487,18.689
						c12.123-3.62,18.576-17.856,14.413-31.797c-4.162-13.941-17.365-22.309-29.487-18.689
						C795.649,962.912,789.196,977.148,793.359,991.09z"/>
					<path style="fill:#363E44;" d="M827.802,982.558c-0.948,0-1.825-0.618-2.109-1.573c-2.03-6.797-8.362-10.928-14.126-9.211
						c-3.414,1.02-6.031,3.961-6.996,7.868c-0.292,1.181-1.492,1.898-2.666,1.608c-1.18-0.292-1.901-1.486-1.608-2.666
						c1.344-5.435,5.087-9.558,10.011-11.029c8.089-2.42,16.88,3.047,19.604,12.169c0.348,1.165-0.314,2.392-1.479,2.739
						C828.221,982.528,828.01,982.558,827.802,982.558z"/>
				</g>
				<path style="fill:#EFBC73;" d="M816.323,1047.061c-12.941,0-23.47-10.529-23.47-23.471c0-12.942,10.529-23.471,23.47-23.471
					c12.943,0,23.472,10.529,23.472,23.471C839.795,1036.532,829.266,1047.061,816.323,1047.061z M816.323,1004.522
					c-10.514,0-19.067,8.554-19.067,19.068s8.553,19.068,19.067,19.068c10.514,0,19.069-8.554,19.069-19.068
					S826.836,1004.522,816.323,1004.522z"/>
			</g>
		</g>
		<g>
			<path style="opacity:0.5;fill:#FFFFFF;" d="M1317.519,893.296h-288.712c-23.387,0-42.522-19.135-42.522-42.522l0,0
				c0-23.387,19.135-42.522,42.522-42.522h288.712c23.387,0,42.522,19.135,42.522,42.522l0,0
				C1360.04,874.161,1340.905,893.296,1317.519,893.296z"/>
			<g>
				<path style="fill:#FFFFFF;" d="M1325.982,918.435h-272.306c-26.624,0-48.284-21.66-48.284-48.284s21.66-48.285,48.284-48.285
					h272.306c26.624,0,48.286,21.66,48.286,48.284S1352.606,918.435,1325.982,918.435z M1053.676,826.27
					c-24.197,0-43.88,19.685-43.88,43.881c0,24.196,19.684,43.88,43.88,43.88h272.306c24.197,0,43.882-19.685,43.882-43.88
					c0-24.197-19.686-43.881-43.882-43.881H1053.676z"/>
				<path style="fill:#D87355;" d="M1070.433,869.104c0,9.255-7.503,16.757-16.757,16.757c-9.255,0-16.757-7.503-16.757-16.757
					c0-9.255,7.502-16.758,16.757-16.758C1062.931,852.346,1070.433,859.849,1070.433,869.104z"/>
				<path style="fill:#D87355;" d="M1124.012,869.104c0,9.255-7.502,16.757-16.757,16.757c-9.255,0-16.757-7.503-16.757-16.757
					c0-9.255,7.503-16.758,16.757-16.758C1116.51,852.346,1124.012,859.849,1124.012,869.104z"/>
				<path style="fill:#D87355;" d="M1177.591,869.104c0,9.255-7.503,16.757-16.757,16.757s-16.757-7.503-16.757-16.757
					c0-9.255,7.503-16.758,16.757-16.758S1177.591,859.849,1177.591,869.104z"/>
				<path style="fill:#D87355;" d="M1231.17,869.104c0,9.255-7.502,16.757-16.757,16.757c-9.255,0-16.757-7.503-16.757-16.757
					c0-9.255,7.502-16.758,16.757-16.758C1223.668,852.346,1231.17,859.849,1231.17,869.104z"/>
			</g>
		</g>
		<g>
			
				<ellipse transform="matrix(0.7071 -0.7071 0.7071 0.7071 -218.6571 1674.0884)" style="fill:#FFFFFF;" cx="1911.475" cy="1100.987" rx="134.757" ry="134.757"/>
			<g>
				<polygon style="fill:#D3BBA3;" points="1988.587,1029.504 1982.088,1024.751 1961.28,1053.203 1941.921,1039.044 
					1962.73,1010.593 1956.231,1005.84 1919.559,1022.029 1915.243,1061.882 1947.599,1085.546 1984.271,1069.357 				"/>
				<polygon style="fill:#D3BBA3;" points="1834.363,1172.469 1840.861,1177.222 1861.67,1148.771 1881.028,1162.929 
					1860.22,1191.38 1866.719,1196.133 1903.39,1179.944 1907.706,1140.092 1875.35,1116.427 1838.679,1132.616 				"/>
				
					<rect x="1897.342" y="1054.254" transform="matrix(0.8072 0.5903 -0.5903 0.8072 1019.7215 -914.4935)" style="fill:#D3BBA3;" width="24.51" height="98.599"/>
			</g>
		</g>
	</g>
</g>
</svg>
